<svg height="190" viewBox="0 0 207 190" width="207" xmlns="http://www.w3.org/2000/svg"><g fill="none" fill-rule="evenodd"><path d="m162.482668 59.2221347c22.085609 27.2781237 46.738927 52.8317753 44.357358 75.8665203-2.334674 22.988632-31.796583 43.459077-59.998807 51.20025-28.248398 7.693619-55.236389 2.657246-82.6446362-8.067564-27.3614238-10.677977-55.14310328-27.045111-62.28694518-50.360134-7.09716285-23.268191 6.44351192-53.5311042 26.47430548-80.3432012 20.0307936-26.7655519 46.5520668-50.12709895 69.5243617-47.28267256 23.0191902 2.79779635 42.4894742 31.75493456 64.5743632 58.98680146z" fill="#f8f8f8"/><circle cx="179" cy="126" fill="#39bee8" fill-rule="nonzero" r="2"/><circle cx="69.5" cy="19.5" fill="#ff9f67" fill-rule="nonzero" r="3.5"/><circle cx="31.5" cy="140.5" fill="#b3db64" fill-rule="nonzero" r="3.5"/><g fill="#0d0938"><path d="m148.572334 44.5973514c.000719-.0025768.000719-.0051535.001438-.0077303 0-.0025767.000719-.0051534.000719-.0078018.020856-.1407902.014383-.280292-.020855-.4183624-.03452-.1380703-.094928-.264259-.179788-.3785661-.08558-.114307-.189857-.2080002-.312113-.2810794-.122975-.0731508-.255299-.1201047-.396253-.1408618-2.607646-.3830754-5.067867-.4628828-7.38138-.2395653-.142393.0137426-.276874.0541116-.402726.1210352-.126571.0669237-.235163.1553918-.325776.2652611-.091332.109941-.157494.2329803-.199205.3691897-.041711.1362093-.055375.2751386-.041711.4168593.000719.0040083.000719.0079449.001438.0119532 0 .0040083.000719.0080165.001439.0119532.034519.2897401.166124.5260845.394814.7089615.227972.182877.488305.2602508.780281.2320498 2.13804-.2064256 4.423507-.1309128 6.857118.2265384.291976.0428741.556624-.0223318.794664-.195546.238039-.1732142.380432-.4046914.427896-.6942883zm-14.053678.9702858c.053937.1264035.082703.2582467.085579.3956013.002877.1372829-.019417.2702714-.0676.3990368-.049621.1334179-.123694.2522343-.22078.3565207-.097804.1042148-.211431.1859547-.341597.2452198-1.143453.5205015-2.230811 1.1535207-3.261357 1.8990576-.003595.002362-.006472.0046524-.010068.0069428-.002876.0022905-.006472.0045809-.009349.0068714-.240916.1661997-.506283.2249637-.795382.1760772-.2891-.0488149-.519948-.191323-.691825-.4274526-.084141-.115166-.143111-.2419988-.176192-.3804271-.0338-.1384282-.038835-.27793-.016541-.4185771s.070477-.2716314.145269-.3930245.170439-.2238901.285503-.3076341c1.147768-.8296388 2.358821-1.5345205 3.63244-2.1145733.27112-.1233257.545836-.1332748.825587-.0298473.279031.1034991.480393.2900265.604088.5596537.002157.0043661.004315.0088039.006472.0132416.001438.0044377.003596.0088754.005753.0133131zm27.815379 3.66391c-.001438.0025052-.002876.0049388-.004315.0073724-.001438.0024336-.002157.0048671-.003596.0073007-.139515.258533-.349508.4313177-.630696.5184259-.281189.0871081-.553029.0634164-.8148-.0710035l-.108592-.0557578c-2.288343-1.0172399-4.487511-1.8618381-6.598224-2.5337231-.281908-.0896849-.491181-.2649748-.62782-.5259413-.136639-.2610381-.161809-.5320969-.074073-.8133911.00072-.0017178.00072-.0034356.001439-.0051534.000719-.0017179.001438-.0035073.001438-.0052251.043868-.1355652.111469-.2577456.204239-.3663981.092052-.1087242.202082-.1956176.329372-.2608234.12729-.0652774.261772-.1037854.404164-.1155955.143111-.01181.282627.0039367.418546.0473119 2.194854.6987976 4.478163 1.5757482 6.849209 2.6308518.008629.0040798.017978.0083028.026608.0125974.009349.0043661.017979.0088039.027328.0133847l.135201.0694289c.12729.0652774.236601.1522424.329371.2609665.092052.1087241.160371.2309046.203521.3665413.043868.1356368.059689.2743513.047464.4162152-.011507.1418638-.050341.276069-.115784.4026156zm4.245876 2.700567c-.001438.0019326-.002876.0038651-.004315.0057977-.002157.001861-.003595.0037935-.005034.0057261-.176911.2346981-.24595.4975972-.206396.7886257.039553.2910285.175473.5263707.409197.7059552 1.851818 1.4252237 3.561243 3.0032624 5.126838 4.7342593.096367.1057895.208554.1893188.337283.250588.129447.0612692.265367.0956257.408478.1030696.140235.0073724.276874-.0118816.409198-.0576903.133043-.0458803.252423-.1148797.358138-.2070698.001438-.0015746.003596-.0031493.005034-.004724.002157-.0016462.003596-.0032209.005753-.0047956.221499-.198409.33944-.4456329.355262-.7417433.015821-.2960388-.076231-.5542855-.275436-.7745968-1.652612-1.8266941-3.456247-3.4920557-5.410903-4.9960847-.113626-.0870366-.238759-.1492362-.376836-.1865989-.138077-.0373628-.278312-.0470255-.419985-.0289884-.141673.0181088-.274716.062486-.39913.1332032-.124413.0707888-.230128.1624778-.317146.275067zm9.873964 10.3453976c-.002158.0012884-.004315.0025768-.006473.0038651-.002157.0012884-.003596.0025768-.005753.0038651-.249546.1574675-.40704.3792819-.473202.6654432-.066162.2861614-.021575.5542139.133043.8041577 1.228312 1.9836606 2.266049 4.0586523 3.113211 6.2252615.106434.2741365.294852.4709708.563815.5905029.268963.1202479.542241.1288371.818396.0264832.002157-.0007158.005034-.0021473.007191-.002863.002158-.0007158.004315-.0014316.006473-.0021473.133762-.0522506.251703-.1266898.355261-.2254648.103558-.0980593.183384-.2125811.241635-.3428496.057532-.1302685.087737-.2669789.090613-.4094154.003596-.1424365-.020855-.2798626-.072634-.4122785-.894626-2.2882885-1.989895-4.4797346-3.287246-6.5740518-.074792-.1211784-.170439-.2234607-.286942-.3068468-.115783-.0833862-.243073-.141506-.382589-.1743595-.138796-.0328534-.279031-.0380069-.420704-.0153173-.140954.0226181-.272559.0712899-.394095.1460153zm5.550418 13.1409461c-.002157.0007158-.004315.0014315-.007191.0014315-.002158.0007158-.004315.0014316-.007192.0014316-.28838.0594081-.514913.2111495-.679599.4552241-.163967.2440746-.217903.5103377-.162528.7987895.334406 1.7400155.548713 3.500788.642922 5.2830334.028766.5582937.046745 1.1151559.051779 1.6713024.001438.1424364.030204.2791468.086298.4101311s.135201.2462219.237321.3464285c.099962.0980592.215745.1732142.345193.2261805.130166.0529663.265367.0801652.406321.080881h.014383c.297729-.002863.550871-.1102272.759425-.3220925s.311393-.4659606.308516-.7622857c-.005753-.5869242-.024451-1.1745641-.055374-1.7629198-.098524-1.8803047-.324338-3.7384208-.677442-5.5743482-.027328-.1402892-.079826-.2691262-.158214-.3886584-.079106-.1188163-.17763-.2183071-.295571-.2977566-.11866-.0801653-.248108-.1345631-.387623-.1631936-.140235-.0293462-.28047-.0300619-.421424-.0035788zm-2.492582 22.6817566c.05897.1266897.139515.2383484.242354.3335447.102839.095912.219342.1682039.350947.2183072.002157.0007157.004314.0021472.006472.002863.002877.0007158.005034.0014315.007191.0021473.279751.1023538.554467.0916174.824868-.032925.270402-.1245425.456662-.3256714.559501-.6041025.852915-2.3083298 1.488646-4.6739206 1.907911-7.097488.050341-.2920306-.010787-.5590095-.182664-.8009368-.171878-.242643-.404164-.3886583-.697578-.4387616-.002877-.0007158-.005034-.0007158-.007192-.0014315-.002876 0-.005034-.0007158-.00791-.0007158-.138078-.0221886-.276155-.0171782-.412794.0143152-.137358.0322093-.26321.0880387-.377555.1689197-.117222.0823125-.213588.1832349-.289818.3034827-.076231.1209637-.126571.2512322-.151022.3915214-.396973 2.2947304-.998903 4.5343472-1.805792 6.7202819-.049622.1338473-.071196.2712735-.065443.4137099.005753.1424365.038834.2777154.098524.4072682zm-3.031228 5.4684155c-1.142733 1.926829-2.444399 3.742-3.904998 5.445511-.059689.069429-.119379.139574-.180507.209002-.19489.224749-.281189.484571-.260333.78018.021574.29561.145269.5404.370363.734371.225095.193971.486147.280579.783877.259106.29701-.021473.54296-.144584.73785-.368617 1.618812-1.861695 3.055679-3.850796 4.311319-5.968017.151741-.254811.189856-.526085.115784-.813105-.074073-.28702-.239478-.506043-.496216-.657069-.002157-.001431-.004315-.002147-.005753-.003578-.002157-.001432-.004315-.002148-.006472-.003579-.122256-.069429-.252423-.113806-.391938-.132416-.139516-.01861-.276874-.010737-.412794.024336-.138796.035788-.265367.095912-.379712.181803-.114346.085176-.207835.189677-.28047.312072z"/><path d="m23.2696539 33.1327206h9.9713705c.8059024 0 1.4592153.6533129 1.4592153 1.4592153 0 .8059023-.6533129 1.4592153-1.4592153 1.4592153h-9.9713705c-.8059023 0-1.4592152-.653313-1.4592152-1.4592153 0-.8059024.6533129-1.4592153 1.4592152-1.4592153z" fill-rule="nonzero" transform="matrix(-.76604407 -.64278805 -.64278805 .76604407 72.135457 26.255183)"/><path d="m30.9707146 26.4838156h9.9713678c.8059022 0 1.4592149.6533128 1.4592149 1.4592149s-.6533127 1.4592149-1.4592149 1.4592149h-9.9713678c-.8059022 0-1.4592149-.6533128-1.4592149-1.4592149s.6533127-1.4592149 1.4592149-1.4592149z" fill-rule="nonzero" transform="matrix(-.50000018 -.8660253 -.8660253 .50000018 78.133975 45.110661)"/><path d="m18.9191866 43.073496h9.9713714c.8059024 0 1.4592154.653313 1.4592154 1.4592154s-.653313 1.4592154-1.4592154 1.4592154h-9.9713714c-.8059024 0-1.4592154-.653313-1.4592154-1.4592154s.653313-1.4592154 1.4592154-1.4592154z" fill-rule="nonzero" transform="matrix(-.98162718 -.190809 .190809 -.98162718 38.873302 92.808495)"/></g><text fill="#001d55" font-family="Poppins-Bold, Poppins" font-size="80" font-weight="bold"><tspan x="35" y="121">4</tspan></text><text fill="#ff6d5a" font-family="Poppins-Bold, Poppins" font-size="80" font-weight="bold"><tspan x="78" y="121">0</tspan></text><text fill="#001d55" font-family="Poppins-Bold, Poppins" font-size="80" font-weight="bold"><tspan x="119" y="121">0</tspan></text></g></svg>