<svg height="190" viewBox="0 0 180.648453 190" width="180.648453" xmlns="http://www.w3.org/2000/svg"><g fill="none" fill-rule="evenodd"><path d="m54.5469778 40.8611879c25.1243202-20.2714689 48.6605772-42.90010063 69.8767872-40.71438578 21.173739 2.14286937 40.028095 29.18577628 47.158122 55.07152448 7.086227 25.9284613 2.447462 50.7000284-7.430651 75.8570064-9.834978 25.114596-24.909968 50.614603-46.384331 57.17188-21.4312259 6.514233-49.3049599-5.914264-74.0003105-24.300069-24.6524802-18.385805-46.16971275-42.728917-43.54983924-63.814582 2.57693673-21.1287097 29.24797644-38.9999715 54.33022254-59.2713741z" fill="#f8f8f8"/><g fill-rule="nonzero"><circle cx="86" cy="188" fill="#39bee8" r="2"/><circle cx="152.5" cy="91.5" fill="#ff9f67" r="3.5"/><circle cx="25.5" cy="98.5" fill="#b3db64" r="3.5"/></g><g fill="#0d0938"><path d="m124.14591 51.6946625c2.232661-.4241535 4.483861-.6556953 6.752276-.6944938.274116-.004669.50983.0875926.707141.2768505.197311.189258.297953.4200764.303263.6924553v.0127574c.000649.1285613-.023187.2525193-.071522.3718741-.048334.1193549-.117857.2252288-.207242.3176877-.092035.0941029-.197974.1672283-.318479.2193104-.121168.0521479-.24697.0793726-.378731.0816084-2.155193.0368258-4.292509.256728-6.413933.6596409-.129113.0245943-.258226.0236737-.387339-.0028277-.129113-.0264356-.247632-.0764134-.356882-.1498676-.107263-.0722704-.196649-.1619016-.268157-.2688935-.072171-.1069919-.121168-.2235191-.14699-.3495157-.000663-.0020385-.000663-.0041429-.001325-.0061814-.000662-.0020386-.000662-.0041429-.001324-.0062472-.051645-.2675127 0-.513982.153611-.7393423.154274-.2253603.366151-.3635883.635633-.4148155zm12.383586.5921708c0 .0021044-.000662.0042087-.000662.0063788-.000662.0021043-.000662.0042086-.001325.006313-.018539.1273118-.011918.2533084.019202.3781213.031119.1247471.085413.2391042.161556.3430053.077468.1057425.172151.1926775.284711.2608709.11256.0681933.233728.1123842.363503.1326384 2.128046.3314973 4.212392.8431119 6.252376 1.5347122.256902.0871981.507844.0720732.752828-.0453088.244321-.117382.412499-.3031547.503209-.5574495.000662-.0020385.001987-.0040113.002649-.0060499.000662-.0019728.001324-.0040114.001986-.0059842.042376-.1238265.059591-.2510068.050983-.3815408-.007945-.1305341-.041713-.2544921-.099318-.3719399-.058266-.117382-.136396-.2193104-.235713-.3057193-.098656-.086409-.210554-.1507882-.335032-.1930063-2.148572-.7285576-4.344154-1.2674627-6.586084-1.6166495-.270806-.042218-.517114.0169004-.738923.1772896-.221147.160455-.353571.3752279-.395946.6443187zm-17.63153 1.8226106c.044362.120933.064226.2456144.058929.3741099-.005297.1285613-.03443.2514014-.0874.3685204-.054956.1191575-.129775.2234532-.225782.3128871-.096007.0894997-.205919.1572327-.329072.2033307-1.987015.7432878-3.894576 1.6459785-5.723345 2.708072-.031782.0185444-.062901.0368257-.094021.0549755-.236376.1381623-.487318.1731467-.752827.1048876-.265509-.0681933-.467455-.2197049-.607162-.4544032-.066874-.112713-.10925-.2338434-.127789-.363391-.017877-.1295477-.010594-.2576486.022512-.384237.033106-.1266542.088724-.242195.168178-.3466222.079454-.104493.175461-.1899156.289345-.2562676 1.955234-1.1434389 3.996542-2.1131393 6.124588-2.9092326.256902-.0960099.509831-.0877899.760111.0245286.249619.1123842.423093.2960525.519763.5509392.000662.0019728.001324.0039456.001986.0059184s.001324.0039456.001986.0059842zm30.218385 2.0842705c-.000662.0018413-.001986.0036825-.002648.0055238-.001324.0018413-.001987.0036826-.003311.0055896-.127126.2383809-.152287.4868888-.074157.745458s.236376.4526934.474738.5822411c.25624.1392144.510493.2813223.763422.4263236 1.624837.9316251 3.165584 1.9726096 4.622905 3.1229533.21254.1680174.454213.2375259.724357.2085914.270144-.0288687.490629-.1478947.662779-.3569465.001325-.001644.002649-.003288.003973-.004932s.002649-.0033538.003973-.0049978c.082102-.1023887.141031-.2164827.177447-.3422162.036417-.1257336.047011-.2535715.031782-.3835794-.014567-.1299423-.054294-.2521248-.117857-.3664818-.064225-.1144228-.147652-.212274-.250943-.2936852-1.533464-1.2111062-3.155652-2.3068031-4.86524-3.2872224-.266171-.1526952-.533666-.3021682-.803148-.448419-.115209-.062801-.239025-.1012707-.369462-.1153434-.131099-.0141385-.25955-.002762-.386014.0339322-.126465.03676-.241011.0961415-.34364.1780788-.102628.082003-.185392.1803803-.248956.2951319zm10.546871 7.9006313c-.001986.001381-.00331.0028277-.005296.0042744-.001325.0014467-.002649.0028935-.004635.0043402-.200622.1816955-.308547.4073188-.323114.6768043-.014566.2694854.068861.5051701.248957.707054 1.428849 1.5998148 2.710047 3.3116194 3.842268 5.1354794.06886.111332.156922.2053034.263523.2818483.106601.0766107.224458.130008.352246.1601919.125803.0296579.252929.0347214.380718.0150591.128451-.0196623.247632-.0625379.358868-.128627.001986-.0010521.003972-.0021701.005297-.003288.001986-.0010521.003972-.0021701.005959-.003288.233065-.1429627.381379-.346951.444943-.6119647.062901-.2650795.023174-.5135216-.121168-.7453922-1.192474-1.9209878-2.541207-3.7240676-4.046863-5.4092393-.182082-.2037909-.40985-.3138078-.683305-.3300506-.274117-.0162427-.513141.0660233-.718398.2467982zm7.208475 10.9611782c-.001987.0007891-.003973.0015782-.005959.0023674-.001987.0008548-.003973.001644-.005959.0024988-.250943.1034409-.429053.2795468-.534329.5283177-.105277.248771-.107925.4984626-.006621.7490091.8005 1.9884578 1.425539 4.0305102 1.873792 6.1261572.027147.1282325.07813.2459433.15295.3537901.074157.1078467.166853.1972807.277427.2683017.108587.0703635.226444.1177108.353571.1413845.127126.0243313.254253.0243313.381379-.0013152.001987 0 .003973-.0006576.005959-.0006576.001987-.0006576.003973-.0013152.006622-.0013152.268157-.0565538.476724-.1992535.626363-.4274415.148976-.2288456.195325-.4761041.138382-.742433-.472089-2.2063872-1.129572-4.3560892-1.972448-6.4492373-.048997-.1214591-.119181-.2289771-.211215-.3225539-.092035-.0936426-.198636-.1661761-.319803-.2177321-.121168-.0514903-.247632-.0780574-.379394-.0797102-.131099-.0015037-.258225.0219727-.380717.0705695zm2.503466 21.4672298c-.001986-.0006576-.00331-.0006576-.004634-.0006576-.001325 0-.002649-.0006576-.004635-.0006576-.269482-.0387985-.486657-.1663734-.650862-.3820669-.163543-.2163512-.227768-.4583488-.19069-.7266506.229755-1.6854347.392636-3.4622761.489305-5.3305242-.001986-.4215231-.010594-.8437038-.026484-1.2652268-.010594-.269617.076143-.504381.25955-.7029769.183406-.1992535.411175-.3057851.682643-.3195947h.006621c.001986 0 .003973-.0006576.005959-.0006576.274117-.0098641.511817.0775971.713101.2623833.200621.1854439.30656.4142895.317154.6865368.017215.453088.026485.9068336.027809 1.3599216 0 .0085488 0 .0177552-.000662.0263041 0 .0092064 0 .0177552-.000662.0269617-.099318 1.9333507-.267496 3.7739796-.50652 5.5218865-.017215.1295476-.059591.2505464-.125803.363654-.066211.1131076-.151624.2091176-.256239.2886875-.105277.0789122-.221147.135466-.348274.1690037-.127789.0328802-.256239.041429-.386677.0236737zm-4.415 10.9957683c-.12514.238709-.148314.485968-.06886.74309.078792.257123.237038.4498.474738.57869.002649.001316.005297.002631.008608.003946.002648.001973.005297.003288.007945.004603.117195.0605.241011.09601.37211.107847.1311.011179.25955-.003288.385353-.042087.125802-.039456.239024-.10127.339666-.185443s.18142-.184129.242335-.300525c.975962-1.863645 1.789042-3.942325 2.438579-6.234727.074157-.261726.044362-.511615-.089386-.749667-.134409-.237394-.333707-.393246-.59723-.466897-.001986-.000658-.003972-.001315-.005959-.001315-.001986-.000658-.003972-.001316-.005959-.001973-.12514-.033538-.252267-.042087-.380717-.025647-.128451.015783-.249619.055239-.362179.118369-.115208.063787-.213202.147303-.294642.249889-.08144.102585-.140369.217008-.176123.343268-.612459 2.161539-1.375219 4.114618-2.288279 5.858579zm-8.473781 8.616563c-.02516.012494-.049659.026304-.073495.040771-.024498.015125-.047672.030907-.070184.047347-.193339.144015-.317817.332747-.372772.566854-.054956.233448-.027147.457691.082102.671412.060253.116395.140369.217008.240349.302497.09998.08483.21254.147303.33768.188074.125802.040114.253591.055239.385352.044717.1311-.009864.255578-.044717.372772-.103901 1.996285-1.010735 3.776719-2.311472 5.340641-3.904185.092034-.094037.162881-.201226.211878-.322883.048334-.121656.07217-.247258.070898-.378121-.002038-.130863-.028523-.256465-.08083-.376806-.051645-.120342-.124478-.226216-.219161-.316965-.002649-.003288-.005959-.005918-.008608-.008548-.00331-.003288-.005959-.005919-.009269-.008549-.197311-.182156-.430377-.269617-.699859-.263041-.269481.006576-.498574.105216-.686616.297236-1.412296 1.437519-3.019256 2.611996-4.820878 3.524091z" transform="matrix(.93969262 .34202014 -.34202014 .93969262 37.404043 -43.128867)"/><g fill-rule="nonzero"><path d="m33.2011918 57.2280047h9.2710448c.7314652 0 1.3244349.5929698 1.3244349 1.324435 0 .7314653-.5929697 1.324435-1.3244349 1.324435h-9.2710448c-.7314652 0-1.324435-.5929697-1.324435-1.324435 0-.7314652.5929698-1.324435 1.324435-1.324435z" transform="matrix(-.90630793 -.42261796 -.42261796 .90630793 96.873741 21.476374)"/><path d="m38.4400796 49.6087274h9.2710468c.7314654 0 1.3244353.5929699 1.3244353 1.3244353s-.5929699 1.3244352-1.3244353 1.3244352h-9.2710468c-.7314654 0-1.3244353-.5929698-1.3244353-1.3244352s.5929699-1.3244353 1.3244353-1.3244353z" transform="matrix(-.70710678 -.70710678 -.70710678 .70710678 109.549839 45.377029)"/><path d="m31.7510145 66.9674526h9.271044c.7314652 0 1.3244349.5929697 1.3244349 1.3244348 0 .7314652-.5929697 1.3244349-1.3244349 1.3244349h-9.271044c-.7314651 0-1.3244348-.5929697-1.3244348-1.3244349 0-.7314651.5929697-1.3244348 1.3244348-1.3244348z" transform="matrix(-.99756405 .06975647 -.06975647 -.99756405 77.448239 133.879222)"/></g></g><path d="m168.464602 112.075618c.070826-.058432.151581-.083.242265-.073704.090023.008632.163497.048472.220422.11952.027801.034529.047659.072377.059574.114873s.015886.084992.011253.129481c-.005296.043824-.017872.084992-.039054.124168-.021182.038512-.048321.072377-.082741.100265l-5.142517 4.222396c-.033758.027888-.07215.048472-.113852.061088-.042363.012616-.084727.017264-.128414.012616-.043025-.003984-.084065-.0166-.122456-.037184-.038392-.021248-.070827-.048472-.097966-.083001-.027801-.033864-.047659-.071712-.059573-.114208-.011915-.042496-.015886-.084992-.011253-.129481.005295-.043824.017872-.084992.039054-.124168.021181-.038512.04832-.072377.082741-.100265zm-11.312346 9.1991c.070826-.058432.151581-.083001.242265-.073705.090684.008632.164158.048473.221084.120185.027139.033864.046997.071712.059574.114209.011914.042496.015886.085656.01059.12948-.004633.043824-.017872.084993-.038391.124169-.021182.039176-.048983.072376-.082741.100264l-1.333785 1.094941c-1.276859 1.048461-2.618586 2.002634-4.025183 2.863846-.03773.022576-.078107.037848-.121133.044488-.043687.00664-.08605.005312-.128414-.005312-.042363-.00996-.081417-.028552-.116499-.054448-.03442-.025896-.063545-.057768-.085389-.095617l-.001323-.001328c-.045673-.078352-.057588-.162016-.035083-.250993.023168-.088976.073474-.157368.15092-.205177 1.380781-.844612 2.697356-1.78152 3.950385-2.810061zm-12.466749 7.144674c.086713-.028553.170116-.022576.250871.018592.081417.041168.135695.104912.163496.192561l.000662.001328c.013239.041832.017872.084992.013901.12948-.00331.043824-.015225.085657-.035745.125497-.019857.039176-.046996.073704-.080093.10292-.033758.028552-.071488.050465-.113189.064409-2.139351.712475-4.323713 1.215125-6.553086 1.507951-.043687.005976-.086712.002656-.128414-.008632-.042363-.011288-.080755-.030544-.115175-.057769-.03442-.027224-.062221-.05976-.083403-.098272-.021844-.038512-.035082-.07968-.039716-.123505l-.000662-.001328c-.009929-.091632.013239-.173304.069503-.245681.056926-.07304.1304-.115536.220422-.127488 2.187671-.28685 4.330993-.780204 6.430628-1.480063zm-20.906989.90902c-.088037-.023904-.154891-.075696-.199903-.156041-.045011-.07968-.055602-.164673-.031772-.254977.024491-.08964.076122-.158033.155553-.205177s.163496-.058432.251532-.035192l1.062395.283529c1.250381.33333 2.514663.594283 3.792846.78286.51498.07636 1.031945.140105 1.551559.192561.043687.004648.084726.017264.123118.038512.038392.020584.071488.048472.098628.083.027139.034529.046996.073041.059573.115537.011915.041832.015886.085656.011253.129481v.001992c-.009929.092296-.050969.167992-.122457.227089-.071488.058432-.152243.083664-.243589.074368-.86514-.087648-1.724984-.206505-2.578209-.358562-.963767-.170649-1.919591-.38313-2.868133-.636115zm-7.289149-2.076338v-.001992c.012576-.091632-.008605-.173969-.064207-.247009-.05494-.07304-.127752-.115537-.218437-.126825-2.230034-.281537-4.468674-.339305-6.715257-.173305-.043687.003321-.085389.015273-.124443.035193-.039715.01992-.074135.04648-.10326.080344-.028463.0332-.050307.071048-.064869.113545-.013901.041832-.019858.085656-.01721.12948v.001992c.005957.091633.043025.167993.111865.227753.068179.060425.14761.086985.238294.080345 2.203558-.163345 4.398511-.106241 6.58552.169984.090022.011289.17144-.011288.244252-.067728.07215-.05644.115175-.130144.127752-.221777zm-14.500853 1.115525v-.001328c-.027139-.087648-.080755-.15272-.160848-.195217-.080755-.041832-.164158-.049136-.251533-.021248-2.1360409.68658-4.1880171 1.57568-6.1559284 2.667965-.0807552.044488-.1337094.110888-.1601866.199201-.0258151.088312-.017872.173305.0258152.253649l.000662.001328c.0430253.080344.1085561.132801.1952687.158033.0873744.025232.1707773.015272.2508706-.029216 1.9295196-1.070373 3.9417801-1.942209 6.0367815-2.615509.086713-.027888.151582-.083.194607-.164008.042363-.081673.050968-.166001.024491-.25365zm-13.1035227 7.051714c.0681786-.061089.1482719-.089641.238956-.084993s.1661439.041169.2263793.109561c.0602354.067728.0873745.148073.082079.239705-.0059573.091632-.0430253.168657-.1112038.230409-1.6673962 1.504631-3.4612205 2.833302-5.382135 3.986675-.0787694.047144-.1621723.059096-.2502087.037184-.0880364-.022576-.1548911-.07304-.2005641-.152057l-.000662-.001328c-.045673-.079016-.0562638-.16268-.0330964-.251657.0231675-.088976.0741359-.156705.1529054-.203849 1.8831846-1.130133 3.6425887-2.433571 5.2775503-3.90965zm-12.0815063 7.272826c-.0264771-.087648-.0794313-.152721-.1595246-.195217-.0807552-.042496-.1641581-.0498-.2515325-.021912-2.1102259.665331-4.2628151 1.116853-6.4571058 1.353903-.0900222.00996-.16482.050464-.2224077.121512-.0582497.071712-.0834029.152721-.0754598.244353l.0006619.001992c.0086051.091633.0476588.166001.1184851.224433.0701644.057769.1509196.081673.2416037.071713 2.237316-.241697 4.4322686-.701852 6.5841959-1.380463.0880364-.027888.1529053-.082336.1965925-.164009.0430253-.081672.0516304-.166664.0251533-.254977zm-14.4849661 1.339295c.0119147-.092297-.009267-.174633-.064207-.248338-.05494-.07304-.1270902-.115536-.2177743-.127488-1.4006392-.185921-2.7827445-.460818-4.1476396-.825356l-.9141223-.243689c-.4362104-.116201-.8750686-.220449-1.3178983-.311418-.0423633-.008632-.0853887-.008632-.1290759-.000664-.0430253.008632-.082741.025232-.1198089.050464-.037068.024569-.0681786.055113-.0926699.092297-.0251533.037184-.0423634.077688-.0516304.121512v.001992c-.018534.090969-.0033096.174633.046335.251658.0496446.077024.119147.124832.2085072.14276.4295912.088977.8565346.189905 1.2808303.302786l.9147843.244353c1.3913722.371178 2.8006165.651387 4.2290567.841292.0906841.011952.1727632-.010624.2455752-.067064.073474-.057105.1164993-.131473.1290759-.223769zm-14.3257726-1.798785-.0002647-.001992c-.0113852-.091632-.0530866-.165337-.1251044-.220449-.0720839-.055776-.1533025-.077688-.2438542-.065072-2.2368526.310753-4.3912291.926948-6.4631955 1.849912-.0838.037185-.1426454.098937-.1765361.184593-.0338907.086321-.0328316.171313.003111.255641l.0009267.001992c.0364061.083665.0967739.142097.1811697.174633s.1683282.030544.2517311-.00664c2.0149083-.897068 4.1099098-1.496663 6.2850707-1.798784.0900884-.012616.163099-.055112.2190319-.128153.0559329-.07304.0785709-.154713.0679138-.245681zm-13.1145108 5.975364-.0015224-.001328c-.029522-.032536-.0640085-.057104-.1035255-.075696-.0395171-.017928-.0810862-.027888-.124641-.029216-.0435549-.001328-.0857859.005976-.1267592.021248-.0409734.015936-.0775118.038512-.1096153.069056-1.6537604 1.554432-3.0651229 3.308064-4.2341536 5.259569-.0227041.037848-.0373989.078352-.0441505.122177-.0066855.043824-.0049645.086984.0053616.12948.0102598.042497.0281981.081673.0539471.116865.0256828.035192.0571244.064408.0943247.086984.000331 0 .0006619 0 .0009929.000664.000331 0 .0006619 0 .0009929.000664.0774455.045792.1600541.057105.2477596.034528.0877054-.022576.1550896-.073704.2021527-.152056 1.1367948-1.897721 2.5092359-3.602881 4.1174557-5.114816.0665238-.062417.1018707-.139441.1060409-.23041.0041701-.091632-.024028-.170648-.0846606-.237713zm-11.3224737 18.513072c.0133709.041168.0342217.079016.0624198.112216.0281981.033201.0616255.059097.1003483.079017.0806228.040504.1639595.04648.2500101.0166.0860506-.029216.1496619-.084992.1907676-.166665l2.977947-5.950796c.0197254-.03984.0313092-.081672.0347512-.125497.0033758-.043824-.0015886-.08632-.0149596-.128152-.0134371-.041832-.0342216-.079681-.062486-.112217-.0281981-.0332-.0616254-.05976-.1003482-.079016-.0806228-.041168-.1639595-.04648-.2500101-.017264-.0860507.029216-.1496619.084992-.1907676.167329l-2.9778809 5.950796c-.0197916.039176-.0313753.081008-.0347512.124832-.003442.043825.0015225.086985.0149596.128817zm-3.1012641 6.697136c-.0806229-.040505-.1639596-.045817-.2500102-.0166-.0860506.029216-.1496619.084992-.1907676.167328l-2.9778808 5.950797c-.0197916.039176-.0313754.081008-.0348174.124832-.0033758.043824.0015886.086985.0150258.128817.0133709.041168.0342216.079016.0624198.112216.0281981.0332.0616254.059097.1003482.079017.0806228.040504.1639595.04648.2500102.0166.0860506-.029216.1496618-.084993.1907675-.166665l.1821626-.364538 2.7957183-5.586922c.0197916-.039176.0313753-.081009.0348174-.124833.0033758-.043824-.0015887-.086984-.0150258-.128152-.0133709-.041833-.0341555-.079681-.0624198-.112217-.0281981-.0332-.0616255-.05976-.1003482-.07968z" fill="#fff"/><ellipse cx="88" cy="85.5" fill="#f8f8f8" fill-rule="nonzero" rx="40" ry="55.5"/><path d="m130 66.4515575c0 20.852841-15.324371 47.0975415-24.763381 61.2848325-3.634145 5.462458-11.1815262 5.744588-15.0538561.450348-9.4726598-12.951483-24.1827629-37.0391479-24.1827629-61.7351805 0-17.9224654 14.3267629-32.4515575 32-32.4515575 17.673237 0 32 14.5290921 32 32.4515575z" fill="#ff6d5a" fill-rule="nonzero"/><path d="m120 69.9433642c0 16.8036373-12.937237 58.6677108-29.3891959 62.7909018-1.4132783.354641-3.8089897.354641-5.222268-.001977-16.4519588-4.151537-29.3885361-46.2924669-29.3885361-62.7889248 0-17.3595926 14.3267629-31.9433642 32-31.9433642 17.672577 0 32 14.2599808 32 31.9433642zm-10.360742 35.4097458c-6.172371 15.26273-12.675959 23.750375-19.5101034 25.462933-1.4211958.356618-2.8397525.355959-4.2556701-.001319-6.822268-1.721127-13.3265154-10.2503-19.5127422-25.586859-2.5415258-6.3004742-4.5928248-12.8151829-6.1545567-19.5447853-1.4845361-6.4000108-2.2268042-11.6465826-2.2268042-15.7397155 0-8.1682041 2.9321238-15.1971417 8.7963712-21.0868128 5.8939381-5.9193343 12.9682474-8.8790015 21.2242474-8.8790015 8.2949278 0 15.371216 2.9208413 21.228866 8.7624579 5.860948 5.8454399 8.791753 12.9132034 8.791753 21.2033564 0 4.1655112-.742928 9.4570393-2.228124 15.874848-1.557773 6.7322392-3.608413 13.243652-6.153237 19.5348978z" fill="#0d0938"/><path d="m84.3019071 84.6792216s.2675806-3.4868881.6990967-4.6165737 1.3121611-2.3816602 2.6412578-3.7568492l3.3918383-3.3150225c1.4503547-1.5552512 2.1751933-3.2249913 2.1751933-5.0093526 0-1.7189201-.4748709-3.0654208-1.4239353-4.0394359-.9497419-.9740811-3.0463545-1.4610556-4.1430963-1.4610556-1.0967419 0-2.6412578 0-4.2467415 1.326009s-1.6054837 3.5605919-1.6054837 3.5605919-.5304193 2.1991522-2.669032 2.1991522c-2.1386126 0-2.1210021-2.1991522-2.1210021-2.1991522.0345508-2.6520841 1.0310345-4.7924715 2.9908085-6.4213605 1.9590966-1.6288229 4.5095801-2.9461725 7.6514508-2.9461725 3.2624512 0 5.8048058 1.3336768 7.6257088 2.9952864s2.7320319 3.9412081 2.7320319 6.8387955c0 2.8648008-1.3981934 5.6886844-4.1952576 8.4717168l-2.8221287 2.6522824c-1.2599998 1.326009-1.8899998 3.2330558-1.8899998 5.7211405 0 0-.4260967 2.5145255-2.5470965 2.5145255-2.1216771 0-2.2436126-2.5145255-2.2436126-2.5145255zm-.2072903 9.7672526c0-.7363779.2377742-1.3544329.7119677-1.8541651.4748709-.4990712 1.1787095-.7489373 2.1108384-.7489373.932129 0 1.6400321.2498661 2.1230321.7489373.4836773.4997322.7248386 1.1177872.7248386 1.8541651s-.2411613 1.3465007-.7248386 1.8297073c-.483.4825457-1.1909031.7238185-2.1230321.7238185-.9321289 0-1.6359675-.2412728-2.1108384-.7238185-.4741935-.4832066-.7119677-1.0933294-.7119677-1.8297073z" fill="#0d0938"/><circle cx="112.5" cy="132.5" fill="#f8f8f8" fill-rule="nonzero" r="28.5"/><circle cx="115.5" cy="133.5" fill="#e8efff" fill-rule="nonzero" r="22.5"/><g fill="#0d0938" transform="translate(84 104)"><path d="m27.5 47.8225806c11.223871 0 20.3225806-9.0987096 20.3225806-20.3225806s-9.0987096-20.32258065-20.3225806-20.32258065-20.32258065 9.09870965-20.32258065 20.32258065 9.09870965 20.3225806 20.32258065 20.3225806zm0 2.1774194c12.4258065 0 22.5-10.0734677 22.5-22.5s-10.0741935-22.5-22.5-22.5c-12.4265323 0-22.5 10.0734677-22.5 22.5s10.0734677 22.5 22.5 22.5z"/><g fill-rule="nonzero"><path d="m27.6681014 16.2710293c.596891 0 1.0807668.4838758 1.0807668 1.0807668v20.8948246c0 .5968911-.4838758 1.0807668-1.0807668 1.0807668s-1.0807668-.4838757-1.0807668-1.0807668v-20.8948246c0-.596891.4838758-1.0807668 1.0807668-1.0807668z" transform="matrix(.70710678 .70710678 -.70710678 .70710678 27.760808 -11.422102)"/><path d="m27.6681733 16.2710285c.5968912 0 1.0807672.4838759 1.0807672 1.0807671v20.8948311c0 .5968912-.483876 1.0807672-1.0807672 1.0807672s-1.0807671-.483876-1.0807671-1.0807672v-20.8948311c0-.5968912.4838759-1.0807671 1.0807671-1.0807671z" transform="matrix(-.70710678 .70710678 .70710678 .70710678 27.575515 -11.422152)"/></g></g></g></svg>