<svg width="64" height="96" viewBox="0 0 64 96" fill="none" xmlns="http://www.w3.org/2000/svg">
  <g clip-path="url(#a)" fill-rule="evenodd" clip-rule="evenodd">
    <path d="M48.744 74.24H26.136c-3.463 0-6.296-2.828-6.296-6.284V45.963c0-3.456 2.833-6.283 6.296-6.283h22.608c3.463 0 6.296 2.827 6.296 6.283v21.993c0 3.456-2.833 6.284-6.296 6.284Z" fill="#fff"/>
    <path d="M26.13 40.299c-3.126 0-5.67 2.538-5.67 5.658v22.006c0 3.12 2.544 5.659 5.67 5.659h22.62c3.126 0 5.669-2.539 5.669-5.659V45.957c0-3.12-2.543-5.658-5.67-5.658H26.13ZM48.75 74.88H26.13c-3.821 0-6.93-3.103-6.93-6.917V45.957c0-3.814 3.109-6.917 6.93-6.917h22.62c3.821 0 6.93 3.103 6.93 6.917v22.006c0 3.814-3.109 6.917-6.93 6.917Z" fill="#371B45"/>
    <path d="M58.45 60.368s1.46 4.493-3.339 5.456a4.47 4.47 0 0 1-2.43-.162c-3.184-1.158-4.725-6.003-.541-10.852l.14-.16a16.382 16.382 0 0 1 .602-.64s-.221-.364-.933-.874a4.055 4.055 0 0 0-.115-.08c-.436-.303-1.043-.652-1.866-1.004l-1.72-5.194-.003-.01-.305-.92-.274-.824-1.586-4.784s1.05.352 2.552.973a49.611 49.611 0 0 1 2.824 1.27 44.383 44.383 0 0 1 1.426.738s.473.251 1.213.705c3.787 2.325 14.545 9.963 4.355 16.362Z" fill="#fff"/>
    <path d="M52.653 54.4c-.093-.14-.37-.508-.976-.972a37.002 37.002 0 0 0-1.842-4.631.282.282 0 0 0-.328-.153 49.47 49.47 0 0 0-.227-.551c.162-.06.352-.093.518-.093.177 0 .327.038.383.12.59.869.622 1.63 2.163 3.74.48.657 2.056 1.51 2.056 1.51-.628.246-1.233.635-1.747 1.03Zm1.164 11.52a3.61 3.61 0 0 1-.697-.067c.08-.351.145-.707.208-1.063.121-.147.253-.325.372-.53.237.037.461.055.674.055 1.817 0 2.757-1.255 3.213-2.235.044.619-.008 1.438-.422 2.154-.468.81-1.326 1.349-2.55 1.603-.27.056-.537.083-.798.083Z" fill="#D7D1DA"/>
    <path d="M53.545 66.56c-1.844 0-3.525-.986-4.46-2.684-1.252-2.274-1.26-6.027 2.342-9.878-.314-.289-.908-.74-1.937-1.223a.583.583 0 0 1-.282-.783.598.598 0 0 1 .794-.277c2.074.973 2.68 1.891 2.743 1.993l.24.39-.325.325c-3.529 3.534-3.62 6.91-2.529 8.893.868 1.575 2.487 2.338 4.224 1.988 1.268-.254 2.156-.795 2.64-1.606.816-1.364.275-3.105.27-3.122l-.137-.43.385-.243c2.74-1.72 4.09-3.645 4.013-5.725-.199-5.366-9.479-10.352-9.573-10.402-3.288-1.789-6.714-2.942-6.748-2.953a.585.585 0 0 1-.373-.745.597.597 0 0 1 .755-.367c.143.048 3.557 1.196 6.936 3.034.402.213 9.968 5.352 10.193 11.389.09 2.427-1.324 4.622-4.205 6.528.152.74.319 2.272-.483 3.622-.663 1.116-1.818 1.846-3.434 2.17a5.32 5.32 0 0 1-1.049.106Z" fill="#371B45"/>
    <path d="M58.24 60.984a8.656 8.656 0 0 1-1.9.428c-.218.02-.438.035-.66.025.182-.117.361-.225.538-.336l.528-.324c.176-.106.35-.215.526-.316.174-.104.352-.208.523-.3l.445.823Zm3.388-2.744c-.25 0-.452-.187-.452-.416.003-.974-.96-2.018-2.452-2.66-1.794-.773-4.517-.98-6.783.756a.48.48 0 0 1-.636-.053.391.391 0 0 1 .057-.584c2.591-1.985 5.7-1.751 7.746-.87 1.809.778 2.976 2.118 2.972 3.413 0 .229-.203.414-.452.414Z" fill="#371B45"/>
    <path d="M51.84 54.187a13.164 13.164 0 0 1 1.26-.632c.425-.182.86-.342 1.3-.435-.38.261-.72.571-1.046.896a14.061 14.061 0 0 0-.915 1.024l-.599-.853Z" fill="#371B45"/>
    <path d="m26.88 40.32-.845 14.615-.047.821s-.663.286-1.81.578a20.13 20.13 0 0 1-2.247.436c-2.832.387-6.853.338-11.079-1.645-5.354-2.513-6.967-6.62-7.45-9.023-.23-1.159-.2-1.92-.2-1.92s3.456-1.884 4.608-2.034c1.153-.15 4.98-.171 4.98-.171s1.675 3.488 5.913 3.885c1.979.184 3.892-1.012 5.37-2.34a18.22 18.22 0 0 0 1.87-1.964c.593-.72.937-1.238.937-1.238Z" fill="#fff"/>
    <path d="M19.02 56.32c-2.383 0-5.2-.41-8.109-1.725-3.16-1.428-5.36-3.555-6.542-6.321a10.847 10.847 0 0 1-.529-1.554c.146.018.301.032.466.044.294.06.573.081.82.081.41 0 .73-.059.88-.093.102-.008.203-.016.306-.026l.359.12S10.656 53.1 18.607 53.1c1.177 0 2.441-.137 3.793-.452a26.434 26.434 0 0 0-.991 3.535c-.73.083-1.531.136-2.39.136Z" fill="#D7D1DA"/>
    <path d="M13.369 56.96a.567.567 0 0 1-.512-.328.586.586 0 0 1 .264-.775c4.552-2.248 3.568-9.68 3.558-9.754a.578.578 0 0 1 .482-.657.57.57 0 0 1 .642.493c.048.34 1.104 8.35-4.188 10.964a.554.554 0 0 1-.246.057Z" fill="#371B45"/>
    <path d="M18.54 57.6c-2.512 0-5.49-.456-8.592-1.912-4.287-2.013-6.242-5.033-7.127-7.213-.963-2.374-.902-4.265-.9-4.345a.591.591 0 0 1 .608-.569.59.59 0 0 1 .561.616c0 .016-.049 1.753.834 3.897 1.176 2.861 3.369 5.06 6.516 6.538 6.698 3.144 12.914 1.283 14.398.754l.764-13.224c-1.55 1.826-4.44 4.582-7.576 4.29-4.534-.425-6.336-4.08-6.41-4.235a.596.596 0 0 1 .27-.793.58.58 0 0 1 .78.273c.069.14 1.612 3.213 5.467 3.573 3.864.358 7.64-5.252 7.678-5.309a.58.58 0 0 1 .671-.23c.25.085.413.33.397.596l-.896 15.513a.592.592 0 0 1-.356.51c-.189.082-3.03 1.27-7.087 1.27Z" fill="#371B45"/>
    <path d="M6.001 46.597s-2.88.873-4.433-2.049c0 0-3.788-4.44 3.94-8.425 0 0-2.112-7.533 1.014-8.5 3.125-.969 3.892 5.151 3.068 7.912 0 0 2.706.589 3.647 3.624 1.023 3.302-2.15 5.596-2.15 5.596S8.28 46.56 6.001 46.597Z" fill="#fff"/>
    <path d="M2.56 46.08c-.544-.413-.975-1.2-1.28-1.92.218.345.417.542.417.542.234.37.496.67.773.914.024.144.054.3.09.464Z" fill="#BEBACD"/>
    <path d="M4.48 46.752a30.865 30.865 0 0 1-.61-.02l-.03-.044c.217.028.432.049.64.064Z" fill="#B7ADBC"/>
    <path d="M3.84 46.72a4.895 4.895 0 0 1-.825-.13 1.394 1.394 0 0 1-.377-.171 5.461 5.461 0 0 1-.078-.339c.4.293.837.472 1.259.58l.021.06Z" fill="#371B45"/>
    <path d="M6.417 46.72a.352.352 0 0 1-.017-.005c2.23-.123 4.872-1.726 4.872-1.726s.096-.065.248-.19c-1.207 1.195-3.273 1.75-5.103 1.92Z" fill="#D7D1DA"/>
    <path d="M5.728 46.752c.013-.029.02-.049.02-.049a.133.133 0 0 0 .04-.015.223.223 0 0 0 .004.011.643.643 0 0 1-.064.053Z" fill="#B7ADBC"/>
    <path d="M4.804 46.72c-.258 0-.503-.008-.731-.024a3.493 3.493 0 0 1-1.825-1.035 4.573 4.573 0 0 1-.723-1.03s-.186-.223-.39-.612c-.324-.923-.495-1.75-.495-1.75s.593.438 1.543.438c.55 0 1.218-.146 1.962-.607 2.029-1.257 1.29-3.662 1.29-3.662s-.164-1.335.685-1.957h.008c.008.081.167 1.165 2.987 1.544 2.933.395 4.068 4.254 1.965 6.565a3.212 3.212 0 0 1-.043.047c-.15.13-.243.199-.243.199s-2.582 1.686-4.763 1.816a4.644 4.644 0 0 1-.19.007s-.033.01-.094.025c-.327.025-.644.037-.943.037Z" fill="#D7D1DA"/>
    <path d="M5.76 35.84c-.273-.493-.748-1.68-.618-3.84.07 1.705.502 3.408.618 3.84Z" fill="#BEBACD"/>
    <path d="M6.332 36.48c-.216 0-.342-.013-.342-.013s-.082-.094-.196-.3c-.127-.47-.597-2.32-.674-4.175.007-.109.014-.22.024-.333 0 0 1.196 2.56 2.77 2.56s2.011-3.5 2.011-3.5 1.02 4.098-.612 5.008c-1.009.563-2.04.713-2.681.745v-.005a.094.094 0 0 1-.008.005c-.11.006-.208.008-.292.008Z" fill="#D7D1DA"/>
    <path d="m6.392 36.486.016-.011v.01h-.016Z" fill="#B7ADBC"/>
    <path d="M9.343 35.855c-.825-.006-1.742.086-2.434.384-.348.149-.615.359-.775.597a1.15 1.15 0 0 0-.172.407 1.418 1.418 0 0 0-.031.416c.016.113.058.21.136.318.078.105.195.213.34.312.294.2.679.356 1.082.478.204.06.414.112.626.158.214.044.43.088.647.144.433.112.877.239 1.326.469l.016.008a.257.257 0 0 1-.008.457c-.965.45-1.954.354-2.942.123-.496-.12-1-.288-1.5-.596a2.848 2.848 0 0 1-.707-.637 2.208 2.208 0 0 1-.437-.986 2.632 2.632 0 0 1 .048-1.02 2.697 2.697 0 0 1 1.068-1.59c.25-.178.512-.312.773-.411.524-.202 1.046-.28 1.554-.316.255-.015.508-.013.759-.002.125.004.25.017.376.029.128.013.244.027.389.053a.605.605 0 0 1 .481.698.592.592 0 0 1-.582.508h-.033Z" fill="#371B45"/>
    <path d="M3.582 45.44c-.622 0-1.27-.142-1.938-.424a.604.604 0 0 1-.319-.784.584.584 0 0 1 .769-.325c1.038.438 1.948.444 2.782.017 2.065-1.057 2.917-4.397 2.925-4.43a.587.587 0 0 1 .714-.435.601.601 0 0 1 .427.728c-.039.159-.988 3.902-3.535 5.208a3.951 3.951 0 0 1-1.825.445Z" fill="#371B45"/>
    <path d="M6.115 46.944a2.528 2.528 0 0 1-.672.29c-.117.036-.237.056-.358.08a3.39 3.39 0 0 1-1.854-.219 4.042 4.042 0 0 1-1.27-.84c-.196-.166-.339-.368-.502-.557-.151-.196-.273-.407-.41-.611l.079.111a3.135 3.135 0 0 1-.254-.328 4.37 4.37 0 0 1-.206-.322 5.43 5.43 0 0 1-.33-.681 4.749 4.749 0 0 1-.331-1.489 4.423 4.423 0 0 1 .185-1.525 5.45 5.45 0 0 1 .64-1.372A8.205 8.205 0 0 1 2.87 37.42a14.311 14.311 0 0 1 2.433-1.404l-.301.675a22.083 22.083 0 0 1-.507-2.362 16.2 16.2 0 0 1-.216-2.42c-.005-.41.018-.826.071-1.246a5.59 5.59 0 0 1 .305-1.271c.164-.422.407-.854.793-1.202.38-.35.9-.568 1.383-.64.253-.034.52-.047.787 0 .066.011.133.022.199.036l.192.06c.132.037.247.103.367.16.468.251.8.625 1.057 1 .256.379.44.776.588 1.177.146.4.257.805.339 1.211.164.813.237 1.63.229 2.45-.012.822-.085 1.644-.333 2.48l-.445-.736c.054.012.085.021.122.03l.106.03a4.819 4.819 0 0 1 .585.215c.123.058.248.113.367.179l.18.096.174.105a5.693 5.693 0 0 1 2.153 2.35l.17.36c.048.122.09.247.135.37.043.125.088.248.118.38l.05.195.036.199c.099.53.095 1.08.003 1.608A5.066 5.066 0 0 1 13.484 43a5.656 5.656 0 0 1-.919 1.254c-.36.374-.751.691-1.214.96a.278.278 0 0 1-.377-.094.263.263 0 0 1 .039-.323l.017-.017c.643-.65 1.227-1.396 1.602-2.19.381-.795.508-1.67.313-2.494l-.036-.155-.047-.152c-.027-.102-.07-.204-.112-.305l-.119-.306-.148-.29a4.51 4.51 0 0 0-.755-1.049 5.106 5.106 0 0 0-1.013-.808l-.14-.084-.145-.075c-.095-.053-.196-.095-.294-.14-.1-.041-.2-.086-.3-.12a3.294 3.294 0 0 0-.15-.05l-.072-.021-.056-.015-.03-.008a.584.584 0 0 1-.418-.72l.002-.008c.2-.667.276-1.418.283-2.157.008-.742-.06-1.49-.206-2.21-.146-.717-.382-1.423-.75-1.975-.186-.271-.403-.5-.642-.625a1.225 1.225 0 0 0-.779-.123c-.306.05-.552.158-.759.344-.206.184-.369.451-.487.758-.233.622-.303 1.362-.3 2.1.005.742.084 1.497.203 2.248.118.747.28 1.509.476 2.225a.55.55 0 0 1-.258.652l-.044.024a17.69 17.69 0 0 0-2.164 1.398c-.667.516-1.257 1.1-1.688 1.754-.212.327-.38.671-.489 1.027a3.453 3.453 0 0 0-.148 1.09c.006.368.087.737.214 1.095a4.166 4.166 0 0 0 .455.882l.067.092.045.063c.01.015.023.033.033.05.1.16.188.334.296.488.118.145.217.31.355.433.248.28.558.484.886.653.329.169.688.298 1.076.39a9.29 9.29 0 0 0 1.241.197l.02.002a.153.153 0 0 1 .137.167.153.153 0 0 1-.07.11Z" fill="#371B45"/>
    <path d="M36.8 96c-13.608 0-24.64-1.576-24.64-3.52 0-1.14 3.79-2.152 9.665-2.796-.448 1.086-.193 2.3.733 3.127.878.785 3.107.91 4.442.91.419 0 .75-.012.924-.02h5.651a.58.58 0 0 0 .056-.003 3.453 3.453 0 0 0 2.793-2.315c.167-.468.253-1.284.297-2.423h.319c.043 1.139.13 1.955.297 2.423a3.452 3.452 0 0 0 2.792 2.315.58.58 0 0 0 .056.003h5.652c.171.008.494.02.903.02h.02c1.336 0 3.564-.125 4.443-.91.92-.822 1.177-2.027.74-3.108 5.78.644 9.497 1.648 9.497 2.777 0 1.944-11.032 3.52-24.64 3.52Z" fill="#BEBACD"/>
    <path d="M48.64 45.931c-2.742 1.662-6.753 2.709-11.223 2.709-4.804 0-9.079-1.21-11.817-3.09.08-.171.16-.341.243-.512 0 0-1.529-8.845 6.12-11.851a26.84 26.84 0 0 1 5.454-.547c1.99 0 3.887.207 5.624.585 6.578 3.037 5.179 11.813 5.179 11.813.144.298.285.596.42.894Z" fill="#D8D8D8"/>
    <path d="M36.48 72.28a127.44 127.44 0 0 0-.21 5.465c-.12 6.299.113 11.672-.348 13.03-.63 1.848-2.268 2.009-2.268 2.009h-5.6s-3.87.197-4.898-.768c-1.029-.963-.927-2.336-.177-3.285.643-.814 1.794-1.157 1.794-1.157s-.778-5.877-1.574-13.7l-.097-.96a439.095 439.095 0 0 1-.701-7.634l14.079 7Z" fill="#fff"/>
    <path d="M34.99 77.44c-5.05 0-8.641-1.698-10.937-3.343a498.69 498.69 0 0 1-.373-3.697c.166.177.342.343.53.495a.297.297 0 0 0 .318.033.292.292 0 0 0 .053-.036c.199.235.406.459.618.671 1.69 1.716 3.799 2.726 5.972 3.3.44.117.882.214 1.323.298 1.134.212 2.266.322 3.346.366-.02.64-.036 1.275-.048 1.9-.271.009-.54.013-.802.013Zm-7.597 14.72c-1.476 0-3.268-.177-3.77-.65-.613-.578-.689-1.294-.475-1.91 1.036.6 3.193.693 4.435.693.562 0 .937-.019.937-.019h6.485s.364-.036.835-.258a2.805 2.805 0 0 1-.102.463c-.477 1.407-1.629 1.635-1.8 1.66h-5.7l-.03.001c-.251.013-.527.02-.815.02Z" fill="#D7D1DA"/>
    <path d="M27.136 93.44c-1.33 0-3.55-.131-4.426-.948-1.163-1.086-1.263-2.812-.238-4.104.477-.6 1.167-.977 1.625-1.178-.283-2.185-1.482-11.701-2.335-21.928a.59.59 0 0 1 .532-.64c.32-.03.603.214.63.54a523.447 523.447 0 0 0 2.39 22.338.592.592 0 0 1-.416.647c-.008.003-.995.307-1.517.965-.54.679-.712 1.712.119 2.488.59.55 2.994.69 4.513.614h5.637c.17-.026 1.303-.248 1.773-1.619.276-.808.277-3.638.277-6.916 0-3.289.002-7.381.255-11.481a.588.588 0 0 1 .618-.555.59.59 0 0 1 .546.629c-.251 4.063-.252 8.135-.252 11.407-.001 3.799-.001 6.308-.343 7.305-.75 2.188-2.7 2.403-2.782 2.411a.546.546 0 0 1-.056.003h-5.63c-.173.009-.503.022-.92.022Z" fill="#371B45"/>
    <path d="M31.18 82.56c-2.274 0-4.9-.307-7.157-1.377-.29-.138-.422-.503-.294-.815.129-.312.469-.453.76-.315 4.852 2.3 11.867.757 11.937.74.31-.069.616.144.682.478.065.334-.134.662-.445.732-.171.038-2.529.557-5.483.557Zm-6.386 4.615c.76-.133 1.505-.153 2.24-.123.733.032 1.456.117 2.17.242a.288.288 0 0 1 .232.333.285.285 0 0 1-.29.239h-.002a16.016 16.016 0 0 0-2.092.048c-.687.064-1.367.178-1.993.379a.566.566 0 0 1-.712-.375.577.577 0 0 1 .44-.741l.007-.002Z" fill="#371B45"/>
    <path d="M37.76 72.28c.09 1.474.148 2.947.185 4.383l.025 1.082c.12 6.299-.113 11.672.348 13.03.631 1.848 2.268 2.009 2.268 2.009h5.6s3.87.197 4.898-.768c1.029-.963.927-2.336.177-3.285-.642-.814-1.794-1.157-1.794-1.157s.779-5.877 1.574-13.7l.097-.96c.243-2.418.483-4.998.702-7.634l-14.08 7Z" fill="#fff"/>
    <path d="M39.25 77.44c-.264 0-.53-.004-.802-.013-.012-.618-.028-1.244-.048-1.877 1.568-.056 3.25-.246 4.894-.685 2.386-.64 4.688-1.803 6.435-3.848a.288.288 0 0 0 .294-.061 7.65 7.65 0 0 0 .537-.556 449.68 449.68 0 0 1-.38 3.728c-2.294 1.63-5.883 3.313-10.93 3.312Zm7.598 14.72a16.589 16.589 0 0 1-.846-.02h-5.698c-.185-.03-1.328-.263-1.802-1.661a2.778 2.778 0 0 1-.102-.463c.47.222.836.258.836.258h6.484s.375.02.937.02c1.243 0 3.399-.094 4.435-.694.214.616.138 1.332-.475 1.91-.501.472-2.294.65-3.77.65Z" fill="#D7D1DA"/>
    <path d="M47.104 93.44c-.417 0-.747-.013-.92-.022h-5.63a.543.543 0 0 1-.056-.003c-.083-.008-2.033-.223-2.782-2.41-.342-.998-.342-3.507-.343-7.306 0-3.272 0-7.344-.252-11.407a.59.59 0 0 1 .546-.629.587.587 0 0 1 .618.555c.254 4.1.254 8.192.255 11.481 0 3.278 0 6.108.277 6.916.467 1.364 1.592 1.59 1.774 1.619h5.637c1.518.076 3.923-.064 4.512-.614.831-.776.659-1.809.12-2.488-.523-.658-1.51-.962-1.52-.965a.594.594 0 0 1-.413-.647 524.11 524.11 0 0 0 2.389-22.338.585.585 0 0 1 .63-.54.59.59 0 0 1 .532.64c-.853 10.227-2.052 19.743-2.334 21.928.457.2 1.147.578 1.624 1.178 1.025 1.292.925 3.018-.238 4.104-.875.817-3.096.948-4.426.948Z" fill="#371B45"/>
    <path d="M43.7 82.56c-2.955 0-5.312-.519-5.483-.557-.311-.07-.51-.398-.445-.732.066-.334.371-.547.682-.478.07.016 7.092 1.557 11.938-.74.29-.138.63.003.759.315.128.312-.004.677-.294.815-2.256 1.07-4.884 1.377-7.157 1.377Zm5.48 5.733c-.624-.2-1.305-.315-1.993-.379a16.014 16.014 0 0 0-2.09-.048h-.002a.286.286 0 0 1-.295-.277.287.287 0 0 1 .235-.295c.715-.125 1.438-.21 2.172-.242a10.43 10.43 0 0 1 2.24.123l.003.001a.575.575 0 0 1 .461.667.569.569 0 0 1-.73.45Z" fill="#371B45"/>
    <path d="M47.104 93.44c-.417 0-.747-.013-.92-.022h-5.63a.545.545 0 0 1-.056-.003c-.083-.008-2.033-.223-2.782-2.41-.342-.998-.342-3.507-.343-7.306 0-3.272 0-7.344-.252-11.407a.59.59 0 0 1 .546-.629.587.587 0 0 1 .618.555c.254 4.1.254 8.192.255 11.48 0 3.279 0 6.11.278 6.917.466 1.364 1.59 1.59 1.773 1.619h5.637c1.518.076 3.923-.063 4.512-.614.831-.776.659-1.809.12-2.488-.523-.658-1.51-.962-1.52-.965a.594.594 0 0 1-.413-.647 524.11 524.11 0 0 0 2.389-22.338.585.585 0 0 1 .63-.54.59.59 0 0 1 .532.64c-.853 10.227-2.052 19.743-2.334 21.928.457.2 1.147.578 1.624 1.178 1.025 1.292.925 3.018-.238 4.104-.875.817-3.096.948-4.426.948Z" fill="#371B45"/>
    <path d="M48.509 44.8c3.722 7.636 5.396 14.623 4.26 20.055-.405 1.938-1.08 3.533-1.947 4.844-1.87 2.825-4.63 4.329-7.509 5.095-2.103.56-4.268.726-6.193.726-1.482 0-3.107-.099-4.736-.4a19.367 19.367 0 0 1-1.368-.303c-2.565-.668-5.044-1.918-6.888-4.158-1.21-1.47-2.147-3.366-2.657-5.804-1.136-5.432.538-12.42 4.26-20.055H48.51Z" fill="#fff"/>
    <path d="M53.119 61.749c.013 1.32-.1 2.579-.348 3.763a14.825 14.825 0 0 1-.188.793c-.41 1.583-1.015 2.918-1.76 4.043-1.87 2.82-4.631 4.32-7.51 5.088-2.103.558-4.268.724-6.192.724-1.483 0-3.108-.098-4.737-.399a19.128 19.128 0 0 1-1.368-.303c-2.565-.668-5.043-1.915-6.89-4.152-1.082-1.313-1.945-2.97-2.483-5.048a19.01 19.01 0 0 1-.174-.746 17.42 17.42 0 0 1-.348-3.763c.013-1.493.186-3.067.509-4.71.702-3.572 2.108-7.469 4.1-11.548 0 0-.022-.13-.049-.364a14.12 14.12 0 0 1 .027-3.187c.457-3.682 2.649-8.952 11.413-9.286 8.826-.337 10.986 5.21 11.417 9.12.16 1.425.088 2.634.025 3.259a8.09 8.09 0 0 1-.055.458c1.363 2.79 2.454 5.496 3.229 8.07.164.539.311 1.071.445 1.599.598 2.329.92 4.536.937 6.589Z" fill="#fff"/>
    <path d="M24.96 72.32a10.944 10.944 0 0 1-.005-.005l.005.005Z" fill="#B7ADBC"/>
    <path d="M24.96 71.68a10.88 10.88 0 0 1-.64-.635l.006-.005c.204.224.416.437.634.64Z" fill="#D7D1DA"/>
    <path d="M37.117 76.16c-1.47 0-3.08-.1-4.695-.408a18.797 18.797 0 0 1-1.356-.31c-2.195-.59-4.324-1.62-6.042-3.363l-.005-.005a11.337 11.337 0 0 1-.623-.699.31.31 0 0 0 .07-.37l-.621-1.242a37.053 37.053 0 0 1-.572-1.236 14.481 14.481 0 0 1-.873-2.583l.175-.024a12.274 12.274 0 0 0 1.663 2.789c1.83 2.289 4.285 3.565 6.828 4.248.45.122.903.224 1.356.31 1.614.307 3.226.408 4.695.408 1.907 0 4.053-.17 6.138-.742 2.852-.782 5.59-2.318 7.44-5.204.35-.541.666-1.13.946-1.772l.199.03a17.871 17.871 0 0 1-2.073 5.018.308.308 0 0 0 .062.39c-1.788 2.138-4.139 3.355-6.575 4.023-2.084.572-4.23.742-6.137.742Z" fill="#D7D1DA"/>
    <path d="M23.827 70.975a6.102 6.102 0 0 1-1.021-1.049 7.896 7.896 0 0 1-.788-1.23 14.418 14.418 0 0 1-1.351-4.125c-.075-.48-.122-.96-.152-1.437a23.6 23.6 0 0 1 .018-2.85c.118-1.89.435-3.758.898-5.585.476-1.824 1.128-3.606 2.015-5.269a.287.287 0 0 1 .384-.118.278.278 0 0 1 .138.335v.001c-.585 1.751-1.101 3.508-1.493 5.292a31.39 31.39 0 0 0-.725 5.407c-.044.906-.035 1.812.025 2.707.03.448.076.892.146 1.327.036.219.072.428.121.647.047.22.1.436.155.652.215.866.506 1.71.883 2.514.183.404.378.803.578 1.203l.628 1.209a.296.296 0 0 1-.13.401.31.31 0 0 1-.33-.032Zm19.505 4.589c-.982.465-2.017.762-3.059.954-.52.102-1.046.16-1.57.212-.526.046-1.052.062-1.577.07a23.076 23.076 0 0 1-1.576-.062 16.579 16.579 0 0 1-1.571-.205c-.522-.09-1.04-.216-1.553-.368-.51-.17-1.014-.363-1.51-.572-.153-.065-.233-.267-.18-.45.047-.155.174-.247.304-.234l.027.003c.513.052 1.012.15 1.514.218a29.74 29.74 0 0 0 1.511.154c.505.033 1.009.073 1.515.083.505.021 1.011.03 1.518.025a30.11 30.11 0 0 0 1.518-.029c.505-.013 1.009-.053 1.513-.088a35.025 35.025 0 0 0 3.023-.391h.002c.162-.028.313.106.336.3.02.166-.06.321-.185.38Zm7.12-26.762a36.878 36.878 0 0 1 2.11 5.53c.073.238.13.48.196.72.062.242.132.48.187.723.111.487.227.972.315 1.465.102.49.176.986.253 1.481.042.248.063.5.093.749.03.25.059.5.074.752.095 1.003.1 2.02.042 3.034-.02.254-.03.508-.059.76l-.092.76c-.087.502-.173 1.006-.296 1.498-.24.987-.558 1.962-1.014 2.871-.453.907-1.026 1.758-1.738 2.455a.274.274 0 0 1-.4-.013.305.305 0 0 1-.034-.357 17.638 17.638 0 0 0 2.057-5.237c.394-1.848.453-3.761.325-5.67-.133-1.911-.473-3.817-.928-5.695-.457-1.88-1.014-3.742-1.608-5.602a.296.296 0 0 1 .177-.371.276.276 0 0 1 .34.147Z" fill="#371B45"/>
    <path d="M44.943 69.76H29.789a1.92 1.92 0 0 1-1.918-1.91v-2.302a351.8 351.8 0 0 0-5.147.646c-.114-.255-.222-.52-.324-.793.444-.092 3.448-.697 6.296-.745v1.213c0 1.334 1.054 2.425 2.345 2.425h12.807c1.289 0 2.345-1.091 2.345-2.425v-1.215h.032c2.496 0 5.207.468 6.255.67-.115.313-.238.615-.369.907-1.64-.238-3.447-.488-5.25-.714v2.333a1.92 1.92 0 0 1-1.918 1.91Zm1.25-10.185v-.894a2.5 2.5 0 0 0-.121-.767 2.395 2.395 0 0 0-1.694-1.594h.565a1.92 1.92 0 0 1 1.918 1.91v1.324c-.267.005-.495.013-.668.021Zm-17.497-.014a24.329 24.329 0 0 0-.825-.01V58.23c0-1.05.863-1.91 1.918-1.91h.72c-1.036.25-1.813 1.217-1.813 2.361v.88Z" fill="#D7D1DA"/>
    <path d="m52.279 65.92-.2-.02c.13-.199.253-.406.367-.62l.034.005a7.462 7.462 0 0 1-.201.635Zm-29.694-.029a8.3 8.3 0 0 1-.185-.552l.038-.005c.102.186.21.367.324.541l-.177.016Z" fill="#B7ADBC"/>
    <path d="m21.863 65.92-.103-1.28.037.046.19.223.24-.075.015-.004.027.18c.04.271.084.539.131.806l-.537.104Zm30.455.64a125.93 125.93 0 0 0-.478-.112c.023-.145.044-.29.065-.435.034-.243.066-.488.094-.733.203.063.32.103.326.105l.155.054-.015.12c-.045.342-.093.675-.147 1.001Z" fill="#371B45"/>
    <path d="M45.757 60.201s4.944-.367 7.024 1.093c2.212 1.551-.016 3.346-.016 3.346s-3.982-.847-7.325-.726l.317-3.713Z" fill="#fff"/>
    <path d="M52.529 64c-.916-.225-3.738-.864-6.406-.864h-.043v-.113l.064-.943c2.145.002 4.417.431 5.646.704.096.021.192.032.288.032.381 0 .748-.166 1.033-.462.004.039.007.078.008.117.018.59-.33 1.187-.59 1.53Z" fill="#D7D1DA"/>
    <path d="M29.123 60.201s-4.944-.367-7.024 1.093c-2.212 1.551.016 3.346.016 3.346s3.982-.847 7.325-.726l-.317-3.713Z" fill="#fff"/>
    <path d="M46.12 63.334c2.714 0 5.584.519 6.514.703.264-.28.62-.765.601-1.244-.014-.375-.264-.738-.743-1.078-1.41-1-4.595-1.095-6.2-1.034l-.223 2.653h.052Zm6.848 1.945-.277-.059c-.04-.008-3.981-.845-7.235-.727l-.656.024.416-4.915.494-.038c.212-.016 5.219-.372 7.462 1.22.789.56 1.202 1.224 1.227 1.974.044 1.304-1.161 2.302-1.213 2.344l-.218.177Zm-25.175-4.612c-1.704 0-4.2.194-5.405 1.048-.479.34-.729.703-.743 1.078-.018.478.336.964.601 1.244.93-.184 3.8-.703 6.513-.703h.052l-.223-2.652a20.3 20.3 0 0 0-.796-.015Zm-5.88 4.612-.22-.177c-.05-.042-1.256-1.04-1.212-2.344.026-.75.438-1.414 1.227-1.974 2.243-1.592 7.25-1.236 7.462-1.22l.495.038.415 4.915-.656-.024c-3.258-.119-7.196.719-7.235.727l-.277.06Z" fill="#371944"/>
    <path d="M45.44 58.128v7.262c0 1.347-1.043 2.45-2.316 2.45H30.476c-1.275 0-2.316-1.103-2.316-2.45v-7.262c0-1.346 1.041-2.448 2.316-2.448h12.648c1.017 0 1.888.704 2.197 1.674.076.243.119.504.119.774Z" fill="#fff"/>
    <path d="M43.124 67.84H30.476c-1.275 0-2.316-1.077-2.316-2.393V63.06c1.596.912 4.336 2.159 7.39 2.159 1.123 0 2.288-.169 3.454-.584 2.12-.756 4.55-3.344 4.55-3.344s.092 2.674.475 2.674l.009-.001c1.085-.12 1.077-5.615 1.283-6.364.076.237.119.492.119.756v7.091c0 1.316-1.043 2.393-2.316 2.393Z" fill="#D7D1DA"/>
    <path d="M30.352 56.823c-.912 0-1.654.72-1.654 1.604v7.305c0 .885.742 1.605 1.654 1.605h12.896c.912 0 1.654-.72 1.654-1.605v-7.305c0-.885-.742-1.604-1.654-1.604H30.352ZM43.248 68.48H30.352c-1.562 0-2.832-1.233-2.832-2.748v-7.305c0-1.515 1.27-2.747 2.832-2.747h12.896c1.562 0 2.832 1.232 2.832 2.747v7.305c0 1.515-1.27 2.748-2.832 2.748Z" fill="#371944"/>
    <path d="M43.52 62.08a1.92 1.92 0 1 1-3.84 0 1.92 1.92 0 0 1 3.84 0Z" fill="#E40046"/>
    <path d="M43.52 62.296c0 .146-.013.287-.038.424-.177-.977-.953-1.713-1.883-1.713s-1.705.736-1.881 1.713a2.347 2.347 0 0 1-.038-.424c0-1.179.86-2.136 1.92-2.136s1.92.957 1.92 2.136Z" fill="#fff"/>
    <path d="M43.52 61.981c0 1.116-.86 2.02-1.92 2.02s-1.92-.904-1.92-2.02c0-.187.025-.37.07-.54.225.85.97 1.476 1.85 1.476.88 0 1.624-.625 1.85-1.477.045.172.07.354.07.541Z" fill="#E40046"/>
    <path d="M41.6 60.414c-.903 0-1.637.747-1.637 1.665 0 .919.734 1.666 1.637 1.666s1.637-.747 1.637-1.666c0-.918-.734-1.665-1.637-1.665Zm0 4.225a2.563 2.563 0 0 1-2.56-2.56 2.563 2.563 0 0 1 2.56-2.56 2.563 2.563 0 0 1 2.56 2.56 2.563 2.563 0 0 1-2.56 2.56Zm-6.368 3.841c-.335 0-.607-.256-.607-.572v-3.563c0-.703-.342-1.373-.913-1.793l-.333-.245A3.363 3.363 0 0 1 32 59.613v-3.362c0-.316.272-.571.608-.571.335 0 .607.255.607.571v3.362c0 .703.341 1.373.912 1.793l.334.245a3.364 3.364 0 0 1 1.379 2.694v3.563c0 .316-.272.572-.608.572Z" fill="#371944"/>
    <path d="M48 44.8c.059-.52.125-1.444.042-2.56.773.29 1.63.628 2.518 1.008A25.64 25.64 0 0 1 48 44.8Z" fill="#D7D1DA"/>
    <path d="M50.697 43.52a45.24 45.24 0 0 0-2.05-.882l-.007-.106c.171-.095.34-.192.508-.292a45.626 45.626 0 0 1 2.052.895c-.165.131-.333.26-.503.385Z" fill="#371B45"/>
    <path d="M25.6 44.8a20 20 0 0 1-1.28-1.04 19.45 19.45 0 0 0 1.223-1.52c-.047 1.15.012 2.072.057 2.56Z" fill="#D7D1DA"/>
    <path d="M24.123 44.16a20.948 20.948 0 0 1-.443-.309 19.068 19.068 0 0 0 1.672-1.61l.248.139c-.01.133-.02.264-.026.39-.42.445-.908.923-1.451 1.39Z" fill="#371B45"/>
    <path d="m25.632 44.8-.03-.039a30.23 30.23 0 0 1-.016-2.52l.032.04a30.8 30.8 0 0 0 .014 2.52Z" fill="#B8B2BB"/>
    <path d="M37.042 48h-.075a22.626 22.626 0 0 1-11.29-3.037 13.54 13.54 0 0 1-.032-2.552 23.116 23.116 0 0 0 6.364 2.402 23.368 23.368 0 0 0 4.963.53c1.847 0 3.645-.216 5.366-.622a23.113 23.113 0 0 0 6.26-2.48l.008.118a15.374 15.374 0 0 1-.037 2.511A22.623 22.623 0 0 1 37.043 48Z" fill="#D7D1DA"/>
    <path d="M57.14 16.64s4.63 1.846 5.104 2.741c.877 1.66.68 11.395-1.771 13.925-.96.99-7.993 1.894-7.993 1.894l4.66-18.56Z" fill="#fff"/>
    <path d="M56.32 33.92a21.973 21.973 0 0 0 2.334-5.76c.804.31 1.486.417 2.047.417.596 0 1.055-.121 1.38-.254-.339 1.938-.901 3.665-1.74 4.486-.335.327-1.987.743-4.02 1.111Z" fill="#D7D1DA"/>
    <path d="M36.512 26.848v.064l-.064-.032.064-.032Z" fill="#D8D8D8"/>
    <path d="m36.512 26.88-.064.032v-.064l.064.033Z" fill="#D8D8D8"/>
    <path d="M21.12 35.2s-7.082-.953-8.042-1.95c-.958-.99-1.563-3.078-1.889-5.351l-.001-.002c-.51-3.547-.347-7.55.2-8.557.482-.89 5.16-2.7 5.16-2.7L21.12 35.2Z" fill="#fff"/>
    <path d="M17.28 33.92c-2.046-.38-3.704-.806-4.04-1.136-.84-.823-1.393-2.55-1.72-4.486.33.137.803.263 1.418.263.559 0 1.236-.104 2.032-.4a21.198 21.198 0 0 0 .098.38 21.797 21.797 0 0 0 2.212 5.38Z" fill="#D7D1DA"/>
    <path d="m57.89 17.415-4.597 17.18c3.364-.444 6.873-1.14 7.388-1.64 2.407-2.33 2.625-11.776 1.79-13.26-.252-.406-2.469-1.455-4.581-2.28ZM51.84 35.84 57.15 16l.564.211c1.536.575 5.166 2.015 5.706 2.974 1.034 1.835.867 11.77-1.976 14.521-1.096 1.062-7.532 1.884-8.811 2.039l-.792.095ZM16.113 17.407c-2.022.809-4.144 1.84-4.387 2.247-.808 1.473-.664 10.903 1.617 13.246.489.502 3.832 1.221 7.04 1.687l-4.27-17.18ZM21.76 35.84l-.755-.1c-1.22-.163-7.355-1.029-8.394-2.095-2.693-2.766-2.786-12.684-1.786-14.508.522-.954 3.995-2.367 5.464-2.93l.54-.207 4.931 19.84Z" fill="#371B45"/>
    <path d="M58.88 22.797C58.837 34.99 48.917 44.842 36.723 44.8c-12.194-.043-22.046-9.963-22.003-22.157C14.762 10.448 24.682.597 36.877.64 49.07.682 58.923 10.602 58.88 22.797Z" fill="#fff"/>
    <path d="M36.828 44.16h-.076a21.474 21.474 0 0 1-4.523-.496C25.04 42.086 19.184 36.89 16.64 30.08c3.134 4.912 8.133 9.111 14.046 10.897a21.23 21.23 0 0 0 6.074.919h.073c8.48 0 15.933-5.198 20.127-11.67-2.558 6.702-8.331 11.81-15.404 13.409a21.49 21.49 0 0 1-4.728.525Z" fill="#D7D1DA"/>
    <path d="M36.798 1.052a21.524 21.524 0 0 0-15.266 6.293 21.526 21.526 0 0 0-6.4 15.3c-.042 11.947 9.645 21.701 21.593 21.743h.076c11.913 0 21.625-9.67 21.667-21.592.041-11.948-9.645-21.702-21.592-21.744h-.078ZM36.8 45.44h-.08c-12.528-.044-22.684-10.271-22.64-22.8A22.572 22.572 0 0 1 20.79 6.6 22.57 22.57 0 0 1 36.798 0h.081c12.528.044 22.685 10.271 22.64 22.8-.043 12.5-10.228 22.64-22.718 22.64Z" fill="#371B45"/>
    <path d="M36.798 1.052a21.524 21.524 0 0 0-15.266 6.293 21.526 21.526 0 0 0-6.4 15.3c-.042 11.947 9.645 21.701 21.593 21.743h.076c11.913 0 21.625-9.67 21.667-21.592.041-11.948-9.645-21.702-21.592-21.744h-.078ZM36.8 45.44h-.08c-12.528-.044-22.684-10.271-22.64-22.8A22.572 22.572 0 0 1 20.79 6.6 22.57 22.57 0 0 1 36.798 0h.081c12.528.044 22.685 10.271 22.64 22.8-.043 12.5-10.228 22.64-22.718 22.64Z" fill="#371B45"/>
    <path d="M36.798 1.052a21.524 21.524 0 0 0-15.266 6.293 21.526 21.526 0 0 0-6.4 15.3c-.042 11.947 9.645 21.701 21.593 21.743h.076c11.913 0 21.625-9.67 21.667-21.592.041-11.948-9.645-21.702-21.592-21.744h-.078ZM36.8 45.44h-.08c-12.528-.044-22.684-10.271-22.64-22.8A22.572 22.572 0 0 1 20.79 6.6 22.57 22.57 0 0 1 36.798 0h.081c12.528.044 22.685 10.271 22.64 22.8-.043 12.5-10.228 22.64-22.718 22.64Z" fill="#371B45"/>
    <path d="M15.804 28.088c2.435 9.563 11.037 16.266 20.92 16.3h.077c9.85 0 18.462-6.633 20.96-16.155a21.761 21.761 0 0 0 .581-7.858C57.162 9.397 47.933 1.09 36.875 1.052h-.077c-11.02 0-20.266 8.227-21.52 19.166a21.687 21.687 0 0 0 .527 7.87ZM36.8 45.44h-.08c-10.352-.036-19.364-7.051-21.929-17.063a22.722 22.722 0 0 1-.56-8.28C15.55 8.627 25.243 0 36.798 0h.081C48.474.04 58.15 8.751 59.387 20.262a22.878 22.878 0 0 1-.617 8.27C56.14 38.498 47.118 45.44 36.8 45.44Z" fill="#371B45"/>
    <path d="M37.08 2.62h.087c6.895.024 13.244 2.88 17.603 7.64a21.562 21.562 0 0 0-17.597-9.221h-.075a21.563 21.563 0 0 0-17.582 9.094C23.89 5.427 30.223 2.62 37.08 2.62Zm21.278 14.66a.522.522 0 0 1-.48-.316C54.43 8.915 46.299 3.69 37.164 3.659h-.083c-9.095 0-17.222 5.155-20.72 13.15a.523.523 0 0 1-.981-.345C18.059 6.76 26.984 0 37.098 0h.078C47.33.036 56.247 6.873 58.862 16.627a.519.519 0 0 1-.504.653Z" fill="#371B45"/>
    <path d="M58.88 22.448a21.98 21.98 0 0 1-.718 5.511l-.002.002C54.304 35.319 46.147 41.633 36.733 41.6c-9.415-.033-17.525-6.403-21.33-13.788l-.002-.001a21.9 21.9 0 0 1-.533-7.979c3.007-8.198 11.724-14.108 21.99-14.072 10.268.036 18.945 6.01 21.893 14.231.088.806.132 1.627.129 2.457Z" fill="#5D052F"/>
    <path d="M36.858 41.6h-.072a21.439 21.439 0 0 1-.001 0h.073c8.47 0 15.914-5.132 20.102-11.52a.036.036 0 0 1-.002.005C52.77 36.47 45.327 41.6 36.858 41.6Z" fill="#92919C"/>
    <path d="M56.943 30.107a.06.06 0 0 0 .004-.01l.03-.044a.382.382 0 0 1-.004.01l-.03.044Z" fill="#2A1B3B"/>
    <path d="m56.96 30.08.002-.005c.437-.682.839-1.379 1.202-2.085l.002-.002c.46-1.78.706-3.652.713-5.58.003-.84-.04-1.671-.128-2.488l-.028-.08.029.08c.087.817.13 1.647.128 2.488a22.645 22.645 0 0 1-.713 5.581l-.003.002a25.337 25.337 0 0 1-1.204 2.089Z" fill="#2A1B3B"/>
    <path d="M36.75 42.24h-.073a21.476 21.476 0 0 1-6.088-.91c-6.762-2.021-12.33-7.156-15.294-12.905l-.002-.002a21.94 21.94 0 0 1-.573-3.243 30.663 30.663 0 0 0 5.388 4.798l.014.042.006-.029c4.242 2.95 9.315 4.83 14.772 4.85h.083c4.482 0 8.713-1.257 12.44-3.332a1.44 1.44 0 0 0 .7.182c.733 0 1.447-.556 1.71-1.397.034-.113.06-.227.077-.34 3.644-2.54 6.674-5.865 8.802-9.474l.01.027.029.08a22.019 22.019 0 0 1-.59 7.985l-.003.001a24.954 24.954 0 0 1-1.212 2.063l-.014.022C52.727 37.081 45.254 42.24 36.75 42.24Z" fill="#470424"/>
    <path d="M51.511 25.6c-.125 0-.251-.01-.377-.03-1.723-.27-2.804-2.34-2.414-4.62.36-2.115 1.86-3.67 3.45-3.67.124 0 .25.01.376.03 1.723.27 2.804 2.34 2.415 4.621-.362 2.115-1.86 3.67-3.45 3.67Zm-4.001 5.76c-.653-.34-.96-1.155-.694-1.951.252-.752.937-1.249 1.642-1.249.135 0 .272.019.406.057.737.212 1.159.962 1.034 1.754-.768.499-1.565.963-2.387 1.39Z" fill="#9B8DA2"/>
    <path d="M48.08 31.36a1.387 1.387 0 0 1-.72-.2 29.787 29.787 0 0 0 2.56-1.72 2.51 2.51 0 0 1-.08.375c-.27.931-1.005 1.545-1.76 1.545Z" fill="#958D9D"/>
    <path d="m20.266 30.08-.02-.014c-.23-.74-3.233-10.793 2.118-15.004 4.199-3.304 9.847-4.182 12.28-4.182.787 0 1.237.092 1.193.223 0 0-8.926 2.384-12.314 9.727-2.476 5.366-3.19 8.895-3.257 9.25Z" fill="#9B8DA2"/>
    <path d="m20.489 30.112-.029-.064.04.02-.011.044Z" fill="#958D9D"/>
  </g>
  <defs>
    <clipPath id="a">
      <path fill="#fff" d="M0 0h64v96H0z"/>
    </clipPath>
  </defs>
</svg>
