<svg width="64" height="96" viewBox="0 0 64 96" fill="none" xmlns="http://www.w3.org/2000/svg">
<g clip-path="url(#clip0_267_84)">
<path fill-rule="evenodd" clip-rule="evenodd" d="M48.7439 74.2397H26.136C22.6733 74.2397 19.84 71.4123 19.84 67.9562V45.9631C19.84 42.5071 22.6733 39.6797 26.136 39.6797H48.7439C52.2069 39.6797 55.04 42.5071 55.04 45.9631V67.9562C55.04 71.4123 52.2069 74.2397 48.7439 74.2397Z" fill="white"/>
<path fill-rule="evenodd" clip-rule="evenodd" d="M26.1297 40.2986C23.0041 40.2986 20.4609 42.8368 20.4609 45.9568V67.9633C20.4609 71.0832 23.0041 73.6215 26.1297 73.6215H48.7499C51.8758 73.6215 54.419 71.0832 54.419 67.9633V45.9568C54.419 42.8368 51.8758 40.2986 48.7499 40.2986H26.1297ZM48.7499 74.88H26.1297C22.3088 74.88 19.2 71.7772 19.2 67.9633V45.9568C19.2 42.1429 22.3088 39.04 26.1297 39.04H48.7499C52.5711 39.04 55.68 42.1429 55.68 45.9568V67.9633C55.68 71.7772 52.5711 74.88 48.7499 74.88Z" fill="#371B45"/>
<path fill-rule="evenodd" clip-rule="evenodd" d="M58.45 60.3678C58.45 60.3678 59.9101 64.861 55.1112 65.824C54.2561 65.9984 53.4393 65.9294 52.7067 65.6701C52.6987 65.6685 52.6892 65.6654 52.6815 65.6622C49.4968 64.5044 47.9557 59.659 52.1399 54.8105C52.1862 54.7573 52.2324 54.7038 52.2803 54.6503C52.4601 54.4476 52.6496 54.2449 52.8502 54.0407C52.8614 54.0313 52.8725 54.0202 52.8821 54.0092C52.8821 54.0092 52.6608 53.6464 51.9489 53.1359C51.9122 53.1091 51.8739 53.0824 51.8344 53.0556C51.3981 52.7526 50.7914 52.4035 49.9682 52.0517L48.2485 46.8576L48.2453 46.8482L47.9397 45.9276L47.6658 45.1043L46.08 40.3203C46.08 40.3203 47.1293 40.6722 48.6322 41.2928C49.0462 41.464 49.4936 41.6541 49.9634 41.8646C50.4412 42.0783 50.9426 42.3125 51.4555 42.5639C51.7132 42.6911 51.9744 42.8229 52.2356 42.9583C52.4506 43.0697 52.6671 43.1845 52.8821 43.3007C52.8821 43.3007 53.3548 43.5521 54.0951 44.006C57.8816 46.3314 68.6403 53.9686 58.45 60.3678Z" fill="white"/>
<path fill-rule="evenodd" clip-rule="evenodd" d="M52.6533 54.4C52.5604 54.2593 52.2837 53.8925 51.6773 53.4278C51.1659 51.8374 50.5488 50.2904 49.8348 48.7968C49.7866 48.6959 49.6876 48.6336 49.5819 48.6336C49.5573 48.6336 49.5321 48.6371 49.5072 48.644C49.4328 48.4607 49.3569 48.277 49.28 48.0926C49.4416 48.0329 49.632 48 49.7981 48C49.9754 48 50.1249 48.0376 50.181 48.1201C50.7705 48.9887 50.8027 49.7497 52.3438 51.8592C52.8245 52.5172 54.4 53.3709 54.4 53.3709C53.7723 53.6159 53.1671 54.0054 52.6533 54.4Z" fill="#D7D1DA"/>
<path fill-rule="evenodd" clip-rule="evenodd" d="M53.8169 65.9201C53.5793 65.9201 53.3466 65.8974 53.1201 65.8529C53.2001 65.5018 53.2645 65.1457 53.3277 64.7899C53.4491 64.6432 53.5808 64.465 53.7001 64.2609C53.9371 64.2975 54.1611 64.3146 54.3736 64.3146C56.1911 64.3142 57.1307 63.0595 57.5871 62.0801C57.6314 62.6989 57.5794 63.5181 57.1654 64.2335C56.6967 65.0432 55.8385 65.5826 54.6144 65.8365C54.3448 65.8926 54.0781 65.9201 53.8169 65.9201Z" fill="#D7D1DA"/>
<path fill-rule="evenodd" clip-rule="evenodd" d="M53.5452 66.5597C51.7014 66.56 50.0198 65.5739 49.0847 63.8757C47.8328 61.6022 47.8255 57.8493 51.4272 53.9975C51.1133 53.7092 50.5187 53.2576 49.4897 52.7746C49.1928 52.6352 49.0668 52.285 49.2082 51.9924C49.3493 51.6997 49.7046 51.5749 50.0015 51.7149C52.0756 52.688 52.6823 53.6065 52.7448 53.708L52.9847 54.0983L52.6598 54.4235C49.1312 57.9568 49.0401 61.3336 50.1314 63.3156C50.9991 64.8915 52.6178 65.6539 54.3555 65.3043C55.6225 65.0499 56.5107 64.5094 56.9959 63.6981C57.8114 62.3339 57.2704 60.5934 57.2646 60.576L57.1277 60.1465L57.5125 59.9031C60.2526 58.1837 61.6029 56.2576 61.526 54.1779C61.3272 48.8115 52.047 43.8256 51.9531 43.7757C48.665 41.9874 45.2386 40.8341 45.2046 40.8227C44.893 40.7184 44.7262 40.3853 44.8317 40.0784C44.9375 39.7715 45.2758 39.6065 45.5869 39.7111C45.7305 39.7589 49.144 40.9074 52.5229 42.745C52.9247 42.958 62.4909 48.0969 62.716 54.1337C62.8064 56.5611 61.3923 58.7558 58.5111 60.662C58.6631 61.4016 58.8298 62.9338 58.0275 64.2844C57.365 65.3997 56.2096 66.1298 54.5935 66.4544C54.2411 66.5252 53.8902 66.5597 53.5452 66.5597Z" fill="#371B45"/>
<path fill-rule="evenodd" clip-rule="evenodd" d="M58.2399 60.9837C58.0333 61.0608 57.8303 61.1189 57.6206 61.1737C57.4134 61.2305 57.201 61.275 56.988 61.3165C56.7747 61.3568 56.5586 61.3896 56.3408 61.4122C56.1217 61.4319 55.9017 61.4467 55.6799 61.4372C55.862 61.3201 56.0411 61.2124 56.2177 61.1014L56.7462 60.777C56.9216 60.6707 57.0955 60.5625 57.2719 60.4609C57.4458 60.3574 57.6242 60.2528 57.7951 60.1602L58.2399 60.9837Z" fill="#371B45"/>
<path fill-rule="evenodd" clip-rule="evenodd" d="M61.6284 58.2398H61.6271C61.3776 58.2392 61.1758 58.0531 61.1765 57.8243C61.1791 56.8501 60.2166 55.8057 58.7243 55.1631C56.9304 54.391 54.2067 54.1842 51.9414 55.92C51.75 56.0664 51.4651 56.0432 51.3052 55.8673C51.145 55.6917 51.1706 55.4304 51.3623 55.2833C53.9533 53.2981 57.0624 53.532 59.1084 54.4127C60.917 55.1914 62.0835 56.5313 62.08 57.8263C62.0796 58.0549 61.8772 58.2398 61.6284 58.2398Z" fill="#371B45"/>
<path fill-rule="evenodd" clip-rule="evenodd" d="M51.8401 54.1867C52.0544 54.061 52.2569 53.9562 52.4676 53.8501C52.6766 53.7457 52.8874 53.6475 53.0996 53.5552C53.5249 53.3728 53.96 53.2131 54.4001 53.1201C54.0196 53.3814 53.6797 53.691 53.354 54.0164C53.1922 54.1801 53.0342 54.3481 52.8806 54.5196C52.7285 54.6898 52.5732 54.8689 52.4387 55.0401L51.8401 54.1867Z" fill="#371B45"/>
<path fill-rule="evenodd" clip-rule="evenodd" d="M26.88 40.3203L26.0351 54.9346L25.9881 55.7564C25.9881 55.7564 25.3247 56.0418 24.1781 56.3338C23.5601 56.4924 22.8014 56.6509 21.9315 56.7701C19.0986 57.1572 15.078 57.1079 10.8525 55.1249C5.49759 52.6119 3.88466 48.5049 3.4027 46.1015C3.17143 44.9431 3.2012 44.1817 3.2012 44.1817C3.2012 44.1817 6.65833 42.2985 7.80966 42.1479C8.96287 41.9973 12.7907 41.9766 12.7907 41.9766C12.7907 41.9766 14.4648 45.4652 18.7028 45.8618C20.6818 46.0458 22.5949 44.8497 24.0734 43.5217C24.8258 42.8477 25.4657 42.1368 25.9427 41.5578C26.5356 40.8377 26.88 40.3203 26.88 40.3203Z" fill="white"/>
<path fill-rule="evenodd" clip-rule="evenodd" d="M19.0193 56.3197C16.6374 56.3197 13.8193 55.9103 10.9111 54.5954C7.75166 53.167 5.55054 51.0403 4.36907 48.2739C4.13202 47.7199 3.96229 47.1934 3.83997 46.7197C3.98567 46.7376 4.1415 46.7525 4.30554 46.7636C4.60012 46.8244 4.87889 46.8454 5.12511 46.8454C5.53537 46.8454 5.85523 46.7864 6.00695 46.7518C6.10777 46.7444 6.20892 46.7358 6.31164 46.7259C6.42606 46.7642 6.54585 46.804 6.6707 46.8454C6.6707 46.8454 10.656 53.1 18.6068 53.1009C19.7842 53.1009 21.0484 52.9635 22.4 52.6488C22.1395 53.3751 21.9135 54.114 21.7176 54.8601C21.606 55.2989 21.5026 55.7401 21.4088 56.1836C20.6796 56.2666 19.878 56.3197 19.0193 56.3197Z" fill="#D7D1DA"/>
<path fill-rule="evenodd" clip-rule="evenodd" d="M13.3688 56.9604C13.1574 56.9604 12.9549 56.8398 12.8567 56.6325C12.7203 56.344 12.8387 55.9967 13.121 55.8573C17.6734 53.6088 16.6893 46.1776 16.6789 46.1029C16.6342 45.7856 16.8502 45.4915 17.1607 45.4461C17.4715 45.4017 17.759 45.6212 17.8034 45.9388C17.8511 46.2783 18.9074 54.2887 13.6153 56.9026C13.5358 56.942 13.4514 56.9604 13.3688 56.9604Z" fill="#371B45"/>
<path fill-rule="evenodd" clip-rule="evenodd" d="M18.5399 57.5997C16.0279 57.5997 13.05 57.1443 9.94834 55.6881C5.66073 53.6753 3.70598 50.6546 2.82132 48.4747C1.85786 46.101 1.91871 44.2099 1.9218 44.1304C1.93436 43.8033 2.20766 43.5511 2.52885 43.561C2.85154 43.5737 3.10277 43.8496 3.09018 44.177C3.08955 44.1929 3.04107 45.9302 3.92352 48.0743C5.10034 50.9353 7.29279 53.1346 10.4398 54.6119C17.1377 57.7562 23.3539 55.895 24.8377 55.3656L25.6018 42.1418C24.0519 43.9678 21.1621 46.7241 18.0258 46.4312C13.4923 46.0075 11.69 42.3519 11.6157 42.1967C11.4743 41.9023 11.5952 41.5472 11.8858 41.4041C12.1757 41.2607 12.5249 41.3834 12.6665 41.6771C12.7345 41.8164 14.2781 44.8901 18.1329 45.25C21.997 45.6076 25.7727 39.9983 25.8105 39.9415C25.9575 39.7199 26.2327 39.6254 26.4824 39.7109C26.732 39.7962 26.8945 40.0405 26.879 40.3075L25.9827 55.8197C25.9698 56.0448 25.8319 56.2431 25.627 56.3309C25.4384 56.412 22.5961 57.5997 18.5399 57.5997Z" fill="#371B45"/>
<path fill-rule="evenodd" clip-rule="evenodd" d="M6.00109 46.5975C6.00109 46.5975 3.12173 47.4702 1.56846 44.5481C1.56846 44.5481 -2.21993 40.108 5.50832 36.1231C5.50832 36.1231 3.39638 28.59 6.52197 27.6222C9.64724 26.6545 10.4143 32.7742 9.59039 35.5348C9.59039 35.5348 12.2963 36.1237 13.2369 39.1591C14.2598 42.461 11.0872 44.7554 11.0872 44.7554C11.0872 44.7554 8.27877 46.5594 6.00109 46.5975Z" fill="white"/>
<path fill-rule="evenodd" clip-rule="evenodd" d="M2.56003 46.0802C2.01614 45.6665 1.58495 44.8801 1.28003 44.1602C1.49787 44.5051 1.69741 44.7021 1.69741 44.7021C1.93073 45.0717 2.19289 45.3723 2.47049 45.6157C2.49425 45.7599 2.52366 45.9154 2.56003 46.0802Z" fill="#BEBACD"/>
<path fill-rule="evenodd" clip-rule="evenodd" d="M4.47997 46.7525C4.26511 46.7472 4.06103 46.7402 3.87019 46.7317C3.85984 46.7173 3.8499 46.7028 3.83997 46.6885C4.05689 46.7161 4.27174 46.737 4.47997 46.7525Z" fill="#B7ADBC"/>
<path fill-rule="evenodd" clip-rule="evenodd" d="M3.84006 46.7201C3.49671 46.6896 3.21394 46.6447 3.01503 46.5896C2.8834 46.5534 2.75786 46.4948 2.63843 46.419C2.6066 46.2988 2.58085 46.1853 2.56006 46.0801C2.95999 46.3725 3.39653 46.5521 3.8188 46.6595C3.82579 46.6795 3.83278 46.6998 3.84006 46.7201Z" fill="#371B45"/>
<path fill-rule="evenodd" clip-rule="evenodd" d="M6.41656 46.7198C6.41116 46.7183 6.40543 46.7165 6.40002 46.7147C8.63084 46.5916 11.2723 44.9888 11.2723 44.9888C11.2723 44.9888 11.3677 44.9238 11.52 44.7998C10.3127 45.9942 8.24727 46.5492 6.41656 46.7198Z" fill="#D7D1DA"/>
<path fill-rule="evenodd" clip-rule="evenodd" d="M5.72803 46.7525C5.74111 46.7233 5.74828 46.7031 5.74828 46.7031C5.76162 46.7005 5.77503 46.6961 5.78858 46.6885C5.7897 46.6923 5.7909 46.6961 5.79203 46.6993C5.77045 46.7195 5.74921 46.7373 5.72803 46.7525Z" fill="#B7ADBC"/>
<path fill-rule="evenodd" clip-rule="evenodd" d="M4.80369 46.7205C4.5462 46.7205 4.30114 46.7119 4.07288 46.6958C3.91645 46.6622 3.75505 46.6169 3.5921 46.5571C3.14117 46.3911 2.675 46.1134 2.24793 45.6612C1.98847 45.3866 1.74345 45.0475 1.52539 44.6304C1.52539 44.6304 1.33889 44.4081 1.13529 44.0189C0.811429 43.0958 0.640015 42.2699 0.640015 42.2699C0.640015 42.2699 1.23281 42.7072 2.18334 42.7072C2.73285 42.7072 3.40146 42.5613 4.14472 42.1005C6.17358 40.8427 5.43592 38.4385 5.43592 38.4385C5.43592 38.4385 5.27079 37.1031 6.12009 36.4808C6.12258 36.4808 6.12538 36.4805 6.12786 36.4805C6.13595 36.5625 6.29486 37.6458 9.11549 38.0252C12.0484 38.4195 13.1829 42.2794 11.08 44.5896C11.0657 44.6054 11.0514 44.6212 11.0368 44.6367C10.8878 44.7672 10.7945 44.8356 10.7945 44.8356C10.7945 44.8356 8.21177 46.5222 6.03053 46.6517C5.96708 46.6555 5.90427 46.6578 5.84176 46.659C5.84176 46.659 5.80817 46.6692 5.74691 46.6837C5.42037 46.7088 5.10348 46.7205 4.80369 46.7205Z" fill="#D7D1DA"/>
<path fill-rule="evenodd" clip-rule="evenodd" d="M5.75999 35.84C5.48661 35.3473 5.01225 34.1594 5.14203 32C5.21233 33.7053 5.64373 35.4082 5.75999 35.84Z" fill="#BEBACD"/>
<path fill-rule="evenodd" clip-rule="evenodd" d="M6.33216 36.4797C6.11594 36.4797 5.99046 36.4669 5.99046 36.4669C5.99046 36.4669 5.90823 36.3726 5.7939 36.167C5.66711 35.6975 5.19666 33.8461 5.12 31.9922C5.12655 31.8832 5.13441 31.7719 5.14391 31.6587C5.14391 31.6587 6.34003 34.2193 7.91388 34.2193C9.48806 34.2193 9.9251 30.7197 9.9251 30.7197C9.9251 30.7197 10.9453 34.8167 9.31312 35.7272C8.30407 36.2904 7.27241 36.4398 6.63193 36.4721C6.6316 36.4689 6.6316 36.4669 6.6316 36.4669C6.62898 36.4689 6.62636 36.4708 6.62374 36.4724C6.51432 36.4778 6.41636 36.4797 6.33216 36.4797Z" fill="#D7D1DA"/>
<path fill-rule="evenodd" clip-rule="evenodd" d="M6.39197 36.4859C6.39733 36.4826 6.40269 36.4786 6.40805 36.4746C6.40805 36.4746 6.40805 36.4786 6.40872 36.4853C6.40336 36.4853 6.39733 36.4859 6.39197 36.4859Z" fill="#B7ADBC"/>
<path fill-rule="evenodd" clip-rule="evenodd" d="M9.34276 35.8555C8.51754 35.8489 7.60092 35.9411 6.90872 36.2386C6.56073 36.388 6.29407 36.5976 6.13426 36.8359C6.05482 36.9578 5.99367 37.0883 5.96152 37.2429C5.92874 37.408 5.91865 37.5466 5.93063 37.659C5.94734 37.7718 5.98895 37.8692 6.0668 37.9765C6.14466 38.0824 6.26192 38.1903 6.40628 38.2893C6.70068 38.4891 7.08555 38.645 7.48933 38.7673C7.69296 38.8277 7.90257 38.8794 8.11534 38.9252C8.32936 38.969 8.54497 39.0128 8.76183 39.0693C9.19524 39.1811 9.63937 39.308 10.0879 39.5378L10.1043 39.546C10.2247 39.6077 10.2742 39.7591 10.2149 39.8843C10.1888 39.9389 10.1459 39.9798 10.0961 40.003C9.13062 40.4521 8.14181 40.3567 7.15395 40.1262C6.65813 40.0059 6.1538 39.8382 5.65325 39.5299C5.40613 39.3684 5.15837 39.1664 4.94655 38.8934C4.73505 38.6237 4.56862 38.2726 4.50968 37.9068C4.4501 37.5404 4.4873 37.1909 4.55822 36.8862C4.62977 36.5691 4.77004 36.254 4.95601 35.98C5.14324 35.7061 5.37524 35.4733 5.62583 35.2968C5.87579 35.119 6.13804 34.9852 6.39935 34.8859C6.92259 34.6842 7.44489 34.606 7.95332 34.5704C8.20832 34.5554 8.46081 34.5573 8.71203 34.5681C8.83748 34.5724 8.96262 34.5848 9.08807 34.5969C9.21636 34.61 9.33204 34.6243 9.47672 34.6495C9.79571 34.7044 10.0113 35.0173 9.95804 35.3481C9.91013 35.6472 9.65922 35.8584 9.37617 35.8558L9.34276 35.8555Z" fill="#371B45"/>
<path fill-rule="evenodd" clip-rule="evenodd" d="M3.58177 45.44C2.96022 45.44 2.31259 45.2984 1.64359 45.0159C1.34321 44.8892 1.20058 44.5381 1.32499 44.2316C1.44914 43.9255 1.79332 43.7794 2.09395 43.9067C3.13169 44.3451 4.04167 44.3506 4.87589 43.9235C6.94085 42.8674 7.79251 39.527 7.80075 39.4934C7.88062 39.172 8.19979 38.9771 8.51548 39.0586C8.83053 39.1397 9.02134 39.4656 8.9421 39.7869C8.90312 39.9456 7.95447 43.6888 5.40743 44.9949C4.82898 45.2917 4.21885 45.44 3.58177 45.44Z" fill="#371B45"/>
<path fill-rule="evenodd" clip-rule="evenodd" d="M6.11525 46.9436C5.90058 47.08 5.67851 47.166 5.44295 47.234C5.32597 47.2704 5.2061 47.2905 5.08494 47.3147C4.96347 47.3325 4.84038 47.3438 4.71634 47.3548C4.22046 47.3815 3.70435 47.2952 3.23097 47.096C2.76178 46.8947 2.31597 46.6127 1.96086 46.2554C1.76508 46.0895 1.62249 45.8872 1.45853 45.698C1.30794 45.502 1.18556 45.2912 1.04956 45.0867L1.12755 45.1981C1.06534 45.1269 1.0313 45.0833 0.988723 45.0281C0.948295 44.9757 0.910373 44.923 0.873673 44.8703C0.799726 44.7652 0.731918 44.6579 0.668415 44.5485C0.541925 44.3292 0.433013 44.1012 0.338306 43.8666C0.155094 43.3955 0.0317207 42.8933 0.00700747 42.3782C-0.0230405 41.8641 0.0444469 41.3432 0.192116 40.8529C0.339238 40.3617 0.562557 39.9013 0.832056 39.4809C1.39165 38.6548 2.09857 37.971 2.8704 37.4196C3.63782 36.8594 4.46117 36.4058 5.30315 36.0162L5.00203 36.6915L5.00171 36.6909C4.78479 35.8974 4.62282 35.1261 4.49523 34.3287C4.3699 33.5352 4.28474 32.7309 4.27895 31.9095C4.27381 31.4992 4.29663 31.0833 4.34998 30.6633C4.40525 30.2433 4.49298 29.8173 4.65463 29.392C4.81853 28.9704 5.06245 28.5379 5.44777 28.1904C5.82795 27.8397 6.3476 27.6217 6.83094 27.5508C7.08418 27.516 7.35091 27.5031 7.61765 27.5499C7.68385 27.5615 7.75069 27.5724 7.81657 27.5862L8.00939 27.6468C8.14083 27.6832 8.25556 27.7487 8.37575 27.8055C8.84431 28.0571 9.17564 28.4306 9.43306 28.8051C9.68919 29.1847 9.87301 29.5824 10.0208 29.9826C10.1674 30.3832 10.2779 30.7878 10.3599 31.194C10.5238 32.0067 10.5971 32.8244 10.5887 33.6449C10.5774 34.4661 10.5039 35.2876 10.2558 36.1241L9.81098 35.3883H9.81163C9.8653 35.4002 9.89583 35.409 9.93343 35.4187C9.97135 35.4281 10.0038 35.4385 10.0385 35.4488C10.1076 35.4686 10.1738 35.4908 10.239 35.5137C10.3718 35.5573 10.4974 35.6104 10.6234 35.664C10.7471 35.7214 10.8721 35.776 10.991 35.8418L11.171 35.9375L11.3449 36.0426C11.8076 36.3246 12.2309 36.6708 12.594 37.0698C12.9646 37.4635 13.2586 37.9195 13.498 38.3929L13.6677 38.7526C13.7156 38.8753 13.7583 38.9998 13.8027 39.1234C13.8461 39.2476 13.8908 39.3705 13.921 39.5029L13.9705 39.698L14.0074 39.8965C14.1057 40.4266 14.1019 40.9762 14.0097 41.5047C13.9152 42.0329 13.7317 42.5392 13.4839 43.0012C13.2374 43.4654 12.9215 43.8835 12.5654 44.2552C12.2052 44.6288 11.8138 44.9465 11.351 45.2147C11.2202 45.2903 11.0518 45.2486 10.9743 45.1209C10.9094 45.0146 10.9287 44.8825 11.0126 44.7978L11.0296 44.7806C11.6733 44.1307 12.2572 43.3848 12.632 42.5912C13.0134 41.7961 13.1397 40.9216 12.9446 40.0967L12.9087 39.942L12.8617 39.7896C12.8347 39.688 12.7917 39.5863 12.7502 39.4847L12.631 39.1795L12.4835 38.8887C12.2775 38.508 12.0336 38.1469 11.7283 37.8405C11.4271 37.5312 11.0878 37.2574 10.715 37.0319L10.5749 36.9481L10.4299 36.8725C10.3345 36.8198 10.2342 36.7775 10.1356 36.7323C10.0356 36.6915 9.93535 36.6473 9.83509 36.6138C9.78495 36.5953 9.73514 36.578 9.68629 36.5636C9.66187 36.556 9.63616 36.5476 9.61431 36.5419L9.55775 36.5266L9.5285 36.5187C9.20938 36.4331 9.02203 36.1106 9.10976 35.7992L9.11233 35.7907C9.3119 35.1239 9.38774 34.3733 9.39546 33.634C9.40317 32.8915 9.33536 32.1441 9.18946 31.4233C9.04259 30.7069 8.80735 30.0008 8.4381 29.4488C8.25331 29.1778 8.03575 28.9485 7.79697 28.8243C7.55916 28.6997 7.30624 28.658 7.0183 28.7013C6.71203 28.7512 6.46619 28.8594 6.25922 29.0448C6.05258 29.2286 5.89029 29.4961 5.77171 29.8029C5.53904 30.4249 5.46898 31.1651 5.47252 31.9029C5.47734 32.645 5.55575 33.4 5.67466 34.1506C5.79324 34.8977 5.95489 35.6596 6.15092 36.3763C6.2348 36.6304 6.12104 36.9008 5.89254 37.0281L5.84948 37.0519C5.08752 37.4776 4.35319 37.9352 3.68474 38.4503C3.01758 38.9659 2.42752 39.55 1.99698 40.2039C1.78511 40.5308 1.61774 40.8752 1.5085 41.2309C1.39924 41.5866 1.35174 41.9526 1.35955 42.3205C1.36614 42.6891 1.4467 43.0583 1.57377 43.4155C1.64043 43.5931 1.71804 43.7681 1.80911 43.9362C1.85548 44.0193 1.90247 44.1024 1.95263 44.1818C1.9777 44.2216 2.00302 44.2605 2.02896 44.2975L2.09584 44.3904L2.14073 44.4528C2.15188 44.4685 2.16384 44.4864 2.17386 44.5024C2.27439 44.6633 2.36164 44.8367 2.46955 44.9914C2.58775 45.1356 2.6868 45.3016 2.82508 45.4242C3.07254 45.7043 3.38298 45.9076 3.71078 46.0773C4.03986 46.246 4.39882 46.3752 4.78736 46.4665C5.17364 46.5616 5.59496 46.6186 6.02848 46.6638L6.04712 46.6657C6.13261 46.6745 6.19431 46.7491 6.18531 46.8326C6.18017 46.8793 6.15285 46.9194 6.11525 46.9436Z" fill="#371B45"/>
<path fill-rule="evenodd" clip-rule="evenodd" d="M36.8 96C23.192 96 12.16 94.4238 12.16 92.48C12.16 91.3405 15.9493 90.3278 21.8254 89.6845C21.3771 90.77 21.6318 91.9839 22.558 92.8113C23.4363 93.5958 25.665 93.7214 27.0004 93.7214C27.419 93.7214 27.75 93.7091 27.9237 93.7009H33.5751C33.594 93.7009 33.6126 93.6999 33.6312 93.6981C33.7141 93.6905 35.6712 93.4841 36.4236 91.3834C36.5913 90.9149 36.6771 90.0988 36.7209 88.96C36.7474 88.96 36.7736 88.96 36.8 88.96C36.8798 88.96 36.9599 88.96 37.0396 88.9603C37.0834 90.0988 37.1692 90.9149 37.3369 91.3834C38.0891 93.4841 40.0461 93.6905 40.1293 93.6981C40.1479 93.6999 40.1665 93.7009 40.1851 93.7009H45.8368C46.008 93.7088 46.3311 93.7211 46.7403 93.7214C46.7469 93.7214 46.7535 93.7214 46.7598 93.7214C48.0955 93.7214 50.3243 93.5958 51.2025 92.8113C52.1234 91.9888 52.3803 90.7838 51.9424 89.7029C57.7227 90.3471 61.44 91.3515 61.44 92.48C61.44 94.4238 50.4084 96 36.8 96Z" fill="#BEBACD"/>
<path fill-rule="evenodd" clip-rule="evenodd" d="M48.64 45.9315C45.8979 47.5926 41.8871 48.6396 37.4172 48.6396C32.6129 48.6396 28.338 47.4303 25.6 45.5497C25.6801 45.3787 25.7599 45.2089 25.8429 45.0378C25.8429 45.0378 24.3141 36.1933 31.9634 33.1865C33.6534 32.8343 35.493 32.6396 37.4172 32.6396C39.4064 32.6396 41.3043 32.8472 43.0409 33.2246C49.6194 36.262 48.2199 45.0378 48.2199 45.0378C48.3639 45.3361 48.5047 45.6344 48.64 45.9315Z" fill="#D8D8D8"/>
<path fill-rule="evenodd" clip-rule="evenodd" d="M36.48 72.2802C36.3903 73.7543 36.3323 75.2274 36.2946 76.6634C36.2859 77.0264 36.2775 77.3879 36.27 77.7449C36.1501 84.0438 36.3831 89.4173 35.9217 90.7751C35.2911 92.6227 33.6535 92.7836 33.6535 92.7836H28.0532C28.0532 92.7836 24.1842 92.9813 23.1557 92.0162C22.1273 91.0526 22.2285 89.6799 22.9794 88.731C23.6215 87.9165 24.7728 87.5741 24.7728 87.5741C24.7728 87.5741 23.9948 81.6974 23.1991 73.8741C23.1673 73.5565 23.1339 73.2364 23.1022 72.9131C22.8591 70.4958 22.6192 67.916 22.4008 65.2803L36.48 72.2802Z" fill="white"/>
<path fill-rule="evenodd" clip-rule="evenodd" d="M34.9896 77.4404C29.94 77.4404 26.3489 75.7421 24.0532 74.0971C23.9286 72.9082 23.8034 71.6708 23.6801 70.4004C23.8456 70.5767 24.022 70.743 24.2107 70.8954C24.2628 70.9369 24.3282 70.9599 24.3948 70.9599C24.4398 70.9599 24.4852 70.9497 24.5277 70.9277C24.5471 70.9177 24.5647 70.9057 24.5808 70.8923C24.78 71.1272 24.9866 71.3505 25.1993 71.563C26.8897 73.2787 28.998 74.2886 31.1706 74.8623C31.611 74.9797 32.0525 75.0773 32.4944 75.1606C33.6282 75.3732 34.7602 75.4825 35.8401 75.5271C35.8197 76.1675 35.8043 76.8019 35.7923 77.4265C35.5206 77.4357 35.2529 77.4404 34.9896 77.4404Z" fill="#D7D1DA"/>
<path fill-rule="evenodd" clip-rule="evenodd" d="M27.3931 92.1596C25.9171 92.1596 24.1245 91.9826 23.6231 91.5096C23.0103 90.932 22.9344 90.2156 23.1482 89.5996C24.1841 90.1998 26.3406 90.2934 27.583 90.2934C28.1446 90.2934 28.5196 90.2741 28.5196 90.2741H35.0045C35.0045 90.2741 35.3693 90.2381 35.84 90.0162C35.811 90.2077 35.7775 90.3635 35.7382 90.479C35.2611 91.8857 34.109 92.1135 33.9373 92.1396H28.2385C28.2286 92.1396 28.2187 92.14 28.2088 92.1403C27.957 92.1531 27.6813 92.1596 27.3931 92.1596Z" fill="#D7D1DA"/>
<path fill-rule="evenodd" clip-rule="evenodd" d="M27.1361 93.4396C25.8057 93.4396 23.5853 93.3089 22.7103 92.4917C21.5473 91.4057 21.4471 89.6802 22.4722 88.3885C22.949 87.7876 23.6387 87.4106 24.0966 87.2103C23.8145 85.0248 22.6151 75.509 21.7621 65.2823C21.7351 64.9563 21.9732 64.6696 22.2941 64.6421C22.6148 64.6122 22.8971 64.8562 22.9245 65.1824C23.8896 76.7539 25.2992 87.4134 25.3136 87.5196C25.3519 87.8102 25.1757 88.0858 24.8984 88.1674C24.8899 88.1703 23.9025 88.4736 23.3805 89.1316C22.8412 89.811 22.6688 90.844 23.4998 91.6197C24.0894 92.1705 26.4939 92.3096 28.0127 92.2343C28.0224 92.234 28.0322 92.2337 28.0419 92.2337H33.6503C33.8192 92.2082 34.953 91.9862 35.4226 90.6154C35.6993 89.8071 35.6999 86.9765 35.7002 83.699C35.7008 80.4103 35.7015 76.3179 35.9546 72.2175C35.975 71.8909 36.2498 71.6456 36.5733 71.6631C36.8946 71.6839 37.139 71.9649 37.1189 72.2915C36.8679 76.3552 36.8673 80.4269 36.8667 83.699C36.866 87.498 36.8657 90.0074 36.5243 91.0045C35.7746 93.1925 33.8249 93.4074 33.7423 93.4154C33.7238 93.4173 33.7052 93.4183 33.6864 93.4183H28.0561C27.883 93.4269 27.5532 93.4396 27.1361 93.4396Z" fill="#371B45"/>
<path fill-rule="evenodd" clip-rule="evenodd" d="M31.1803 82.56C28.9064 82.56 26.2797 82.2526 24.0231 81.183C23.7323 81.0452 23.6009 80.6803 23.7292 80.3682C23.8576 80.0561 24.1976 79.9151 24.4884 80.0528C29.3407 82.3531 36.3556 80.8097 36.426 80.7934C36.736 80.7242 37.0422 80.9371 37.1076 81.2708C37.173 81.6048 36.9737 81.9325 36.6628 82.0027C36.492 82.0413 34.1344 82.56 31.1803 82.56Z" fill="#371B45"/>
<path fill-rule="evenodd" clip-rule="evenodd" d="M24.7938 87.1755C25.5542 87.0415 26.2994 87.0223 27.0332 87.0523C27.7671 87.0842 28.4903 87.1687 29.2046 87.2943C29.3589 87.3212 29.4623 87.4704 29.4358 87.627C29.4111 87.7709 29.2851 87.8714 29.1451 87.8656H29.1436C28.443 87.8377 27.7415 87.8507 27.0524 87.9138C26.3649 87.9779 25.6845 88.0921 25.0592 88.2929C24.7603 88.3892 24.4412 88.2211 24.3467 87.9179C24.2518 87.6143 24.4174 87.2906 24.7164 87.1947C24.7398 87.1869 24.7636 87.181 24.7871 87.1767L24.7938 87.1755Z" fill="#371B45"/>
<path fill-rule="evenodd" clip-rule="evenodd" d="M37.76 72.2802C37.8497 73.7543 37.9077 75.2274 37.9451 76.6634C37.9538 77.0264 37.9625 77.3879 37.9697 77.7449C38.09 84.0438 37.8569 89.4173 38.3183 90.7751C38.949 92.6227 40.5862 92.7836 40.5862 92.7836H46.1867C46.1867 92.7836 50.0561 92.9813 51.0842 92.0162C52.1127 91.0526 52.0115 89.6799 51.2609 88.731C50.6188 87.9165 49.4672 87.5741 49.4672 87.5741C49.4672 87.5741 50.2455 81.6974 51.0409 73.8741C51.0727 73.5565 51.106 73.2364 51.1378 72.9131C51.3808 70.4958 51.6211 67.916 51.8395 65.2803L37.76 72.2802Z" fill="white"/>
<path fill-rule="evenodd" clip-rule="evenodd" d="M39.25 77.4404C38.9865 77.4404 38.7193 77.4358 38.4478 77.4266C38.4358 76.8093 38.4204 76.1829 38.4 75.55C39.9678 75.4935 41.6506 75.3042 43.2942 74.8647C45.6797 74.2253 47.9816 73.0624 49.7291 71.0173C49.7603 71.0281 49.7929 71.0336 49.8259 71.0336C49.8965 71.0336 49.9677 71.0078 50.0231 70.9559C50.2115 70.7801 50.3902 70.5944 50.56 70.4004C50.4349 71.6815 50.3073 72.9301 50.1809 74.128C47.8864 75.7578 44.2971 77.4407 39.25 77.4404Z" fill="#D7D1DA"/>
<path fill-rule="evenodd" clip-rule="evenodd" d="M46.8476 92.1596C46.5652 92.1596 46.2942 92.1531 46.0463 92.141C46.0412 92.1406 46.0361 92.1403 46.0309 92.14C46.0214 92.1396 46.0115 92.1393 46.0016 92.1393H40.304C40.1186 92.1105 38.9761 91.8775 38.5018 90.4789C38.4626 90.3634 38.4287 90.2079 38.4 90.0162C38.8708 90.2381 39.2355 90.2741 39.2355 90.2741H45.7204C45.7204 90.2741 46.0954 90.2934 46.6571 90.2934C47.8995 90.2934 50.0559 90.1998 51.0919 89.5996C51.3057 90.2155 51.2297 90.9318 50.617 91.5094C50.1156 91.9819 48.3233 92.1596 46.8476 92.1596Z" fill="#D7D1DA"/>
<path fill-rule="evenodd" clip-rule="evenodd" d="M47.1037 93.4396C46.6866 93.4396 46.3572 93.4269 46.1841 93.4183H40.5534C40.5348 93.4183 40.5163 93.4173 40.4978 93.4154C40.4149 93.4074 38.4651 93.1925 37.7157 91.0045C37.3743 90.0074 37.3737 87.498 37.3734 83.699C37.3727 80.4269 37.3721 76.3552 37.1212 72.2915C37.1011 71.9649 37.3451 71.6839 37.6667 71.6631C37.9871 71.6418 38.265 71.8909 38.2851 72.2175C38.5386 76.3179 38.5392 80.4103 38.5395 83.699C38.5401 86.9765 38.5405 89.8071 38.8172 90.6154C39.2842 91.9785 40.4086 92.2056 40.5911 92.2337H46.1982C46.208 92.2337 46.2177 92.234 46.2271 92.2343C47.7457 92.3099 50.1509 92.1702 50.7404 91.6197C51.5714 90.844 51.399 89.811 50.8597 89.1316C50.3374 88.4736 49.35 88.1703 49.3402 88.1671C49.0645 88.0842 48.8883 87.8089 48.9266 87.5196C48.9407 87.4134 50.3506 76.7539 51.3158 65.1824C51.3428 64.8562 51.6258 64.6122 51.9461 64.6421C52.2668 64.6696 52.5052 64.9563 52.4779 65.2823C51.6251 75.509 50.4257 85.0248 50.1437 87.2103C50.6013 87.4106 51.2913 87.7876 51.7681 88.3885C52.7932 89.6802 52.693 91.4057 51.53 92.4917C50.6547 93.3089 48.4341 93.4396 47.1037 93.4396Z" fill="#371B45"/>
<path fill-rule="evenodd" clip-rule="evenodd" d="M43.6998 82.56C40.7451 82.56 38.3877 82.0413 38.2173 82.0027C37.906 81.9325 37.707 81.6052 37.7724 81.2711C37.8379 80.9374 38.1432 80.7235 38.4538 80.7934C38.5241 80.8093 45.5463 82.3497 50.3918 80.0528C50.6825 79.9151 51.0222 80.0561 51.1509 80.3682C51.2792 80.6803 51.1475 81.0452 50.8567 81.183C48.6007 82.2526 45.9734 82.56 43.6998 82.56Z" fill="#371B45"/>
<path fill-rule="evenodd" clip-rule="evenodd" d="M49.1807 88.2932C48.5557 88.0923 47.8752 87.9781 47.1873 87.914C46.4983 87.8509 45.7971 87.8379 45.0964 87.8657H45.0949C44.9384 87.8719 44.8064 87.7481 44.8003 87.5893C44.7948 87.4432 44.8973 87.3185 45.0354 87.2944C45.7498 87.1687 46.473 87.0842 47.2066 87.0523C47.9407 87.0223 48.6856 87.0415 49.4463 87.1755L49.4497 87.1761C49.7587 87.2309 49.9655 87.5293 49.9115 87.8428C49.8578 88.1561 49.5638 88.3659 49.2548 88.3114C49.2307 88.3071 49.2038 88.3003 49.1807 88.2932Z" fill="#371B45"/>
<path fill-rule="evenodd" clip-rule="evenodd" d="M47.1037 93.4396C46.6866 93.4396 46.3572 93.4269 46.1841 93.4183H40.5537C40.5348 93.4183 40.5163 93.4173 40.4978 93.4154C40.4152 93.4074 38.4651 93.1925 37.7157 91.0045C37.3743 90.0074 37.3737 87.4976 37.3734 83.6986C37.3727 80.4269 37.3721 76.3549 37.1212 72.2915C37.1011 71.9649 37.3451 71.6839 37.6667 71.6631C37.9871 71.6418 38.265 71.8909 38.2851 72.2175C38.5386 76.3176 38.5392 80.41 38.5395 83.6983C38.5401 86.9765 38.5408 89.8071 38.8175 90.6154C39.2842 91.9785 40.4086 92.2056 40.5911 92.2337H46.1982C46.208 92.2337 46.2177 92.234 46.2271 92.2343C47.746 92.3103 50.1509 92.1705 50.7404 91.6197C51.5714 90.844 51.399 89.811 50.8597 89.1316C50.3374 88.4736 49.35 88.1703 49.3402 88.1671C49.0645 88.0842 48.8883 87.8089 48.9266 87.5196C48.9407 87.4134 50.3506 76.7539 51.3158 65.1824C51.3428 64.8562 51.6258 64.6122 51.9461 64.6421C52.2668 64.6696 52.5052 64.9563 52.4779 65.2823C51.6251 75.509 50.4257 85.0248 50.1437 87.2103C50.6013 87.4106 51.2913 87.7876 51.7681 88.3885C52.7932 89.6802 52.693 91.4057 51.53 92.4917C50.655 93.3089 48.4345 93.4396 47.1037 93.4396Z" fill="#371B45"/>
<path fill-rule="evenodd" clip-rule="evenodd" d="M48.5087 44.7998C52.2307 52.4355 53.9049 59.423 52.7691 64.8549C52.3638 66.7927 51.6887 68.388 50.8218 69.6987C48.9529 72.5238 46.1915 74.0275 43.3133 74.7939C41.2102 75.3536 39.0449 75.5198 37.1199 75.5198C35.6378 75.5198 34.0132 75.4212 32.3842 75.1205C31.9276 75.0362 31.4704 74.9357 31.0158 74.8172C28.4507 74.1485 25.972 72.8994 24.1276 70.6587C22.9178 69.1891 21.9808 67.2934 21.471 64.8549C20.3349 59.423 22.0092 52.4355 25.7314 44.7998H48.5087Z" fill="white"/>
<path fill-rule="evenodd" clip-rule="evenodd" d="M53.119 61.7487C53.1318 63.0698 53.0187 64.3276 52.7708 65.5119C52.7214 65.7462 52.6672 65.9777 52.6083 66.2029C52.6003 66.2376 52.5924 66.2707 52.5831 66.3054C52.1727 67.8877 51.5683 69.2227 50.8221 70.3483C48.9531 73.1682 46.192 74.6688 43.3129 75.4355C41.2104 75.9944 39.0454 76.1596 37.1209 76.1596C35.6384 76.1596 34.0128 76.0622 32.384 75.7613C31.9274 75.6765 31.4712 75.5771 31.0162 75.4576C28.4507 74.7899 25.9725 73.5429 24.1258 71.3058C23.0441 69.9926 22.1806 68.3362 21.6428 66.2581C21.581 66.014 21.5236 65.7667 21.4694 65.5119C21.2212 64.3276 21.1069 63.0698 21.1212 61.7487C21.1339 60.2563 21.3073 58.6819 21.63 57.0381C22.3316 53.4673 23.7377 49.5704 25.7306 45.4908C25.7306 45.4908 25.7083 45.3618 25.6813 45.1272C25.6178 44.5573 25.5334 43.3686 25.7083 41.9405C26.1649 38.2581 28.3567 32.9883 37.1209 32.6543C45.9469 32.3175 48.1072 37.8645 48.5379 41.7737C48.6972 43.1986 48.6256 44.4078 48.5634 45.0329C48.5348 45.3256 48.508 45.4908 48.508 45.4908C49.871 48.2811 50.9623 50.9874 51.7369 53.5616C51.9006 54.0999 52.0485 54.6323 52.1823 55.1596C52.7803 57.4885 53.1015 59.6955 53.119 61.7487Z" fill="white"/>
<path fill-rule="evenodd" clip-rule="evenodd" d="M24.9599 72.3197C24.7398 72.1169 24.526 71.9038 24.3199 71.6797C24.5245 71.9023 24.7369 72.1139 24.9555 72.3153C24.9571 72.3167 24.9587 72.3179 24.9599 72.3197Z" fill="#B7ADBC"/>
<path fill-rule="evenodd" clip-rule="evenodd" d="M24.9599 71.68C24.7398 71.4789 24.526 71.2674 24.3199 71.0451C24.3219 71.0433 24.3241 71.0418 24.3261 71.04C24.5302 71.2642 24.742 71.4774 24.9599 71.68Z" fill="#D7D1DA"/>
<path fill-rule="evenodd" clip-rule="evenodd" d="M37.1165 76.1599C35.6475 76.1599 34.0364 76.0593 32.4224 75.7524C31.9693 75.6656 31.5164 75.5636 31.0664 75.4423C28.8714 74.8528 26.7418 73.8216 25.0236 72.0792C25.0223 72.0773 25.0207 72.076 25.0191 72.0744C24.805 71.853 24.5969 71.6201 24.3964 71.3752C24.4978 71.2848 24.5297 71.1325 24.4656 71.0048L23.8447 69.7628C23.6471 69.3514 23.4538 68.942 23.2725 68.5267C22.9002 67.701 22.6129 66.8334 22.4 65.9438C22.4581 65.9357 22.5162 65.928 22.5747 65.9199C23.037 66.9854 23.5994 67.9091 24.2379 68.709C26.0672 70.998 28.5228 72.2741 31.0664 72.9572C31.5164 73.0785 31.9693 73.1805 32.4224 73.2673C34.0364 73.5744 35.6475 73.6748 37.1165 73.6748C39.0239 73.6748 41.17 73.5054 43.2545 72.9333C46.1073 72.1512 48.8445 70.6147 50.6959 67.7294C51.0442 67.1877 51.361 66.5982 51.6414 65.957C51.7077 65.967 51.774 65.9767 51.84 65.9867C51.409 67.7552 50.7177 69.4263 49.7666 71.0051C49.6984 71.1183 49.7094 71.2687 49.8026 71.3703C49.8111 71.3794 49.8199 71.3878 49.8291 71.3958C48.0411 73.5328 45.6901 74.7496 43.2545 75.4184C41.17 75.9905 39.0239 76.1599 37.1165 76.1599Z" fill="#D7D1DA"/>
<path fill-rule="evenodd" clip-rule="evenodd" d="M23.8267 70.9749C23.4408 70.6703 23.106 70.3108 22.806 69.9261C22.5034 69.5424 22.244 69.1273 22.0185 68.6968C21.5731 67.8313 21.237 66.9185 20.9766 65.9913C20.915 65.7586 20.8565 65.5253 20.8051 65.2907C20.7504 65.058 20.7054 64.81 20.6667 64.5713C20.592 64.0902 20.545 63.6114 20.515 63.1338C20.4597 62.1789 20.4731 61.2284 20.5326 60.2835C20.6511 58.3935 20.9683 56.5261 21.4309 54.6989C21.9066 52.8754 22.5594 51.0931 23.4456 49.4304C23.5184 49.2935 23.6906 49.2405 23.8299 49.3124C23.9552 49.3767 24.0111 49.5199 23.9683 49.6474L23.9679 49.6484C23.3827 51.3993 22.867 53.1558 22.4753 54.94C22.2817 55.8321 22.1162 56.7293 21.9942 57.632C21.8747 58.5348 21.7907 59.441 21.7495 60.3473C21.706 61.2529 21.7146 62.1594 21.7753 63.0543C21.8054 63.5018 21.8514 63.9464 21.921 64.381C21.9568 64.5999 21.9926 64.8087 22.0424 65.0279C22.0888 65.2471 22.1415 65.4637 22.1967 65.6801C22.4121 66.5461 22.7028 67.3905 23.0795 68.1943C23.2628 68.5985 23.4584 68.9969 23.6584 69.3973L24.2865 70.6059C24.3628 70.7526 24.3044 70.9322 24.1552 71.0075C24.0459 71.0628 23.9171 71.0455 23.8267 70.9749Z" fill="#371B45"/>
<path fill-rule="evenodd" clip-rule="evenodd" d="M43.3321 75.5645C42.3496 76.0289 41.3154 76.326 40.2735 76.518C39.7524 76.6204 39.2272 76.6785 38.7026 76.7301C38.1774 76.7756 37.6512 76.7919 37.1263 76.7999C36.6011 76.7957 36.0756 76.7786 35.55 76.7384C35.0255 76.6872 34.4999 76.6345 33.9788 76.5328C33.4568 76.4421 32.9386 76.3169 32.426 76.1655C31.9164 75.9959 31.4118 75.8024 30.9168 75.593C30.763 75.5277 30.6826 75.3263 30.7369 75.1426C30.783 74.9882 30.9098 74.8956 31.0404 74.9089L31.0668 74.9116C31.5799 74.9639 32.0788 75.0611 32.5811 75.1301C33.0841 75.1969 33.5883 75.2436 34.0923 75.2845C34.5968 75.3175 35.1008 75.3574 35.6066 75.3672C36.1118 75.3881 36.618 75.3968 37.1247 75.3919C37.6312 75.3976 38.1374 75.3832 38.6426 75.3634C39.1481 75.3505 39.6517 75.3103 40.1563 75.275C41.1645 75.1916 42.1679 75.0569 43.1792 74.8839L43.1808 74.8835C43.3432 74.8558 43.4935 74.9905 43.517 75.1844C43.5367 75.3502 43.4569 75.5053 43.3321 75.5645Z" fill="#371B45"/>
<path fill-rule="evenodd" clip-rule="evenodd" d="M50.4515 48.802C51.2967 50.5752 52.005 52.4253 52.5619 54.3329C52.6354 54.5699 52.6923 54.8125 52.758 55.0526C52.8198 55.2937 52.8897 55.5322 52.9448 55.7754C53.056 56.2619 53.1717 56.7472 53.2603 57.24C53.3615 57.7297 53.4362 58.2259 53.5134 58.7215C53.555 58.9692 53.5764 59.2203 53.6065 59.4699C53.6354 59.7197 53.6649 59.9696 53.6797 60.2217C53.7746 61.2252 53.7809 62.242 53.7216 63.2559C53.7017 63.5095 53.6918 63.7635 53.6631 64.0165L53.5706 64.7752C53.4836 65.2778 53.3983 65.7822 53.2754 66.2741C53.0358 67.2606 52.7173 68.2358 52.2614 69.1453C51.8077 70.0522 51.2349 70.9028 50.5226 71.5998C50.409 71.7112 50.2303 71.7053 50.1237 71.5866C50.0348 71.4875 50.0242 71.3409 50.0893 71.2304C51.0568 69.589 51.7426 67.8453 52.146 65.9927C52.5402 64.1449 52.5992 62.2319 52.4712 60.3224C52.3383 58.4116 51.9984 56.5061 51.5428 54.6278C51.0857 52.7478 50.5289 50.8865 49.9347 49.0263L49.9344 49.0251C49.8853 48.8718 49.9649 48.706 50.1116 48.6547C50.246 48.6081 50.3903 48.6732 50.4515 48.802Z" fill="#371B45"/>
<path fill-rule="evenodd" clip-rule="evenodd" d="M44.9425 69.7603H29.7894C28.7343 69.7603 27.8707 68.9008 27.8707 67.8504V65.5481C26.1166 65.7543 24.3533 65.9783 22.7241 66.1943C22.6098 65.9386 22.5019 65.6742 22.4 65.4013C22.8441 65.3088 25.8478 64.7041 28.6956 64.6565V65.869C28.6956 67.2028 29.7499 68.2943 31.0406 68.2943H43.8477C45.1369 68.2943 46.1927 67.2028 46.1927 65.869V64.6536C46.2032 64.6536 46.2138 64.6536 46.2246 64.6536C48.7213 64.6536 51.4316 65.122 52.48 65.3234C52.3654 65.6367 52.2422 65.9395 52.1113 66.2309C50.4712 65.9929 48.6635 65.7428 46.8613 65.5169V67.8504C46.8613 68.9008 45.998 69.7603 44.9425 69.7603ZM46.1927 59.5752V58.6811C46.1927 58.4133 46.1493 58.1556 46.0717 57.9144C45.8144 57.1239 45.1714 56.5122 44.3777 56.3203H44.9425C45.998 56.3203 46.8613 57.1798 46.8613 58.2299V59.5542C46.5937 59.5587 46.3664 59.567 46.1927 59.5752ZM28.6956 59.5606C28.4955 59.5549 28.2624 59.5508 28.0047 59.5508C27.9607 59.5508 27.916 59.5508 27.8707 59.5511V58.2299C27.8707 57.1798 28.7343 56.3203 29.7894 56.3203H30.5097C29.4731 56.5707 28.6956 57.5369 28.6956 58.6811V59.5606Z" fill="#D7D1DA"/>
<path fill-rule="evenodd" clip-rule="evenodd" d="M52.2787 65.9203C52.2122 65.9135 52.1453 65.907 52.0784 65.9003C52.209 65.7012 52.3319 65.4943 52.4463 65.2803C52.4577 65.2818 52.4689 65.2831 52.48 65.2846C52.4444 65.4179 52.4049 65.551 52.3615 65.6834C52.3351 65.7627 52.3074 65.8415 52.2787 65.9203ZM22.5854 65.8914C22.5854 65.8916 22.5854 65.8912 22.5854 65.8914C22.5303 65.7418 22.4777 65.5916 22.4316 65.4401C22.4204 65.4062 22.4099 65.3725 22.4 65.3391C22.4093 65.3378 22.422 65.3359 22.4382 65.3335C22.5398 65.5199 22.6475 65.7006 22.7615 65.8753C22.7026 65.8808 22.644 65.886 22.5854 65.8914Z" fill="#B7ADBC"/>
<path fill-rule="evenodd" clip-rule="evenodd" d="M21.8628 65.9196L21.76 64.6396C21.7801 64.6653 21.7932 64.6808 21.7975 64.6858L21.9869 64.9089L22.227 64.834C22.227 64.834 22.233 64.8321 22.2417 64.8298C22.2501 64.8895 22.2591 64.9497 22.2686 65.0102C22.3081 65.281 22.353 65.5487 22.4 65.8161V65.8168C22.2189 65.8514 22.0396 65.8855 21.8628 65.9196Z" fill="#371B45"/>
<path fill-rule="evenodd" clip-rule="evenodd" d="M52.3181 66.5603C52.1611 66.5232 52.0016 66.4857 51.8401 66.4482C51.8627 66.3034 51.8845 66.1586 51.9053 66.013C51.9394 65.7697 51.9705 65.5252 51.9986 65.2803C52.2017 65.3429 52.3186 65.3832 52.3246 65.3852L52.4801 65.439C52.4751 65.4789 52.4701 65.5188 52.4648 65.5583C52.4204 65.9009 52.3717 66.2344 52.3181 66.5603Z" fill="#371B45"/>
<path fill-rule="evenodd" clip-rule="evenodd" d="M45.757 60.2014C45.757 60.2014 50.7005 59.8339 52.7813 61.2938C54.9928 62.8452 52.7648 64.6402 52.7648 64.6402C52.7648 64.6402 48.7834 63.7933 45.4399 63.914L45.757 60.2014Z" fill="white"/>
<path fill-rule="evenodd" clip-rule="evenodd" d="M52.5286 64.0001C51.6133 63.7745 48.7914 63.1365 46.1234 63.1365C46.1089 63.1365 46.0944 63.1365 46.08 63.1365V63.023L46.1435 62.0801C48.2886 62.0824 50.5614 62.5115 51.7896 62.7838C51.8858 62.805 51.9823 62.8156 52.0776 62.8156C52.4592 62.8156 52.8264 62.6497 53.1107 62.3539C53.1153 62.393 53.1181 62.4321 53.1193 62.4712C53.1372 63.0602 52.7882 63.6575 52.5286 64.0001Z" fill="#D7D1DA"/>
<path fill-rule="evenodd" clip-rule="evenodd" d="M29.1229 60.2014C29.1229 60.2014 24.1794 59.8339 22.0986 61.2938C19.8871 62.8452 22.1151 64.6402 22.1151 64.6402C22.1151 64.6402 26.0965 63.7933 29.44 63.914L29.1229 60.2014Z" fill="white"/>
<path fill-rule="evenodd" clip-rule="evenodd" d="M46.1206 63.334C48.8338 63.334 51.7035 63.853 52.6344 64.0366C52.8983 63.7579 53.2532 63.2719 53.2351 62.7927C53.221 62.4176 52.9708 62.0552 52.4917 61.7153C51.0815 60.7146 47.897 60.62 46.2924 60.6815L46.0686 63.334C46.0858 63.334 46.1034 63.334 46.1206 63.334ZM52.9679 65.2795L52.6914 65.2202C52.6519 65.2116 48.71 64.3746 45.4563 64.4929L44.8 64.517L45.2155 59.6017L45.7102 59.5643C45.9221 59.5485 50.9288 59.1923 53.172 60.7841C53.9609 61.3436 54.3735 62.0079 54.3989 62.7577C54.4431 64.0622 53.2376 65.0599 53.1862 65.1019L52.9679 65.2795Z" fill="#371944"/>
<path fill-rule="evenodd" clip-rule="evenodd" d="M27.7925 60.6668C26.0891 60.6668 23.5923 60.8611 22.3883 61.7154C21.9093 62.0552 21.6591 62.4176 21.645 62.7927C21.6271 63.2713 21.9811 63.757 22.246 64.0366C23.1768 63.8531 26.0465 63.334 28.7594 63.334C28.7767 63.334 28.7942 63.334 28.8115 63.334L28.5876 60.6816C28.3528 60.6723 28.0841 60.6668 27.7925 60.6668ZM21.9121 65.2795L21.6939 65.1019C21.6425 65.0599 20.437 64.0622 20.4812 62.7578C20.5066 62.008 20.9192 61.3437 21.708 60.7842C23.9512 59.1924 28.9579 59.5483 29.1698 59.5644L29.6646 59.6018L30.08 64.517L29.4238 64.4929C26.166 64.3743 22.2284 65.2116 22.1889 65.2199L21.9121 65.2795Z" fill="#371944"/>
<path fill-rule="evenodd" clip-rule="evenodd" d="M45.44 58.1282V65.3896C45.44 66.7371 44.3973 67.8397 43.1241 67.8397H30.476C29.2012 67.8397 28.16 66.7371 28.16 65.3896V58.1282C28.16 56.782 29.2012 55.6797 30.476 55.6797H43.1241C44.1413 55.6797 45.0118 56.3836 45.3205 57.3536C45.3971 57.5973 45.44 57.8576 45.44 58.1282Z" fill="white"/>
<path fill-rule="evenodd" clip-rule="evenodd" d="M43.1241 67.8396H30.476C29.2012 67.8396 28.16 66.7629 28.16 65.447V63.0603C29.7555 63.9722 32.4961 65.2185 35.5505 65.2185C36.673 65.2185 37.838 65.0502 39.0043 64.6348C41.1238 63.8794 43.5542 61.2906 43.5542 61.2906C43.5542 61.2906 43.6463 63.9647 44.0287 63.9647C44.0319 63.9647 44.035 63.9643 44.0379 63.964C45.1232 63.8449 45.1153 58.3491 45.3205 57.5996C45.3971 57.8375 45.44 58.0917 45.44 58.356V65.447C45.44 66.7629 44.3973 67.8396 43.1241 67.8396Z" fill="#D7D1DA"/>
<path fill-rule="evenodd" clip-rule="evenodd" d="M30.3516 56.8226C29.4398 56.8226 28.698 57.5424 28.698 58.4271V65.7323C28.698 66.617 29.4398 67.3368 30.3516 67.3368H43.2484C44.1602 67.3368 44.9021 66.617 44.9021 65.7323V58.4271C44.9021 57.5424 44.1602 56.8226 43.2484 56.8226H30.3516ZM43.2484 68.4797H30.3516C28.7903 68.4797 27.52 67.2472 27.52 65.7323V58.4271C27.52 56.9121 28.7903 55.6797 30.3516 55.6797H43.2484C44.8098 55.6797 46.08 56.9121 46.08 58.4271V65.7323C46.08 67.2472 44.8098 68.4797 43.2484 68.4797Z" fill="#371944"/>
<path fill-rule="evenodd" clip-rule="evenodd" d="M43.5201 62.08C43.5201 63.1406 42.6605 64.0002 41.5999 64.0002C40.5397 64.0002 39.6801 63.1406 39.6801 62.08C39.6801 61.0197 40.5397 60.1602 41.5999 60.1602C42.6605 60.1602 43.5201 61.0197 43.5201 62.08Z" fill="#E40046"/>
<path fill-rule="evenodd" clip-rule="evenodd" d="M43.5201 62.2962C43.5201 62.442 43.5073 62.5832 43.4822 62.7202C43.3049 61.7425 42.5288 61.0067 41.5993 61.0067C40.6698 61.0067 39.894 61.7425 39.7179 62.7202C39.6928 62.5832 39.6801 62.442 39.6801 62.2962C39.6801 61.117 40.5392 60.1602 41.5993 60.1602C42.6597 60.1602 43.5201 61.117 43.5201 62.2962Z" fill="white"/>
<path fill-rule="evenodd" clip-rule="evenodd" d="M43.5201 61.9812C43.5201 63.0972 42.6599 64.0004 41.5999 64.0004C40.5403 64.0004 39.6801 63.0972 39.6801 61.9812C39.6801 61.7943 39.7046 61.6117 39.7498 61.4404C39.9753 62.2918 40.7194 62.9173 41.5999 62.9173C42.4807 62.9173 43.2245 62.2918 43.4503 61.4404C43.4955 61.6117 43.5201 61.7943 43.5201 61.9812Z" fill="#E40046"/>
<path fill-rule="evenodd" clip-rule="evenodd" d="M41.5999 60.4142C40.6971 60.4142 39.9627 61.1612 39.9627 62.0794C39.9627 62.9978 40.6971 63.7448 41.5999 63.7448C42.5026 63.7448 43.2371 62.9978 43.2371 62.0794C43.2371 61.1612 42.5026 60.4142 41.5999 60.4142ZM41.5999 64.6395C40.1883 64.6395 39.04 63.4911 39.04 62.0794C39.04 60.6679 40.1883 59.5195 41.5999 59.5195C43.0115 59.5195 44.16 60.6679 44.16 62.0794C44.16 63.4911 43.0115 64.6395 41.5999 64.6395Z" fill="#371944"/>
<path fill-rule="evenodd" clip-rule="evenodd" d="M35.2324 68.4797C34.8967 68.4797 34.6248 68.2237 34.6248 67.9082V64.345C34.6248 63.6422 34.2835 62.9719 33.7122 62.5519L33.3788 62.3066C32.5153 61.6718 32 60.6649 32 59.6134V56.2511C32 55.9354 32.2719 55.6797 32.6076 55.6797C32.943 55.6797 33.2149 55.9354 33.2149 56.2511V59.6134C33.2149 60.3159 33.5562 60.9862 34.1274 61.4062L34.4609 61.6515C35.3243 62.2866 35.84 63.2932 35.84 64.345V67.9082C35.84 68.2237 35.5678 68.4797 35.2324 68.4797Z" fill="#371944"/>
<path fill-rule="evenodd" clip-rule="evenodd" d="M48 44.8002C48.0587 44.2798 48.1246 43.3564 48.042 42.2402C48.8147 42.5294 49.6729 42.8679 50.56 43.2485C49.7457 43.81 48.8911 44.3285 48 44.8002Z" fill="#D7D1DA"/>
<path fill-rule="evenodd" clip-rule="evenodd" d="M50.6973 43.5202C49.9752 43.1872 49.2766 42.891 48.6477 42.638C48.6453 42.6031 48.6427 42.5677 48.64 42.5323C48.811 42.4371 48.9797 42.3402 49.1478 42.2402C49.3651 42.3288 49.5901 42.4221 49.8206 42.5204C50.2623 42.7083 50.7259 42.9143 51.2 43.1355C51.0346 43.2661 50.8668 43.3943 50.6973 43.5202Z" fill="#371B45"/>
<path fill-rule="evenodd" clip-rule="evenodd" d="M25.5999 44.8002C25.162 44.4735 24.7351 44.1267 24.3199 43.76C24.7774 43.2492 25.1885 42.7264 25.5425 42.2402C25.4958 43.3908 25.555 44.3123 25.5999 44.8002Z" fill="#D7D1DA"/>
<path fill-rule="evenodd" clip-rule="evenodd" d="M24.1227 44.1602C23.9738 44.059 23.8262 43.9561 23.6801 43.8512C24.3191 43.3101 24.8844 42.7465 25.3517 42.2402C25.4341 42.287 25.5169 42.3335 25.6001 42.3797C25.5893 42.5128 25.5807 42.6436 25.5741 42.7707C25.1539 43.2152 24.6659 43.6932 24.1227 44.1602Z" fill="#371B45"/>
<path fill-rule="evenodd" clip-rule="evenodd" d="M25.632 44.8002C25.6222 44.7871 25.6125 44.7742 25.6027 44.761C25.5818 44.3493 25.5542 43.5718 25.5759 42.6011C25.5785 42.4838 25.5819 42.3631 25.5861 42.2402C25.5968 42.254 25.6074 42.2678 25.6181 42.2816C25.5789 43.4083 25.6087 44.3254 25.632 44.8002Z" fill="#B8B2BB"/>
<path fill-rule="evenodd" clip-rule="evenodd" d="M37.0425 48.0002C37.0173 48.0002 36.9924 48.0002 36.9672 48.0002C33.1276 47.9863 29.5183 47.0272 26.3726 45.349C26.1386 45.2251 25.9063 45.0951 25.6771 44.9632C25.6226 44.4821 25.5528 43.5528 25.6446 42.4113C27.6097 43.5075 29.7523 44.3238 32.0091 44.813C33.5821 45.1544 35.2154 45.3372 36.8917 45.3428C36.9194 45.3431 36.9446 45.3431 36.972 45.3431C38.8192 45.3431 40.6169 45.1274 42.3382 44.7211C44.5602 44.1975 46.6675 43.3551 48.5975 42.2402C48.6004 42.28 48.6032 42.3197 48.6058 42.3588C48.6785 43.4538 48.6204 44.3598 48.5688 44.8704C48.2443 45.0625 47.9135 45.2469 47.5775 45.4219C44.4413 47.0672 40.8525 48.0002 37.0425 48.0002Z" fill="#D7D1DA"/>
<path fill-rule="evenodd" clip-rule="evenodd" d="M57.1404 16.6396C57.1404 16.6396 61.7703 18.486 62.2436 19.3814C63.1213 21.0409 62.9248 30.7763 60.4728 33.3058C59.5129 34.2962 52.48 35.1996 52.48 35.1996L57.1404 16.6396Z" fill="white"/>
<path fill-rule="evenodd" clip-rule="evenodd" d="M56.3201 33.9202C57.2846 32.2618 58.0417 30.46 58.5542 28.5432C58.5587 28.5308 58.5624 28.518 58.5659 28.5053C58.5964 28.3904 58.6257 28.2754 58.6544 28.1602C59.4577 28.4693 60.1396 28.5774 60.7009 28.5774C61.2965 28.5774 61.7561 28.4556 62.0801 28.3226C61.7423 30.2609 61.1797 31.9885 60.3411 32.8086C60.0058 33.1364 58.3543 33.5523 56.3201 33.9202Z" fill="#D7D1DA"/>
<path fill-rule="evenodd" clip-rule="evenodd" d="M36.512 26.8477L36.5116 26.9117L36.448 26.8803L36.512 26.8477Z" fill="#D8D8D8"/>
<path fill-rule="evenodd" clip-rule="evenodd" d="M36.512 26.8805L36.448 26.9117L36.4484 26.8477L36.512 26.8805Z" fill="#D8D8D8"/>
<path fill-rule="evenodd" clip-rule="evenodd" d="M21.12 35.1996C21.12 35.1996 14.0383 34.2467 13.0781 33.2508C12.1203 32.2591 11.5151 30.1716 11.1892 27.8986L11.1879 27.8973C10.6777 24.3497 10.8412 20.3463 11.3875 19.3402C11.8704 18.45 16.5489 16.6396 16.5489 16.6396L21.12 35.1996Z" fill="white"/>
<path fill-rule="evenodd" clip-rule="evenodd" d="M17.28 33.9202C15.2343 33.5393 13.5756 33.1135 13.2403 32.7845C12.4009 31.9605 11.8468 30.2339 11.52 28.2984C11.8509 28.435 12.3229 28.5614 12.9377 28.5614C13.4969 28.5614 14.1738 28.457 14.9701 28.1602C14.9983 28.2754 15.0272 28.3904 15.0573 28.505C15.0605 28.5174 15.0643 28.5295 15.0684 28.5416C15.5705 30.4567 16.3208 32.2595 17.28 33.9202Z" fill="#D7D1DA"/>
<path fill-rule="evenodd" clip-rule="evenodd" d="M57.8895 17.4149L53.2926 34.5946C56.6573 34.1511 60.1656 33.4542 60.6812 32.955C63.0883 30.6245 63.3063 21.1788 62.4706 19.6955C62.2192 19.2887 60.0023 18.2397 57.8895 17.4149ZM51.8401 35.84L57.149 16L57.7133 16.2114C59.249 16.7861 62.8785 18.2262 63.419 19.1854C64.4531 21.0204 64.2855 30.9552 61.4433 33.7065C60.347 34.7677 53.911 35.5905 52.632 35.7447L51.8401 35.84Z" fill="#371B45"/>
<path fill-rule="evenodd" clip-rule="evenodd" d="M16.1132 17.4072C14.0914 18.2158 11.9687 19.2479 11.7257 19.6537C10.9185 21.1273 11.0619 30.5573 13.3433 32.8998C13.8318 33.4017 17.175 34.1212 20.3827 34.5867L16.1132 17.4072ZM21.76 35.84L21.0049 35.7391C19.7857 35.5766 13.6497 34.7115 12.6107 33.6446C9.91758 30.879 9.82511 20.9613 10.8248 19.1368C11.3468 18.1829 14.8202 16.7703 16.2894 16.2072L16.8295 16L21.76 35.84Z" fill="#371B45"/>
<path fill-rule="evenodd" clip-rule="evenodd" d="M58.88 22.7968C58.8375 34.9912 48.9175 44.842 36.7231 44.7998C24.5287 44.7569 14.6774 34.8371 14.72 22.6428C14.7625 10.4484 24.6824 0.597405 36.8769 0.639785C49.0713 0.682438 58.9226 10.6024 58.88 22.7968Z" fill="white"/>
<path fill-rule="evenodd" clip-rule="evenodd" d="M36.828 44.1601C36.803 44.1601 36.7771 44.1601 36.7518 44.1601C35.2065 44.1547 33.6928 43.9844 32.2295 43.6639C25.0402 42.0862 19.1836 36.8898 16.64 30.0801C19.7742 34.9923 24.7729 39.1912 30.6858 40.977C32.6233 41.5623 34.6592 41.8883 36.76 41.8959C36.7847 41.8959 36.8081 41.8959 36.8328 41.8959C45.3127 41.8959 52.7655 36.6979 56.96 30.2255C54.4018 36.9283 48.6288 42.0359 41.5562 43.6349C40.0283 43.9793 38.4448 44.1601 36.828 44.1601Z" fill="#D7D1DA"/>
<path fill-rule="evenodd" clip-rule="evenodd" d="M36.7977 1.05168C31.0389 1.05168 25.6202 3.28471 21.5317 7.34496C17.425 11.4232 15.1521 16.8567 15.132 22.6445C15.0904 34.5922 24.7766 44.3465 36.7246 44.3881C36.75 44.3881 36.7755 44.3881 36.8009 44.3881C48.7139 44.3881 58.4265 34.7178 58.4683 22.7956C58.5095 10.8478 48.8233 1.09352 36.8756 1.05168C36.8499 1.05168 36.8235 1.05168 36.7977 1.05168ZM36.8009 45.44C36.7736 45.44 36.7484 45.44 36.7208 45.44C24.1932 45.3961 14.0367 35.1687 14.0801 22.6407C14.1015 16.5721 16.4845 10.8749 20.7908 6.59854C25.0774 2.34159 30.7597 0 36.7977 0C36.8251 0 36.8518 0 36.8791 0C49.4068 0.0438809 59.5636 10.2714 59.5198 22.7994C59.4761 35.2994 49.2913 45.44 36.8009 45.44Z" fill="#371B45"/>
<path fill-rule="evenodd" clip-rule="evenodd" d="M36.7977 1.05168C31.0389 1.05168 25.6202 3.28471 21.5317 7.34496C17.425 11.4232 15.1521 16.8567 15.132 22.6445C15.0904 34.5922 24.7766 44.3465 36.7246 44.3881C36.75 44.3881 36.7755 44.3881 36.8009 44.3881C48.7139 44.3881 58.4265 34.7178 58.4683 22.7956C58.5095 10.8478 48.8233 1.09352 36.8756 1.05168C36.8499 1.05168 36.8235 1.05168 36.7977 1.05168ZM36.8009 45.44C36.7736 45.44 36.7484 45.44 36.7208 45.44C24.1932 45.3961 14.0367 35.1687 14.0801 22.6407C14.1015 16.5721 16.4845 10.8749 20.7908 6.59854C25.0774 2.34159 30.7597 0 36.7977 0C36.8251 0 36.8518 0 36.8791 0C49.4068 0.0438809 59.5636 10.2714 59.5198 22.7994C59.4761 35.2994 49.2913 45.44 36.8009 45.44Z" fill="#371B45"/>
<path fill-rule="evenodd" clip-rule="evenodd" d="M36.7977 1.05168C31.0389 1.05168 25.6202 3.28471 21.5317 7.34496C17.425 11.4232 15.1521 16.8567 15.132 22.6445C15.0904 34.5922 24.7766 44.3465 36.7246 44.3881C36.75 44.3881 36.7755 44.3881 36.8009 44.3881C48.7139 44.3881 58.4265 34.7178 58.4683 22.7956C58.5095 10.8478 48.8233 1.09352 36.8756 1.05168C36.8499 1.05168 36.8235 1.05168 36.7977 1.05168ZM36.8009 45.44C36.7736 45.44 36.7484 45.44 36.7208 45.44C24.1932 45.3961 14.0367 35.1687 14.0801 22.6407C14.1015 16.5721 16.4845 10.8749 20.7908 6.59854C25.0774 2.34159 30.7597 0 36.7977 0C36.8251 0 36.8518 0 36.8791 0C49.4068 0.0438809 59.5636 10.2714 59.5198 22.7994C59.4761 35.2994 49.2913 45.44 36.8009 45.44Z" fill="#371B45"/>
<path fill-rule="evenodd" clip-rule="evenodd" d="M15.8037 28.0876C18.2391 37.6513 26.8414 44.3538 36.7243 44.3884C36.7497 44.3884 36.7758 44.3884 36.8009 44.3884C46.6517 44.3884 55.2629 37.755 57.7603 28.2329C57.7641 28.2186 57.7683 28.2043 57.773 28.1903C58.2278 26.4408 58.4615 24.626 58.468 22.7957C58.4707 21.9855 58.4281 21.1708 58.3416 20.3749C57.1619 9.39729 47.9334 1.09043 36.8753 1.05167C36.8499 1.05167 36.8238 1.05167 36.7981 1.05167C25.7772 1.05167 16.5325 9.27855 15.2771 20.2181C15.1836 21.0112 15.1347 21.8268 15.1317 22.6447C15.1254 24.4778 15.3474 26.2942 15.791 28.0444C15.7957 28.0583 15.8002 28.073 15.8037 28.0876ZM36.8009 45.44C36.7739 45.44 36.7478 45.44 36.7208 45.44C26.3689 45.4041 17.3567 38.389 14.7922 28.3773C14.7881 28.3649 14.7842 28.3525 14.7811 28.3398C14.3092 26.4926 14.0735 24.5755 14.0801 22.6409C14.0831 21.7836 14.1343 20.9276 14.2325 20.0967C15.5487 8.62745 25.2433 0 36.7981 0C36.8257 0 36.8515 0 36.8791 0C48.4737 0.0406384 58.1502 8.75131 59.3874 20.2617C59.4781 21.0961 59.5226 21.9499 59.5198 22.7995C59.513 24.7306 59.2644 26.6462 58.7814 28.4924C58.7779 28.5054 58.774 28.5185 58.7696 28.5312C56.1399 38.4987 47.1181 45.44 36.8009 45.44Z" fill="#371B45"/>
<path fill-rule="evenodd" clip-rule="evenodd" d="M37.0803 2.61989C37.1093 2.61989 37.1383 2.61989 37.1673 2.62005C44.0617 2.64388 50.4115 5.50085 54.7696 10.2599C50.8523 4.63712 44.335 1.06351 37.1727 1.03855C37.1481 1.03855 37.1225 1.03839 37.0976 1.03839C29.968 1.03839 23.4596 4.55935 19.5161 10.1329C23.8893 5.42691 30.2228 2.61989 37.0803 2.61989ZM58.3584 17.28C58.155 17.28 57.963 17.1607 57.8788 16.9645C54.4297 8.91311 46.2984 3.69025 37.1635 3.65841C37.1364 3.65841 37.1074 3.65825 37.0803 3.65825C27.9845 3.65825 19.8582 8.81257 16.3596 16.8087C16.2505 17.0583 15.9658 17.1814 15.7079 17.091C15.45 17.0003 15.3062 16.7262 15.3787 16.4634C18.0588 6.76043 26.9837 0 37.0976 0C37.1241 0 37.1496 0 37.1764 0C47.3298 0.03551 56.2474 6.87261 58.8622 16.6269C58.9328 16.89 58.7872 17.1629 58.5286 17.2517C58.4722 17.2709 58.4151 17.28 58.3584 17.28Z" fill="#371B45"/>
<path fill-rule="evenodd" clip-rule="evenodd" d="M58.88 22.4478C58.8732 24.3515 58.6246 26.1998 58.1624 27.959L58.1602 27.9609C54.3042 35.3185 46.1471 41.6326 36.7326 41.5999C27.3181 41.567 19.2075 35.1966 15.4031 27.8125L15.4009 27.8106C14.9492 26.048 14.7135 24.1981 14.72 22.2946C14.723 21.4625 14.7723 20.6404 14.8679 19.8325C17.8754 11.634 26.592 5.72445 36.8582 5.75992C47.1262 5.79575 55.8034 11.7697 58.7511 19.991C58.8394 20.7973 58.8827 21.6178 58.88 22.4478Z" fill="#5D052F"/>
<path fill-rule="evenodd" clip-rule="evenodd" d="M36.8585 41.6001C36.8338 41.6001 36.8105 41.6001 36.7858 41.6001C34.688 41.5925 32.6548 41.271 30.72 40.6934C32.6548 41.271 34.687 41.5925 36.7849 41.5998C36.8095 41.5998 36.8329 41.5998 36.8575 41.5998C45.3277 41.5998 52.7718 36.4683 56.96 30.0801C56.9597 30.0813 56.9587 30.0835 56.9581 30.0848C52.7693 36.4711 45.3267 41.6001 36.8585 41.6001Z" fill="#92919C"/>
<path fill-rule="evenodd" clip-rule="evenodd" d="M56.9434 30.1071C56.9446 30.1046 56.9466 30.1001 56.9472 30.0975C56.9568 30.0822 56.9664 30.0681 56.9766 30.0527C56.9754 30.0559 56.9741 30.0591 56.9728 30.0623C56.9632 30.0764 56.953 30.0931 56.9434 30.1071Z" fill="#2A1B3B"/>
<path fill-rule="evenodd" clip-rule="evenodd" d="M56.96 30.0798C56.9606 30.0782 56.9612 30.0767 56.9618 30.0751C57.3989 29.3929 57.8007 28.6961 58.1636 27.9904L58.1658 27.9885C58.6251 26.2072 58.8723 24.3356 58.8789 22.4079C58.8817 21.5675 58.8386 20.7367 58.7509 19.9202C58.7415 19.8934 58.732 19.8666 58.7226 19.8398C58.733 19.867 58.7431 19.8934 58.7519 19.9209C58.8393 20.737 58.8827 21.5672 58.8798 22.4076C58.8798 22.4079 58.8798 22.4082 58.8798 22.4085C58.8732 24.3359 58.6261 26.2078 58.1667 27.9891L58.1645 27.991C57.8007 28.6987 57.3983 29.3961 56.96 30.0798Z" fill="#2A1B3B"/>
<path fill-rule="evenodd" clip-rule="evenodd" d="M36.7503 42.2405C36.7255 42.2405 36.7021 42.2405 36.6773 42.2405C34.5712 42.2332 32.5311 41.9099 30.5886 41.3292C23.8266 39.3085 18.2583 34.1736 15.2953 28.4252L15.2934 28.4233C15.0241 27.3709 14.8316 26.2885 14.72 25.1803C16.3006 26.9608 18.1124 28.5875 20.1085 29.9777C20.1173 30.0058 20.1224 30.0203 20.1224 30.0203C20.1224 30.0203 20.124 30.0105 20.1278 29.9913C24.3702 32.9406 29.4431 34.8212 34.8995 34.8401C34.927 34.8401 34.9553 34.8404 34.9829 34.8404C39.465 34.8404 43.6956 33.5838 47.4235 31.5087C47.5098 31.557 47.6018 31.5965 47.6991 31.6268C47.839 31.6697 47.9811 31.6906 48.1225 31.6906C48.8561 31.6906 49.5696 31.1352 49.8322 30.2937C49.8674 30.1807 49.8931 30.0673 49.9096 29.9549C53.5538 27.4148 56.5844 24.0894 58.7118 20.4805C58.7152 20.4896 58.7187 20.4985 58.7222 20.5073C58.7317 20.5338 58.7412 20.5604 58.7508 20.5869C58.8392 21.3949 58.8827 22.2171 58.88 23.0487C58.8732 24.9564 58.6239 26.8086 58.1606 28.5714L58.1583 28.5733C57.7924 29.2717 57.3871 29.9613 56.9462 30.6363C56.9412 30.6439 56.9364 30.6508 56.9317 30.6584C52.727 37.0812 45.2537 42.2405 36.7503 42.2405Z" fill="#470424"/>
<path fill-rule="evenodd" clip-rule="evenodd" d="M51.511 25.6003C51.3856 25.6003 51.2597 25.5907 51.134 25.5709C49.4106 25.3 48.3297 23.2309 48.7196 20.9498C49.0809 18.8351 50.5793 17.2803 52.1691 17.2803C52.2941 17.2803 52.42 17.2902 52.546 17.3099C54.2694 17.5809 55.3503 19.6497 54.9605 21.9311C54.5992 24.0458 53.1008 25.6006 51.511 25.6003Z" fill="#9B8DA2"/>
<path fill-rule="evenodd" clip-rule="evenodd" d="M47.5109 31.3602C46.8573 31.0198 46.5491 30.2048 46.8159 29.4087C47.0678 28.6566 47.753 28.1602 48.4575 28.1602C48.5933 28.1602 48.7301 28.1788 48.8641 28.2174C49.6014 28.4294 50.0227 29.1787 49.8984 29.9714C49.13 30.4698 48.3332 30.934 47.5109 31.3602Z" fill="#9B8DA2"/>
<path fill-rule="evenodd" clip-rule="evenodd" d="M48.0798 31.3604C47.9341 31.3604 47.7878 31.3374 47.6438 31.2899C47.5435 31.2563 47.4488 31.2127 47.36 31.1592C48.2417 30.6318 49.096 30.0573 49.92 29.4404C49.903 29.5648 49.8766 29.6902 49.8403 29.8152C49.5699 30.746 48.8351 31.3604 48.0798 31.3604Z" fill="#958D9D"/>
<path fill-rule="evenodd" clip-rule="evenodd" d="M20.2656 30.0799C20.2594 30.0754 20.2528 30.0706 20.2466 30.0661C20.0163 29.3259 17.0134 19.2725 22.3643 15.0617C26.5628 11.7576 32.2107 10.8799 34.6437 10.8799C35.4308 10.8799 35.8809 10.9717 35.837 11.103C35.837 11.103 26.9107 13.4874 23.5228 20.8301C21.0471 26.196 20.3334 29.7254 20.2656 30.0799Z" fill="#9B8DA2"/>
<path fill-rule="evenodd" clip-rule="evenodd" d="M20.4886 30.1119C20.4886 30.1119 20.4784 30.09 20.4604 30.0479C20.4732 30.0545 20.4867 30.0616 20.4995 30.0682C20.4918 30.0972 20.4886 30.1119 20.4886 30.1119Z" fill="#958D9D"/>
</g>
<defs>
<clipPath id="clip0_267_84">
<rect width="64" height="96" fill="white"/>
</clipPath>
</defs>
</svg>
