<svg height="190" viewBox="0 0 207 190" width="207" xmlns="http://www.w3.org/2000/svg" xmlns:xlink="http://www.w3.org/1999/xlink"><mask id="a" fill="#fff"><path d="m28.9475817 0h52.8288084zm60.0656314 0h10.1315523c5.9949846 0 10.8552346 4.85044444 10.8552346 10.8333333v69.3333334c0 5.9836111-4.86025 10.8333333-10.8552346 10.8333333h-88.2895308c-5.99520134 0-10.8552346-4.8497222-10.8552346-10.8333333v-69.3333334c0-5.98288886 4.86003326-10.8333333 10.8552346-10.8333333h10.8552346" fill="#fff" fill-rule="evenodd"/></mask><g fill="none" fill-rule="evenodd"><path d="m162.482685 59.2224331c22.085601 27.2778333 46.738909 52.8314839 44.357341 75.8662259-2.334673 22.988631-31.797292 43.459074-59.998782 51.200246-28.248387 7.693619-55.2363675 2.657246-82.6449644-8.067563-27.3611242-10.677976-55.14279249-27.045109-62.2866315-50.36013-7.09717442-23.268189 6.44343718-53.5311002 26.4742948-80.3434833 20.0307856-26.7652617 46.5513987-50.12682847 69.5244058-47.28239437 23.0184593 2.79781702 42.4894573 31.75494587 64.5743363 58.98709877z" fill="#f8f8f8"/><circle cx="31" cy="168" fill="#39bee8" fill-rule="nonzero" r="2"/><circle cx="92.5" cy="26.5" fill="#ff9f67" fill-rule="nonzero" r="3.5"/><circle cx="190.5" cy="144.5" fill="#b3db64" fill-rule="nonzero" r="3.5"/><path d="m155.349475 53.1591826c-.95959 0-1.911244.0331074-2.85424.0964435-.595955.0403047-1.112547-.4088053-1.152951-1.0040199-.040403-.594495.410532-1.1098199 1.006488-1.1501246.991336-.0669347 1.992051-.1014816 3.000703-.1014816 1.152951 0 2.295801.0446231 3.426386.1324299.595956.0460625 1.04184.5657058.995665 1.1602007-.046176.594495-.567097 1.0385669-1.163053.9925043-1.075029-.0834884-2.162324-.1259523-3.258998-.1259523zm-7.667341-.4066461c.121933.583699-.253245 1.1558824-.838379 1.2775164-1.880219.390812-3.71282.9082961-5.489865 1.5430958-.562767.200804-1.182533-.0906857-1.38383-.6520731-.201297-.5613875.090909-1.1796335.653676-1.3804374 1.870839-.6686269 3.800121-1.2134606 5.778463-1.6244251.585134-.1216339 1.158002.2526244 1.279935.8363234zm16.556175.240389c.139249-.5801004.722939-.9370852 1.304465-.7988975 2.243854.536197 4.42133 1.2444089 6.515833 2.1109608.551945.2281536.813848.8600744.585134 1.4106659-.229436.5505916-.862188.8118527-1.414854.5836991-1.989887-.8233683-4.057696-1.4963136-6.189717-2.0051609-.581526-.1389074-.94011-.721167-.800861-1.3012674zm-27.651345 3.4079099c.277054.52828.072871 1.1810728-.456707 1.4574482-.844872.441193-1.671707.9104553-2.481226 1.4070673-.508655.3123618-1.175317.1540217-1.488447-.3541059-.313129-.5081277-.1544-1.1731559.354976-1.4855177.851366-.5218024 1.721491-1.0155355 2.610374-1.4797597.529578-.2770951 1.183975-.0726925 1.46103.4548678zm40.084169 1.3660428c.313129-.5081276.979792-.6671874 1.489168-.3548257 1.953091 1.1961872 3.80445 2.5420776 5.538206 4.020398.454542.3879331.507933 1.0687954.119768 1.5222237-.388886.4534283-1.072143.5066882-1.525964.1194748-1.648619-1.4063476-3.408349-2.6853034-5.264759-3.8224729-.509376-.311642-.668827-.9766703-.356419-1.4847979zm10.344814 8.3776284c.454542-.3872134 1.137078-.3339536 1.525964.1194748 1.481954 1.7295052 2.831152 3.576326 4.030279 5.5246285.313129.5081276.153678 1.1731558-.355698 1.4855176-.509376.311642-1.176039.1525822-1.488447-.3555454-1.139964-1.851859-2.422063-3.6072744-3.831867-5.2518518-.388165-.4527086-.334774-1.1342906.119769-1.5222237zm7.256809 11.1471399c.551945-.2281536 1.185419.0331075 1.414133.583699.868682 2.089369 1.579355 4.2615067 2.116149 6.4998593.138527.5801004-.219335 1.16236-.800861 1.3012674s-1.165217-.2187972-1.304465-.7988976c-.510098-2.1267948-1.184697-4.1895339-2.010089-6.1745424-.228714-.5513113.033189-1.1825123.585133-1.4113857zm3.431437 12.8406588c.595956-.0460626 1.116876.398729 1.163052.993224.088022 1.127813.132755 2.2678614.132755 3.417986 0 1.2292946-.051226 2.4470736-.151514 3.6511777-.049783.594495-.572868 1.035688-1.168103.9867465-.595956-.0496612-1.038233-.5714637-.989171-1.1652389.095237-1.1450865.144299-2.3031281.144299-3.4726853 0-1.0939858-.042568-2.1786152-.126262-3.2510092-.046175-.594495.398988-1.1141382.994944-1.1602008zm-.850644 13.9497587c.57864.148264.927844.737001.779216 1.314223-.612551 2.383737-1.422791 4.688305-2.411963 6.895709-.243865.544114-.883832.788102-1.429284.544834-.546172-.243268-.79076-.881666-.546894-1.42578.939388-2.097286 1.709225-4.286698 2.291472-6.55168.148629-.577222.738813-.92557 1.317453-.777306zm-5.470385 13.105519c.497111.330355.631309 1.001141.299421 1.497033-1.359299 2.031791-2.884542 3.942667-4.556971 5.713197-.410531.433996-1.095231.454868-1.530293.045343-.435063-.408805-.455265-1.091827-.045455-1.525822 1.590178-1.683443 3.040386-3.500035 4.332585-5.431064.331889-.495893 1.003602-.629762 1.500713-.298687zm-9.49417 10.576396c.360748.47502.266954 1.152283-.209234 1.512147-1.941546 1.466805-4.009355 2.77527-6.185387 3.906681-.529579.274936-1.183254.069814-1.459587-.458466-.276334-.529-.070707-1.181073.459593-1.456729 2.067087-1.074553 4.033164-2.318242 5.87803-3.712354.476909-.359864 1.155837-.266299 1.516585.208721zm-12.450861 6.876996c.18326.567865-.129148 1.176035-.698409 1.358846-1.156558.371379-2.334762.696696-3.531724.972352-.582969.133869-1.163773-.228154-1.297972-.808974-.13492-.58154.228715-1.160921.810962-1.29479 1.137078-.261981 2.256119-.570744 3.355679-.92413.568539-.182811 1.178204.129551 1.361464.696696z" fill="#0d0938"/><path d="m19.673664 56.1944434h9.9713697c.8059023 0 1.4592152.6533129 1.4592152 1.4592151 0 .8059023-.6533129 1.4592152-1.4592152 1.4592152h-9.9713697c-.8059023 0-1.4592151-.6533129-1.4592151-1.4592152 0-.8059022.6533128-1.4592151 1.4592151-1.4592151z" fill="#0d0938" fill-rule="nonzero" transform="matrix(-.76604407 -.64278805 -.64278805 .76604407 80.60858 29.33915)"/><path d="m27.3817851 49.5508707h9.9713671c.805902 0 1.4592147.6533127 1.4592147 1.4592148 0 .805902-.6533127 1.4592147-1.4592147 1.4592147h-9.9713671c-.8059021 0-1.4592148-.6533127-1.4592148-1.4592147 0-.8059021.6533127-1.4592148 1.4592148-1.4592148z" fill="#0d0938" fill-rule="nonzero" transform="matrix(-.50000018 -.8660253 -.8660253 .50000018 92.727233 53.53608)"/><path d="m15.3239175 66.1313272h9.9713706c.8059024 0 1.4592153.653313 1.4592153 1.4592153 0 .8059024-.6533129 1.4592153-1.4592153 1.4592153h-9.9713706c-.8059023 0-1.4592153-.6533129-1.4592153-1.4592153 0-.8059023.653313-1.4592153 1.4592153-1.4592153z" fill="#0d0938" fill-rule="nonzero" transform="matrix(-.98162718 -.190809 .190809 -.98162718 27.349178 137.814512)"/><path d="m58.9472922 65h52.8290978zm60.0659208 0h10.131552c5.994985 0 10.855235 4.8504444 10.855235 10.8333333v69.3333337c0 5.983611-4.86025 10.833333-10.855235 10.833333h-88.2895304c-5.9952013 0-10.8552346-4.849722-10.8552346-10.833333v-69.3333337c0-5.9828889 4.8600333-10.8333333 10.8552346-10.8333333h10.8552346" fill="#ff6d5a"/><g fill="#0d0938"><path d="m28.9475817 2.16666667h52.8288084v-4.33333334h-52.8288084zm60.0656314 0h10.1315523v-4.33333334h-10.1315523zm10.1315523 0c4.7958426 0 8.6841876 3.8805 8.6841876 8.66666663h4.342094c0-7.17961108-5.832156-12.99999997-13.0262816-12.99999997zm8.6841876 8.66666663v69.3333334h4.342094v-69.3333334zm0 69.3333334c0 4.7868889-3.888345 8.6666666-8.6841876 8.6666666v4.3333334c7.1941256 0 13.0262816-5.8196667 13.0262816-13zm-8.6841876 8.6666666h-88.2895308v4.3333334h88.2895308zm-88.2895308 0c-4.79620449 0-8.68418768-3.8797777-8.68418768-8.6666666h-4.34209384c0 7.1803333 5.83201097 13 13.02628152 13zm-8.68418768-8.6666666v-69.3333334h-4.34209384v69.3333334zm0-69.3333334c0-4.78616663 3.88798319-8.66666663 8.68418768-8.66666663v-4.33333334c-7.19427055 0-13.02628152 5.82038889-13.02628152 12.99999997zm8.68418768-8.66666663h10.8552346v-4.33333334h-10.8552346z" fill-rule="nonzero" mask="url(#a)" transform="translate(37 60)"/><path d="m38 76h107v2h-107z" fill-rule="nonzero"/><path d="m60.3334311 109.2h-3.6668622c-.8100184 0-1.4666276.657067-1.4666276 1.466667v3.666666c0 .810334.6566092 1.466667 1.4666276 1.466667h3.6668622c.8095784 0 1.4666276-.656333 1.4666276-1.466667v-3.666666c0-.8096-.6570492-1.466667-1.4666276-1.466667zm-3.6668622-2.2c-2.025046 0-3.6665689 1.641933-3.6665689 3.666667v3.666666c0 2.025467 1.6415229 3.666667 3.6665689 3.666667h3.6668622c2.0246794 0 3.6665689-1.6412 3.6665689-3.666667v-3.666666c0-2.024734-1.6418895-3.666667-3.6665689-3.666667z"/><path d="m60.3334311 129.2h-3.6668622c-.8100184 0-1.4666276.657067-1.4666276 1.466667v3.666666c0 .810334.6566092 1.466667 1.4666276 1.466667h3.6668622c.8095784 0 1.4666276-.656333 1.4666276-1.466667v-3.666666c0-.8096-.6570492-1.466667-1.4666276-1.466667zm-3.6668622-2.2c-2.025046 0-3.6665689 1.641933-3.6665689 3.666667v3.666666c0 2.025467 1.6415229 3.666667 3.6665689 3.666667h3.6668622c2.0246794 0 3.6665689-1.6412 3.6665689-3.666667v-3.666666c0-2.024734-1.6418895-3.666667-3.6665689-3.666667z"/><path d="m83.3333333 88.2h-3.6666666c-.8103334 0-1.4666667.6570667-1.4666667 1.4666667v3.6666666c0 .8103334.6563333 1.4666667 1.4666667 1.4666667h3.6666666c.8096 0 1.4666667-.6563333 1.4666667-1.4666667v-3.6666666c0-.8096-.6570667-1.4666667-1.4666667-1.4666667zm-3.6666666-2.2c-2.0254667 0-3.6666667 1.6419333-3.6666667 3.6666667v3.6666666c0 2.0254667 1.6412 3.6666667 3.6666667 3.6666667h3.6666666c2.0247334 0 3.6666667-1.6412 3.6666667-3.6666667v-3.6666666c0-2.0247334-1.6419333-3.6666667-3.6666667-3.6666667z"/><path d="m83.3333333 109.2h-3.6666666c-.8103334 0-1.4666667.657067-1.4666667 1.466667v3.666666c0 .810334.6563333 1.466667 1.4666667 1.466667h3.6666666c.8096 0 1.4666667-.656333 1.4666667-1.466667v-3.666666c0-.8096-.6570667-1.466667-1.4666667-1.466667zm-3.6666666-2.2c-2.0254667 0-3.6666667 1.641933-3.6666667 3.666667v3.666666c0 2.025467 1.6412 3.666667 3.6666667 3.666667h3.6666666c2.0247334 0 3.6666667-1.6412 3.6666667-3.666667v-3.666666c0-2.024734-1.6419333-3.666667-3.6666667-3.666667z"/><path d="m83.3333333 129.2h-3.6666666c-.8103334 0-1.4666667.657067-1.4666667 1.466667v3.666666c0 .810334.6563333 1.466667 1.4666667 1.466667h3.6666666c.8096 0 1.4666667-.656333 1.4666667-1.466667v-3.666666c0-.8096-.6570667-1.466667-1.4666667-1.466667zm-3.6666666-2.2c-2.0254667 0-3.6666667 1.641933-3.6666667 3.666667v3.666666c0 2.025467 1.6412 3.666667 3.6666667 3.666667h3.6666666c2.0247334 0 3.6666667-1.6412 3.6666667-3.666667v-3.666666c0-2.024734-1.6419333-3.666667-3.6666667-3.666667z"/><path d="m105.333333 88.2h-3.666666c-.810334 0-1.466667.6570667-1.466667 1.4666667v3.6666666c0 .8103334.656333 1.4666667 1.466667 1.4666667h3.666666c.8096 0 1.466667-.6563333 1.466667-1.4666667v-3.6666666c0-.8096-.657067-1.4666667-1.466667-1.4666667zm-3.666666-2.2c-2.025467 0-3.666667 1.6419333-3.666667 3.6666667v3.6666666c0 2.0254667 1.6412 3.6666667 3.666667 3.6666667h3.666666c2.024734 0 3.666667-1.6412 3.666667-3.6666667v-3.6666666c0-2.0247334-1.641933-3.6666667-3.666667-3.6666667z"/><path d="m105.333333 109.2h-3.666666c-.810334 0-1.466667.657067-1.466667 1.466667v3.666666c0 .810334.656333 1.466667 1.466667 1.466667h3.666666c.8096 0 1.466667-.656333 1.466667-1.466667v-3.666666c0-.8096-.657067-1.466667-1.466667-1.466667zm-3.666666-2.2c-2.025467 0-3.666667 1.641933-3.666667 3.666667v3.666666c0 2.025467 1.6412 3.666667 3.666667 3.666667h3.666666c2.024734 0 3.666667-1.6412 3.666667-3.666667v-3.666666c0-2.024734-1.641933-3.666667-3.666667-3.666667z"/><path d="m105.333333 129.2h-3.666666c-.810334 0-1.466667.657067-1.466667 1.466667v3.666666c0 .810334.656333 1.466667 1.466667 1.466667h3.666666c.8096 0 1.466667-.656333 1.466667-1.466667v-3.666666c0-.8096-.657067-1.466667-1.466667-1.466667zm-3.666666-2.2c-2.025467 0-3.666667 1.641933-3.666667 3.666667v3.666666c0 2.025467 1.6412 3.666667 3.666667 3.666667h3.666666c2.024734 0 3.666667-1.6412 3.666667-3.666667v-3.666666c0-2.024734-1.641933-3.666667-3.666667-3.666667z"/><path d="m127.333333 88.2h-3.666666c-.810334 0-1.466667.6570667-1.466667 1.4666667v3.6666666c0 .8103334.656333 1.4666667 1.466667 1.4666667h3.666666c.8096 0 1.466667-.6563333 1.466667-1.4666667v-3.6666666c0-.8096-.657067-1.4666667-1.466667-1.4666667zm-3.666666-2.2c-2.025467 0-3.666667 1.6419333-3.666667 3.6666667v3.6666666c0 2.0254667 1.6412 3.6666667 3.666667 3.6666667h3.666666c2.024734 0 3.666667-1.6412 3.666667-3.6666667v-3.6666666c0-2.0247334-1.641933-3.6666667-3.666667-3.6666667z"/><path d="m127.333333 109.2h-3.666666c-.810334 0-1.466667.657067-1.466667 1.466667v3.666666c0 .810334.656333 1.466667 1.466667 1.466667h3.666666c.8096 0 1.466667-.656333 1.466667-1.466667v-3.666666c0-.8096-.657067-1.466667-1.466667-1.466667zm-3.666666-2.2c-2.025467 0-3.666667 1.641933-3.666667 3.666667v3.666666c0 2.025467 1.6412 3.666667 3.666667 3.666667h3.666666c2.024734 0 3.666667-1.6412 3.666667-3.666667v-3.666666c0-2.024734-1.641933-3.666667-3.666667-3.666667z"/><path d="m63.750075 56.25h-4.50015v7.5h4.50015zm-4.50015-2.25c-1.2426336 0-2.249925 1.008-2.249925 2.25v7.5c0 1.24275 1.0072914 2.25 2.249925 2.25h4.50015c1.2419586 0 2.249925-1.00725 2.249925-2.25v-7.5c0-1.242-1.0079664-2.25-2.249925-2.25z"/><path d="m123.75 56.25h-4.5v7.5h4.5zm-4.5-2.25c-1.24275 0-2.25 1.008-2.25 2.25v7.5c0 1.24275 1.00725 2.25 2.25 2.25h4.5c1.242 0 2.25-1.00725 2.25-2.25v-7.5c0-1.242-1.008-2.25-2.25-2.25z"/></g><circle cx="139.5" cy="145.5" fill="#f8f8f8" fill-rule="nonzero" r="28.5"/><circle cx="142.5" cy="146.5" fill="#e8efff" fill-rule="nonzero" r="22.5"/><path d="m138.5 164.822581c11.223871 0 20.322581-9.09871 20.322581-20.322581s-9.09871-20.322581-20.322581-20.322581-20.322581 9.09871-20.322581 20.322581 9.09871 20.322581 20.322581 20.322581zm0 2.177419c12.425806 0 22.5-10.073468 22.5-22.5s-10.074194-22.5-22.5-22.5c-12.426532 0-22.5 10.073468-22.5 22.5s10.073468 22.5 22.5 22.5z" fill="#0d0938"/><path d="m138.668101 133.271029c.596891 0 1.080767.483876 1.080767 1.080767v20.894825c0 .596891-.483876 1.080767-1.080767 1.080767s-1.080766-.483876-1.080766-1.080767v-20.894825c0-.596891.483875-1.080767 1.080766-1.080767z" fill="#0d0938" fill-rule="nonzero" transform="matrix(.70710678 .70710678 -.70710678 .70710678 143.003448 -55.642448)"/><path d="m138.668173 133.271028c.596892 0 1.080767.483876 1.080767 1.080768v20.894831c0 .596891-.483875 1.080767-1.080767 1.080767-.596891 0-1.080767-.483876-1.080767-1.080767v-20.894831c0-.596892.483876-1.080768 1.080767-1.080768z" fill="#0d0938" fill-rule="nonzero" transform="matrix(-.70710678 .70710678 .70710678 .70710678 134.332874 -55.642498)"/></g></svg>