<svg height="207" viewBox="0 0 190 207" width="190" xmlns="http://www.w3.org/2000/svg"><g fill="none" fill-rule="evenodd"><path d="m153.982685 67.7224331c22.085601 27.2778333 46.738909 52.8314839 44.357341 75.8662259-2.334673 22.988631-31.797292 43.459074-59.998782 51.200246-28.248387 7.693619-55.2363675 2.657246-82.6449644-8.067563-27.3611242-10.677976-55.14279249-27.045109-62.2866315-50.36013-7.0971744-23.268189 6.44343718-53.5311002 26.4742948-80.3434833 20.0307856-26.7652617 46.5513987-50.12682847 69.5244058-47.28239437 23.0184593 2.79781707 42.4894573 31.75494587 64.5743363 58.98709877z" fill="#f8f8f8" transform="matrix(0 -1 1 0 -8.5 198.5)"/><g fill-rule="nonzero"><circle cx="36.5" cy="147.5" fill="#39bee8" r="2"/><circle cx="173" cy="132" fill="#ff9f67" r="3.5"/><circle cx="121" cy="38" fill="#b3db64" r="3.5"/></g><path d="m143.364931 74.7438081c-.03923-.0021679-.078459-.0050584-.117689-.0072263-2.278186-.1336868-4.553376-.0722631-6.82664.1842709-.290943.0332411-.551358-.0426352-.781245-.2261835-.229816-.1835483-.36284-.4227392-.399003-.71685-.000286-.0028906-.000571-.0050585-.000856-.0072264-.000214-.0021678-.0005-.0043357-.000785-.0065036-.032739-.297724.043153-.5636523.227605-.7970621.184523-.2341325.42354-.3678192.717193-.4003376 2.434535-.2753225 4.871851-.3374688 7.311236-.1864389.295293.0180658.540658.1394678.736095.3634835.196149.2240156.285308.4856081.266763.7840547-.017832.2991693-.137662.5477544-.358775.7457553-.221114.1987235-.479318.2883298-.773899.270264zm-21.666087 3.5849728c.000999.0021679.001997.0036132.003067.0057811.000999.0021679.002069.0043358.003067.0065037.062768.1264604.14672.2355777.251856.3287971.105065.0924968.223539.162592.355423.2081178.134166.046971.272041.0657594.413697.0570878.141584-.0086716.276107-.0448031.403639-.107672 2.086316-1.0319172 4.246527-1.8752277 6.480775-2.5320993.281171-.08238.493155-.2529209.635952-.5123455.142868-.2587019.175322-.5311338.097361-.8172957-.00057-.0021679-.001212-.0043358-.001854-.0065037s-.001213-.0043358-.001855-.0065037c-.039515-.1380225-.103638-.2630377-.192297-.3757682-.08866-.1120078-.19508-.2030593-.319403-.2724319s-.25692-.1112852-.397934-.1271831c-.141013-.0158978-.279673-.0043358-.415907.0361316-2.352224.6908353-4.626629 1.5796715-6.823288 2.6657861-.26555.1307962-.446364.3381913-.542513.6214627-.096078.2825488-.079387.5585938.050214.8281352zm-11.276234 8.7366099c.001712.0021679.003352.0036131.004993.0050584.001712.0014453.003352.0036131.005064.0050584.101285.0968326.216977.1712636.346935.2225704s.264695.0758762.404139.0737084c.141869-.0021679.27789-.0317958.408205-.0888837.130243-.0563652.244794-.1365772.343582-.2399135 1.617412-1.6880662 3.365709-3.2214894 5.245034-4.6002695.114908-.0845478.209558-.1878841.283881-.3100087.074252-.1228473.122611-.2550888.145008-.3967245.02204-.1394678.017333-.278213-.014123-.4155129-.031455-.1380225-.087375-.2644829-.167689-.3801039-.001356-.0014453-.002711-.0036132-.004066-.0057811-.001355-.0014452-.002711-.0036131-.004066-.005781-.173324-.2420814-.405779-.3873303-.697578-.4343013-.291728-.046971-.557207.0166205-.796509.1922199-1.979754 1.4532111-3.821489 3.0682916-5.525207 4.845964-.205778.2153441-.306492.4718781-.302141.7710474.004422.2998919.112554.5535354.324538.7616532zm-7.719511 12.1120196c.00214.0007227.004208.0021679.006348.0028906.002068.0007226.004208.0021678.006277.0028905.267904.1192341.538661.1264604.812201.0209563.27361-.1055042.471115-.2933882.592585-.5629296.83203-1.8484904 1.798368-3.6312213 2.899087-5.3481927.171399-.2673735.345722-.5325791.52297-.7956168.164979-.244972.221328-.5137907.168831-.8057337s-.198574-.5224623-.438233-.6930032c-.001855-.0014453-.003781-.0028905-.005635-.0036132-.001855-.0014452-.003709-.0028905-.005635-.0043358-.24401-.168373-.511201-.2254609-.801502-.1698183s-.518761.2066725-.68531.454535c-.186378.2760451-.369759.5557033-.550074.8368068-1.158351 1.8073003-2.175475 3.6832506-3.051371 5.6292962-.058845.1307962-.090799.2680961-.095792.411177-.004993.1438036.017332.2832714.066976.4176808.049644.135132.122825.2543662.219545.3598703.096719.1047815.20963.1878841.338732.2471398zm-3.2195601 14.0204886c.0022825.000722.004565.000722.0068474.000722.0023538 0 .0046363.000723.0069187.000723.1391591.009394.2749658-.007949.4074914-.052029.1324546-.044081.2518556-.112008.3582046-.20306.108132-.093219.19458-.203782.259345-.331687.064765-.127906.102925-.263761.114408-.406842.188732-2.346383.574968-4.657357 1.158851-6.931477.073681-.286885.037233-.559317-.109344-.815851-.146578-.256534-.361058-.424184-.64337-.502951-.002212 0-.004494-.000722-.006705-.001445-.002283-.000723-.004494-.001445-.006776-.002168-.285879-.075154-.55628-.036854-.81106.114898-.2547088.15103-.4193316.372155-.4936544.66193-.615053 2.395522-1.0219024 4.829344-1.2206909 7.301465-.0239659.297724.0596294.561484.2509285.789113.1912278.228352.4340964.354812.7286057.378659zm1.1864541 6.03975c-.026534-.295556-.15157-.539082-.375323-.729857-.223682-.191497-.4814575-.276045-.7733277-.252921-.0022825.000723-.004565.000723-.0068474.000723-.0022825 0-.004565.000722-.0068474.000722-.1412989.013008-.2747518.052752-.40043.119957-.1256069.066482-.2338101.155366-.3246807.265206-.0907993.110562-.1573475.234855-.1995017.372155-.0422256.136577-.056919.276767-.0440801.420571.2213991 2.467063.648862 4.897271 1.2823175 7.291348.0764625.289052.2426545.508732.4985755.658317.255851.149584.526465.185716.811845.108394.002211-.000722.004422-.001445.006633-.002168.002211-.000722.004422-.001445.006634-.002167.134237-.0383.25642-.100446.366549-.187162s.200073-.191497.269759-.313622c.070971-.125015.115693-.257979.134166-.40106.018545-.142358.009415-.282549-.027318-.422017-.601786-2.27412-1.00778-4.582926-1.218123-6.926419zm6.888195 21.095047c-.001284.000723-.002568.001445-.003852.002168-.001284.001445-.002568.002168-.003852.002891-.243439.169818-.510416.227628-.800931.172708-.290515-.054197-.519475-.204504-.686951-.451644-1.046653-1.541372-2.073477-3.199088-3.080543-4.973147-.004779-.007949-.009487-.016621-.01398-.025292-.004565-.008672-.009059-.017343-.013338-.026015-.22197-.444418-.436308-.893172-.643014-1.345539-.124109-.271709-.135236-.547754-.033381-.828858.101855-.281103.286806-.484163.554925-.609901.002068-.000722.004137-.002167.006276-.00289.002069-.000723.004137-.002168.006277-.002891.127319-.05781.2607-.088883.400074-.093942.139444-.005058.274609.017343.405565.06576.133168.049861.251927.122847.356279.220402.104351.097555.186306.211731.245864.341805.192298.420571.391514.838252.597649 1.251597.973828 1.714081 1.965345 3.313986 2.97448 4.800438.080386.118512.135379.247863.164908.388776.02953.140913.031384.281826.005564.422739-.025464.14019-.076177.269541-.151998.388775-.075821.119957-.171185.220403-.286093.30206zm3.871203 3.727331c-.139515-.005781-.274894.015176-.406279.062869-.131384.047694-.249074.118512-.353068.213176-.001641.001446-.003281.002891-.004922.004336-.00164.001445-.003281.002891-.004922.004336-.217618.202337-.332669.45309-.345222.752259-.012554.299169.08117.559316.280957.779719 1.763632 1.945323 3.579191 3.595812 5.446889 4.951468.115336.083825.242084.141636.380245.174154.13816.033241.277248.037577.417263.01373.139943-.023124.270187-.072986.390658-.148862s.222041-.171986.304709-.289052c.001926-.002891.003923-.005781.005849-.007949.001926-.002891.003923-.005781.005777-.008672.165265-.243527.222755-.510177.17254-.801398-.050214-.290497-.193795-.522462-.430744-.694448-1.747655-1.268218-3.453441-2.820429-5.117215-4.655912-.095935-.105504-.208275-.188607-.336949-.249308s-.263839-.093942-.405566-.100446zm11.051697 8.248111c-.123253.061424-.230814.143804-.322755.24714-.092012.103337-.161698.220403-.209202.350476-.001569.004336-.003067.008672-.004494.013008-.001498.004336-.002924.007949-.004351.012284-.095364.283272-.07796.559317.052354.828136.130315.268818.335237.450922.614839.547754 2.300939.794894 4.666572 1.193064 7.096898 1.193064.295437 0 .547578-.106227.756495-.317958.208916-.211731.313411-.466819.313411-.765989 0-.264483-.083952-.49717-.251714-.698784-.167832-.201614-.38003-.325184-.636665-.369987-.029957-.005058-.060128-.008672-.090442-.011562-.030314-.002891-.0607-.003613-.091085-.003613-2.193734 0-4.329052-.359148-6.406095-1.076721-.134309-.046248-.272184-.065036-.413768-.056365-.141585.009394-.276107.045526-.403426.109117z" fill="#0d0938" transform="matrix(-.82903757 .5591929 -.5591929 -.82903757 285.976056 140.568345)"/><g fill="#0d0938" fill-rule="nonzero" transform="matrix(-.5 -.8660254 .8660254 -.5 24.728423 86.374079)"><path d="m11.366083 21.2532232h10.087155c.7958545 0 1.4410221.6451676 1.4410221 1.4410222 0 .7958545-.6451676 1.4410221-1.4410221 1.4410221h-10.087155c-.7958545 0-1.44102211-.6451676-1.44102211-1.4410221 0-.7958546.64516761-1.4410222 1.44102211-1.4410222z" transform="matrix(.98162718 -.190809 -.190809 -.98162718 4.63175 48.102562)"/><path d="m-.55331599 4.8953178h10.08715674c.79585465 0 1.44102235.6451677 1.44102235 1.44102239s-.6451677 1.44102239-1.44102235 1.44102239h-10.08715674c-.79585469 0-1.44102239-.6451677-1.44102239-1.44102239s.6451677-1.44102239 1.44102239-1.44102239z" transform="matrix(.5 -.8660254 .8660254 .5 -3.242247 7.056864)"/><path d="m7.09845844 11.4280696h10.08715676c.7958547 0 1.4410224.6451677 1.4410224 1.4410224s-.6451677 1.4410224-1.4410224 1.4410224h-10.08715676c-.7958547 0-1.4410224-.6451677-1.4410224-1.4410224s.6451677-1.4410224 1.4410224-1.4410224z" transform="matrix(.76604444 -.64278761 .64278761 .76604444 -5.43141 10.815525)"/></g><circle cx="80" cy="100" fill="#ff6d5a" fill-rule="nonzero" r="36.5"/><g fill="#0d0938" transform="translate(35.5 63.5)"><path d="m67.0535351 63.3750921h.5170716c.8284272 0 1.5.6715728 1.5 1.5v11.0682864c0 .8284271-.6715728 1.5-1.5 1.5h-.5170716c-.8284271 0-1.5-.6715729-1.5-1.5v-11.0682864c0-.8284272.6715729-1.5 1.5-1.5z" fill-rule="nonzero" transform="matrix(.70710678 -.70710678 .70710678 .70710678 -30.071565 68.21922)"/><path d="m73.7480963 74.3335667-2.4156674 2.4145296c-.8875274.8886652-1.3324289 1.961663-1.3324289 3.2178556 0 1.2561925.4449015 2.3291903 1.3324289 3.2178555l14.4849015 14.4837637c.8886652.8886652 1.9605252 1.3324289 3.2167177 1.3324289 1.2573305 0 2.3291904-.4437637 3.2178556-1.3324289l2.4156674-2.4156674c.8886652-.8875273 1.3324289-1.9605251 1.3324289-3.2167177 0-1.2573304-.4437637-2.3291904-1.3324289-3.2178556l-14.4837637-14.4837637c-.8886652-.8886652-1.961663-1.3335667-3.2178555-1.3335667-1.2561926 0-2.3291904.4449015-3.2178556 1.3335667zm-.0011379 6.4357112c-.53593-.5347921-.53593-1.0707221 0-1.6066521l2.4145296-2.4156674c.5359299-.53593 1.0718599-.53593 1.6077899 0l14.4849015 14.4837637c.53593.53593.53593 1.07186 0 1.6077899l-2.4156674 2.4156674c-.5359299.53593-1.0718599.53593-1.6077899 0z"/><path d="m62.3087681 13.690379c14.2549759 14.2538387 14.2549759 37.3642258 0 51.619242-14.2537985 14.2538387-37.3641204 14.2538387-51.6181543 0-14.25415173-14.2550162-14.25415173-37.3654033 0-51.619242 14.2540339-14.25383868 37.3643558-14.25383868 51.6181543 0zm7.1586895 25.8090323c0 9.1038064-3.2190555 16.8747742-9.6559889 23.3117258-6.4369335 6.438129-14.2078793 9.6560161-23.31166 9.6560161-9.1037808 0-16.8742556-3.2178871-23.3115423-9.6560161-6.43728666-6.4369516-9.65598887-14.2079194-9.65598887-23.3117258 0-9.1038065 3.21870221-16.8735968 9.65598887-23.3117258 6.4372867-6.43695163 14.2077615-9.65601615 23.3115423-9.65601615 9.1037807 0 16.8747265 3.21906452 23.31166 9.65601615 6.4369334 6.438129 9.6559889 14.2079193 9.6559889 23.3117258z"/></g></g></svg>