<svg height="190" viewBox="0 0 207 190" width="207" xmlns="http://www.w3.org/2000/svg"><g fill="none" fill-rule="evenodd"><path d="m162.482685 59.2224331c22.085601 27.2778333 46.738909 52.8314839 44.357341 75.8662259-2.334673 22.988631-31.797292 43.459074-59.998782 51.200246-28.248387 7.693619-55.2363675 2.657246-82.6449644-8.067563-27.3611242-10.677976-55.14279249-27.045109-62.2866315-50.36013-7.09717442-23.268189 6.44343718-53.5311002 26.4742948-80.3434833 20.0307856-26.7652617 46.5513987-50.12682847 69.5244058-47.28239437 23.0184593 2.79781702 42.4894573 31.75494587 64.5743363 58.98709877z" fill="#080f33"/><circle cx="30" cy="156" fill="#39bee8" fill-rule="nonzero" r="2"/><circle cx="39.5" cy="39.5" fill="#ff9f67" fill-rule="nonzero" r="3.5"/><circle cx="188.5" cy="91.5" fill="#b3db64" fill-rule="nonzero" r="3.5"/><g fill="#fff"><path d="m117.944716 63.3642502c2.425654-.2944875 4.85846-.4104105 7.298416-.3477689.296771.0072002.546345.1188031.750866.3355286.203807.2160056.302492.4730521.294626.7711398v.0057601.0057602c-.005721.1411236-.036471.2764871-.094395.4046504-.057209.1288833-.137301.2419262-.238847.3391287-.102976.0986425-.220969.1735244-.353979.2253657-.132296.0511213-.269597.075602-.411904.0720019-2.244731-.0576015-4.482312.0432011-6.714886.3009677-.090819.0100803-.182354.0208805-.273173.0324008-.294625.0352809-.557786-.038881-.790912-.2232057s-.366851-.4240909-.402607-.7200185c-.017162-.1425636-.006436-.2822472.03218-.4204907.037901-.1375236.100831-.2628068.188789-.3758497.087959-.1123229.193795-.2037652.318224-.274327.123715-.0698418.25601-.1137629.397602-.1310434zm13.326082 1.2521121c-.000715.0021601-.000715.0036001-.001431.0057602 0 .00216-.000715.0043201-.000715.0057601-.022168.1396836-.017877.2779272.013587.4154507.031465.1375235.087959.2642468.168766.3794497.082238.116643.183069.2138455.303207.2901675.120139.0763219.251004.1274432.391166.1512038 2.30337.4010503 4.564549.9684249 6.782106 1.7021237.278893.0928824.54992.0727218.813081-.0590415.263161-.1317634.441938-.3384087.537048-.6184959.000715-.00144.00143-.0036001.00143-.0050401.000715-.0021601.00143-.0043201.002145-.0057602.044337-.1360835.0615-.275767.050773-.4183307-.010726-.1432837-.047912-.2786471-.112272-.4060904-.06436-.1281633-.150173-.2383261-.258155-.3319285s-.228835-.1627242-.363991-.2073653c-2.317673-.7668197-4.679682-1.3601149-7.087459-1.7784456-.291765-.0504013-.558501.0100802-.800924.1821646-.241707.1713644-.388305.4046504-.438362.6984179zm13.656462 4.1912275c-.000715.0021601-.00143.0036001-.002145.0057602-.00143.00144-.002145.00288-.00286.0050401-.0615.1267232-.09654.2606467-.106552.4017703-.009296.1404036.008582.2779271.052918.4118506.044337.1360834.113703.2584866.206667.3664894.092965.1080027.203092.1944049.330381.2584866 2.080256 1.0505069 4.079705 2.2507777 5.999776 3.6015323.116563.0820821.243853.1389636.3833.1692044.138731.0309608.278177.0338409.418339.0093602.138016-.0252006.266021-.0748819.384729-.1504838.118709-.074882.218824-.1699244.300347-.2851273.00143-.0014401.002145-.0028801.003575-.0050402.000715-.00144.002146-.0028801.002861-.0043201.170196-.2448063.228835-.5133732.177347-.8071407s-.198801-.5263335-.441938-.6969779c-2.004454-1.4105161-4.093292-2.6640683-6.266512-3.7613764-.265306-.1339235-.537763-.154084-.819517-.0597615-.281038.0936024-.487705.274327-.620716.5407338zm11.895146 7.992925c-.00143.00072-.00286.00216-.003575.0036001-.00143.00144-.002861.0028801-.004291.0043201-.095109.1044027-.16662.2224857-.215963.3549691-.048628.1317634-.070796.2685669-.066505.4096905.00429.1432837.035755.2800872.093679.4104105.058639.1310434.139447.2455263.243138.3434488 1.703393 1.6128414 3.278781 3.3394457 4.726164 5.1790928.182353.231846.419055.3657694.71082.4017703.291765.036001.55421-.0367209.786621-.2181655.00143-.0014401.002861-.0021601.004291-.0036001.00143-.0014401.003575-.0021601.005006-.0036001.111557-.0892823.201661-.1958451.271026-.3211283.069366-.1252832.112273-.2584866.12872-.4010503.015733-.1425636.005006-.2822472-.034325-.4197707-.038616-.1382436-.102261-.2628068-.190934-.3751296-1.511744-1.9224493-3.157928-3.7260956-4.937838-5.4116588-.215248-.2044853-.471257-.3024078-.767313-.2930475-.296056.0093602-.545629.1224031-.748721.3398487zm9.090484 11.0508434c-.002146.00144-.003576.00216-.005006.0028801-.002146.00144-.003576.00216-.005006.0036-.253149.1504839-.416909.3686495-.491996.6552168-.074371.2858474-.038616.5572943.108697.8136209 1.166345 2.0369322 2.179656 4.1509065 3.040649 6.3419226.107982.2757671.296771.4723322.565652.5918552.269597.1188031.541339.1252832.815226.0194405.002146-.00072.004291-.00144.005721-.00216.002145-.0007201.003576-.0014401.005721-.0021601.275318-.1094428.471973-.3009677.589251-.5745747.117993-.273607.122284-.5493741.013587-.8265812-.899609-2.2896587-1.958687-4.4979554-3.177235-6.62705-.071511-.1238431-.163045-.2296859-.276033-.3168081-.112987-.0871222-.238132-.1490438-.375433-.1864848-.137301-.0374409-.276748-.0460812-.417624-.0280807-.140877.0187205-.273173.0640816-.396171.1353635zm5.538529 13.2368198c-.002145.00072-.00429.00072-.005721.00144-.002145.00072-.00429.00072-.00572.00144-.285329.071282-.504868.232566-.657902.485292-.153749.252727-.196655.522734-.12872.810741.535618 2.290379.9039 4.607398 1.105561 6.951778.025744.294488.150173.537854.374003.729379.223829.192245.482699.276487.775894.254166h.005721c.002146-.00072.003576-.00072.005721-.00072.295341-.02592.537763-.152644.728698-.380889.190219-.228246.273172-.491053.247428-.788421-.210958-2.448782-.595687-4.868764-1.154904-7.260666-.067935-.290167-.22812-.513373-.479839-.670337-.251718-.156964-.52203-.201605-.81022-.133203zm1.526761 14.273646c-.293195-.013681-.54992.077762-.768029.275767-.218823.198005-.336817.444251-.353979.740179-.056494.962664-.140877 1.922449-.254579 2.880074-.246714 1.419156-.51774 2.792951-.814511 4.121385-.06436.289448-.018593.560175.138731.811461.156609.251287.379009.410411.665768.477372l.007151.00144c.288905.065522.558501.018721.80879-.141123s.408328-.38449.472688-.676098c.306067-1.370915.58639-2.787911.840255-4.251709.00143-.00936.00286-.01872.00429-.0288.00143-.009361.002861-.018721.003576-.028081.120138-1.010186.210242-2.023252.269596-3.039198.017163-.298088-.072226-.558014-.269596-.78122-.196656-.222486-.442654-.342729-.738709-.360729-.00143 0-.003576 0-.005721 0-.00143 0-.003576 0-.005721-.00072zm-6.712026 21.333427c-.13158.264247-.151603.536413-.060784.817941.090819.280807.266736.488892.527036.624976.002145.00072.004291.00216.006436.00288.002145.00144.004291.00216.005721.00288.265306.133923.537763.153364.819516.059761.281039-.094322.487706-.275047.620001-.541453 1.031904-2.074374 1.955827-4.338112 2.771768-6.790495.093679-.282967.074371-.558014-.057209-.825141-.132295-.266407-.338962-.447131-.620001-.542174l-.008581-.00288c-.280323-.091442-.55135-.070562-.814511.062642-.26316.133203-.441223.340569-.534187.621376-.783761 2.35662-1.668353 4.526036-2.655205 6.509687zm-8.511959 10.790196c-.232411.177845-.369712.411851-.411903.702738-.042907.290168.021453.554415.193079.792021.002146.00288.005006.00648.007152.00936.002145.00288.00429.00648.006436.00936.179492.237606.416194.37657.709389.416171.293195.040321.558501-.029521.793773-.209525 1.910059-1.461638 3.654214-3.212723 5.233177-5.253255.182353-.235446.255295-.501133.218824-.797061-.036471-.295927-.171626-.535693-.405468-.718578-.002145-.00216-.005005-.0036-.007151-.00576-.00286-.00216-.005005-.0036-.007151-.00576-.233841-.177125-.496286-.246247-.785906-.207366-.290335.038881-.525606.174245-.705099.406811-1.464546 1.892928-3.077835 3.51297-4.839152 4.860844zm-6.228611 3.418648c-.002861.00072-.005721.00216-.008581.00288-.002861.00144-.005721.00216-.007867.0036-.273172.106563-.469827.294488-.589251.563055-.120138.269287-.129435.542174-.027889.817941.102976.280087.288905.482412.558501.606255.268882.124563.542054.135364.820232.031681l.269597-.100803c.277462-.103682.478408-.290887.602122-.561614.123715-.270727.133726-.546494.031465-.825861-.002145-.00504-.003575-.00936-.005721-.01368-.00143-.005041-.00286-.009361-.005005-.013681-.107982-.271447-.295341-.466572-.560647-.585375-.266021-.118083-.534902-.126723-.80736-.0252z"/><path d="m40.0952801 80.901626h9.9713735c.8059026 0 1.4592158.6533131 1.4592158 1.4592157s-.6533132 1.4592158-1.4592158 1.4592158h-9.9713735c-.8059026 0-1.4592157-.6533132-1.4592157-1.4592158s.6533131-1.4592157 1.4592157-1.4592157z" fill-rule="nonzero" transform="matrix(-.65605881 -.75470977 -.75470977 .65605881 136.815265 62.350333)"/><rect fill-rule="nonzero" height="3" rx="1.5" transform="matrix(-1 0 0 -1 73 203)" width="13" x="30" y="100"/><path d="m33.6748628 89.6361484h9.9713706c.8059023 0 1.4592153.653313 1.4592153 1.4592153 0 .8059024-.653313 1.4592153-1.4592153 1.4592153h-9.9713706c-.8059024 0-1.4592153-.6533129-1.4592153-1.4592153 0-.8059023.6533129-1.4592153 1.4592153-1.4592153z" fill-rule="nonzero" transform="matrix(-.93969262 -.34202014 .34202014 -.93969262 43.83313 189.919692)"/></g><path d="m107.70148 39.259617c1.640893-3.0128227 5.956261-3.0128227 7.597154 0l61.166 112.324153c1.574536 2.890702-.512824 6.41623-3.798216 6.41623h-122.332649c-3.2856087 0-5.3728246-3.525528-3.798505-6.41623z" fill="#f37e6f"/><path d="m164.609199 148.09845-55.722014-110.3469177c-.412905-.8186377-1.081178-1.4784943-2.004818-1.979498-.922922-.5010036-1.944394-.7579951-3.063697-.7715599-1.118584-.0124661-2.14581.2207299-3.080241.7001013-.9344313.4794434-1.6178104 1.1235807-2.0501376 1.9324117l-58.2599396 109.0218686c-.3542781.662669-.4887959 1.35346-.4035533 2.07093.0852425.717471.3801746 1.377977.8847961 1.982238.5046934.603541 1.1598022 1.079451 1.9653264 1.427731.8055241.34828 1.6668695.527106 2.5841082.537923l113.9816648 1.325853c.917167.010301 1.782541-.149057 2.596122-.478589.812861-.329532 1.478976-.789578 1.997625-1.381582.518649-.592003.828687-1.246019.930115-1.961327.102147-.715307-.016545-1.408261-.355357-2.079583zm-60.814987-110.9347193c1.23368.0146903 2.078192.4730063 2.533539 1.3753609l55.722013 110.3467734c.361112.716029.265439 1.388793-.287019 2.020455-.553178.630942-1.318562.941004-2.296873.929778l-113.9815938-1.325649c-.9780234-.010816-1.7361426-.338905-2.2742857-.982826-.538143-.643921-.6183502-1.318848-.2406213-2.025503l58.2596518-109.0223009c.476927-.8914663 1.33151-1.3300969 2.565189-1.3160884z" fill="#924c43"/><rect fill="#924c43" fill-rule="nonzero" height="2" rx="1" width="50" x="82" y="146"/><circle cx="81.5" cy="101.5" fill="#080f33" fill-rule="nonzero" r="31.5"/><circle cx="80" cy="104" fill="#fff" fill-rule="nonzero" r="26"/><path d="m108 101c0 14.359222-11.6407778 26-26 26s-26-11.640778-26-26c0-14.3592222 11.6407778-26 26-26s26 11.6407778 26 26zm-9.1469444 16.853056c-4.654 4.653277-10.2714445 6.980277-16.8530556 6.980277s-12.1990556-2.327-16.8530556-6.980277c-4.6532777-4.654-6.9802777-10.271445-6.9802777-16.853056 0-6.5816111 2.327-12.1990556 6.9802777-16.8530556 4.654-4.6532777 10.2714445-6.9802777 16.8530556-6.9802777s12.1990556 2.327 16.8530556 6.9802777c4.6532774 4.654 6.9802774 10.2714445 6.9802774 16.8530556 0 6.581611-2.327 12.199056-6.9802774 16.853056z" fill="#924c43"/><path d="m80.0031165 86.1630556c-.0634155-1.1743334.849063-2.1630556 1.9968835-2.1630556 1.1478205 0 2.060299.9887222 1.9968835 2.1630556l-1.253513 23.1161664c-.0218431.404445-.3480806.720778-.7433705.720778-.3952899 0-.7215274-.316333-.7433705-.720778z" fill="#0d0938"/><circle cx="82" cy="115" fill="#0d0938" fill-rule="nonzero" r="2"/></g></svg>