<?xml version="1.0" encoding="UTF-8"?>
<svg width="192px" height="192px" viewBox="0 0 192 192" version="1.1" xmlns="http://www.w3.org/2000/svg" xmlns:xlink="http://www.w3.org/1999/xlink">
    <title>android-chrome-192x192@1x</title>
    <g id="Yapsody-Icon" stroke="none" stroke-width="1" fill="none" fill-rule="evenodd">
        <g id="Group-Copy-17">
            <path d="M0.000658019187,11.9923062 C0.000658019187,5.37346902 5.36977801,0 11.9929232,0 L180.007735,0 C186.626549,0 192,5.36913839 192,11.9923062 L192,180.007694 C192,186.626531 186.63088,192 180.007735,192 L11.9929232,192 C5.37410863,192 0.000658019187,186.630862 0.000658019187,180.007694 L0.000994822722,121.67381 C0.00100741469,121.90689 0.00102016606,122.136477 0.00103307884,122.362449 L0.0019577556,130.488253 C0.00197753043,130.532667 0.001997505,130.57114 0.00201768135,130.60355 C15.9848414,126.875993 27.8712343,112.79779 27.8712343,96 C27.8712343,79.2015034 15.983841,65.1228225 -5.22974784e-16,61.3959797 Z" id="Rectangle-2" fill="#E40046"></path>
            <path d="M99,86.455 L122.830986,49.86 C124.140852,47.9533238 125.978861,47 128.34507,47 C130.204235,47 131.778163,47.6716599 133.066901,49.015 C134.35564,50.3583401 135,51.9833238 135,53.89 C135,55.4500078 134.661975,56.7499948 133.985915,57.79 L105.71831,101.08 L105.71831,144.11 C105.71831,146.016676 105.063387,147.64166 103.753521,148.985 C102.443655,150.32834 100.859164,151 99,151 C97.1830895,151 95.6091616,150.32834 94.278169,148.985 C92.9471764,147.64166 92.2816901,146.016676 92.2816901,144.11 L92.2816901,101.08 L64.0774648,57.79 C63.3591513,56.6633277 63,55.3633407 63,53.89 C63,51.9833238 63.654923,50.3583401 64.9647887,49.015 C66.2746544,47.6716599 67.8591456,47 69.7183099,47 C72.0845189,47 73.9014021,47.9533238 75.1690141,49.86 L99,86.455 Z" id="Yapsody" fill="#FFFFFF"></path>
        </g>
    </g>
</svg>